<svg xmlns="http://www.w3.org/2000/svg" width="512" height="512" viewBox="0 0 512 512" version="1.1">
  <path d="M 150.5 170.5 C 153.224 170.283 154.557 171.283 154 173.5 C 145.891 192.801 138.057 212.468 130.5 232.5 C 129.979 234.068 130.396 235.068 131.75 235.5 C 146.583 235.667 161.417 235.833 176.25 236 C 178.534 237.271 179.284 239.104 178.5 241.5 C 148.192 273.285 117.942 305.118 87.75 337 C 84.068 338.364 82.651 337.031 83.5 333 C 93.878 310.442 103.961 288.025 113.75 265.75 C 113.555 264.52 112.888 263.687 111.75 263.25 C 96.917 263.286 82.083 263.286 67.25 263.25 C 64.455 262.024 63.539 259.858 64.5 256.75 C 93.044 228.455 121.711 200.288 150.5 172.25 C 150.5 171.667 150.5 171.083 150.5 170.5 Z" fill="#fec523"/>
</svg>
