<?xml version="1.0" encoding="UTF-8"?>
<!DOCTYPE svg PUBLIC "-//W3C//DTD SVG 1.1//EN" "http://www.w3.org/Graphics/SVG/1.1/DTD/svg11.dtd">
<svg xmlns="http://www.w3.org/2000/svg" version="1.1" width="1024px" height="1024px" style="shape-rendering:geometricPrecision; text-rendering:geometricPrecision; image-rendering:optimizeQuality; fill-rule:evenodd; clip-rule:evenodd" xmlns:xlink="http://www.w3.org/1999/xlink">
<g><path style="opacity:1" fill="#f7f4e7" d="M -0.5,-0.5 C 340.833,-0.5 682.167,-0.5 1023.5,-0.5C 1023.5,340.833 1023.5,682.167 1023.5,1023.5C 682.167,1023.5 340.833,1023.5 -0.5,1023.5C -0.5,682.167 -0.5,340.833 -0.5,-0.5 Z"/></g>
<g><path style="opacity:1" fill="#091931" d="M 669.5,177.5 C 672.097,177.721 672.097,178.221 669.5,179C 661.429,180.079 653.763,182.412 646.5,186C 637.776,194.296 636.276,203.796 642,214.5C 650.703,222.871 659.703,230.871 669,238.5C 669.667,239.167 669.667,239.833 669,240.5C 627.806,281.694 586.64,322.86 545.5,364C 544.5,364.667 543.5,364.667 542.5,364C 536.569,358.576 531.236,352.742 526.5,346.5C 532.465,351.964 538.298,357.63 544,363.5C 585,322.5 626,281.5 667,240.5C 666.107,237.564 664.274,235.064 661.5,233C 654.373,227.541 647.539,221.708 641,215.5C 633.209,197.921 638.375,186.088 656.5,180C 660.754,178.686 665.087,177.853 669.5,177.5 Z"/></g>
<g><path style="opacity:1" fill="#041730" d="M 374.5,319.5 C 374.631,320.239 374.464,320.906 374,321.5C 322.557,373.11 271.057,424.443 219.5,475.5C 270.472,422.861 322.138,370.861 374.5,319.5 Z"/></g>
<g><path style="opacity:1" fill="#153a51" d="M 711.5,330.5 C 661.701,378.796 612.034,427.962 562.5,478C 562.728,478.399 563.062,478.565 563.5,478.5C 547.179,491.806 532.512,490.139 519.5,473.5C 509.637,462.47 498.971,452.304 487.5,443C 476.913,431.91 465.913,421.41 454.5,411.5C 448.035,405.536 441.702,399.369 435.5,393C 375.304,453.861 314.304,514.195 252.5,574C 241.748,581.186 231.082,581.186 220.5,574C 208.38,563.18 196.547,552.014 185,540.5C 179.422,530.059 179.422,519.726 185,509.5C 195.725,497.274 207.225,485.941 219.5,475.5C 271.057,424.443 322.557,373.11 374,321.5C 374.464,320.906 374.631,320.239 374.5,319.5C 374.369,318.761 374.536,318.094 375,317.5C 389.805,303.696 404.305,289.529 418.5,275C 432.018,268.152 444.684,269.485 456.5,279C 462.362,284.033 468.029,289.199 473.5,294.5C 490.503,312.503 508.17,329.836 526.5,346.5C 531.236,352.742 536.569,358.576 542.5,364C 543.5,364.667 544.5,364.667 545.5,364C 586.64,322.86 627.806,281.694 669,240.5C 669.667,239.833 669.667,239.167 669,238.5C 659.703,230.871 650.703,222.871 642,214.5C 636.276,203.796 637.776,194.296 646.5,186C 653.763,182.412 661.429,180.079 669.5,179C 672.097,178.221 672.097,177.721 669.5,177.5C 715.073,167.155 760.74,156.655 806.5,146C 820.6,143.633 830.767,148.8 837,161.5C 837.667,165.833 837.667,170.167 837,174.5C 825.009,224.479 813.009,274.479 801,324.5C 793.35,335.939 782.85,339.439 769.5,335C 767.004,333.92 764.67,332.586 762.5,331C 753.78,322.57 744.614,314.736 735,307.5C 726.647,314.686 718.814,322.353 711.5,330.5 Z"/></g>
<g><path style="opacity:1" fill="#07182e" d="M 454.5,411.5 C 465.913,421.41 476.913,431.91 487.5,443C 498.971,452.304 509.637,462.47 519.5,473.5C 510.088,465.592 501.088,457.092 492.5,448C 479.028,436.695 466.361,424.528 454.5,411.5 Z"/></g>
<g><path style="opacity:1" fill="#272a56" d="M 318.5,408.5 C 308.167,419.5 297.5,430.167 286.5,440.5C 296.117,429.366 306.617,418.366 318,407.5C 318.399,407.728 318.565,408.062 318.5,408.5 Z"/></g>
<g><path style="opacity:1" fill="#0b2155" d="M 399.5,394.5 C 399.631,395.239 399.464,395.906 399,396.5C 367.89,427.777 336.724,458.777 305.5,489.5C 336.138,457.195 367.471,425.529 399.5,394.5 Z"/></g>
<g><path style="opacity:1" fill="#042256" d="M 619.5,390.5 C 615.167,396.833 609.833,402.167 603.5,406.5C 608.5,400.833 613.833,395.5 619.5,390.5 Z"/></g>
<g><path style="opacity:1" fill="#122158" d="M 353.5,372.5 C 343.833,382.833 333.833,392.833 323.5,402.5C 332.743,391.754 342.576,381.42 353,371.5C 353.399,371.728 353.565,372.062 353.5,372.5 Z"/></g>
<g><path style="opacity:1" fill="#0c2156" d="M 642.5,366.5 C 637.263,373.243 631.429,379.577 625,385.5C 624.601,385.272 624.435,384.938 624.5,384.5C 630.167,378.167 636.167,372.167 642.5,366.5 Z"/></g>
<g><path style="opacity:1" fill="#f3b746" d="M 810.5,170.5 C 811.613,171.946 811.78,173.613 811,175.5C 800.207,220.674 790.04,266.007 780.5,311.5C 779.448,311.649 778.448,311.483 777.5,311C 766.167,301 754.833,291 743.5,281C 738.318,278.924 733.318,279.091 728.5,281.5C 726.745,282.072 725.078,282.906 723.5,284C 709.298,298.035 695.298,312.201 681.5,326.5C 668.451,339.881 655.451,353.214 642.5,366.5C 636.167,372.167 630.167,378.167 624.5,384.5C 622.367,386.091 620.701,388.091 619.5,390.5C 613.833,395.5 608.5,400.833 603.5,406.5C 585.673,424.16 567.673,441.66 549.5,459C 545.705,459.837 542.039,459.504 538.5,458C 529.912,448.908 520.912,440.408 511.5,432.5C 506.443,426.441 500.776,421.107 494.5,416.5C 493.833,415.167 492.833,414.167 491.5,413.5C 476.062,398.562 460.728,383.396 445.5,368C 443.922,366.906 442.255,366.072 440.5,365.5C 440.158,364.662 439.492,364.328 438.5,364.5C 434.208,364.035 430.208,364.868 426.5,367C 418.303,375.531 409.803,383.698 401,391.5C 400.487,392.527 399.987,393.527 399.5,394.5C 367.471,425.529 336.138,457.195 305.5,489.5C 304.527,489.987 303.527,490.487 302.5,491C 282.938,510.729 263.272,530.229 243.5,549.5C 242.053,551.403 240.386,553.07 238.5,554.5C 236.345,554.628 234.345,554.128 232.5,553C 223.697,545.198 215.197,537.031 207,528.5C 205.699,526.635 205.365,524.635 206,522.5C 207.666,520.004 209.5,517.671 211.5,515.5C 215.5,512.167 219.167,508.5 222.5,504.5C 222.833,504.5 223.167,504.5 223.5,504.5C 223.435,504.938 223.601,505.272 224,505.5C 229.681,499.652 235.515,493.985 241.5,488.5C 268.432,461.068 295.599,433.734 323,406.5C 323.692,405.563 323.525,404.897 322.5,404.5C 322.833,403.833 323.167,403.167 323.5,402.5C 333.833,392.833 343.833,382.833 353.5,372.5C 379.048,346.69 404.714,320.857 430.5,295C 433.634,294.21 436.634,294.543 439.5,296C 446.705,302.708 454.038,309.208 461.5,315.5C 471.167,327.167 481.833,337.833 493.5,347.5C 495.061,349.973 497.061,351.973 499.5,353.5C 509.865,364.866 520.865,375.533 532.5,385.5C 533.574,386.885 534.907,388.051 536.5,389C 546.031,391.54 553.698,389.04 559.5,381.5C 568.167,373.5 576.5,365.167 584.5,356.5C 620.437,322.064 655.937,287.064 691,251.5C 693.358,248.778 695.191,245.778 696.5,242.5C 697.88,238.563 697.714,234.563 696,230.5C 690.909,224.902 685.409,219.902 679.5,215.5C 674.54,211.712 669.707,207.712 665,203.5C 664.409,202.517 664.743,201.85 666,201.5C 692.765,196.014 719.265,190.014 745.5,183.5C 758.597,181.244 771.597,178.577 784.5,175.5C 785.492,175.672 786.158,175.338 786.5,174.5C 794.565,173.483 802.565,172.149 810.5,170.5 Z"/></g>
<g><path style="opacity:1" fill="#1b2e53" d="M 440.5,365.5 C 442.255,366.072 443.922,366.906 445.5,368C 460.728,383.396 476.062,398.562 491.5,413.5C 484.241,407.581 477.241,401.247 470.5,394.5C 469.232,395.428 467.899,395.595 466.5,395C 466.833,394.667 467.167,394.333 467.5,394C 466.207,393.51 464.873,393.343 463.5,393.5C 463.649,392.448 463.483,391.448 463,390.5C 462.333,389.167 461.667,389.167 461,390.5C 460.333,389.5 460.333,388.5 461,387.5C 462.281,388.647 462.614,388.313 462,386.5C 454.582,378.905 447.415,371.905 440.5,365.5 Z"/></g>
<g><path style="opacity:1" fill="#0c2357" d="M 584.5,356.5 C 576.5,365.167 568.167,373.5 559.5,381.5C 566.574,372.922 574.24,364.755 582.5,357C 583.094,356.536 583.761,356.369 584.5,356.5 Z"/></g>
<g><path style="opacity:1" fill="#132755" d="M 438.5,364.5 C 434.899,365.491 431.232,366.658 427.5,368C 418.553,377.453 409.22,386.286 399.5,394.5C 399.987,393.527 400.487,392.527 401,391.5C 409.803,383.698 418.303,375.531 426.5,367C 430.208,364.868 434.208,364.035 438.5,364.5 Z"/></g>
<g><path style="opacity:1" fill="#1f2657" d="M 499.5,353.5 C 507.276,360.103 514.942,366.937 522.5,374C 526.439,377.429 529.772,381.263 532.5,385.5C 520.865,375.533 509.865,364.866 499.5,353.5 Z"/></g>
<g><path style="opacity:1" fill="#1a2357" d="M 461.5,315.5 C 468.616,322.445 475.949,329.279 483.5,336C 487.439,339.429 490.772,343.263 493.5,347.5C 481.833,337.833 471.167,327.167 461.5,315.5 Z"/></g>
<g><path style="opacity:1" fill="#1e2955" d="M 728.5,281.5 C 713.686,295.804 698.186,311.137 682,327.5C 681.601,327.272 681.435,326.938 681.5,326.5C 695.298,312.201 709.298,298.035 723.5,284C 725.078,282.906 726.745,282.072 728.5,281.5 Z"/></g>
<g><path style="opacity:1" fill="#06162d" d="M 473.5,294.5 C 491.783,311.115 509.449,328.448 526.5,346.5C 508.17,329.836 490.503,312.503 473.5,294.5 Z"/></g>
<g><path style="opacity:1" fill="#b8783e" d="M 679.5,215.5 C 685.409,219.902 690.909,224.902 696,230.5C 697.714,234.563 697.88,238.563 696.5,242.5C 696.664,239.813 696.497,237.146 696,234.5C 691.037,227.704 685.537,221.37 679.5,215.5 Z"/></g>
<g><path style="opacity:1" fill="#162853" d="M 784.5,175.5 C 771.597,178.577 758.597,181.244 745.5,183.5C 744.761,183.631 744.094,183.464 743.5,183C 756.166,180.233 768.832,177.4 781.5,174.5C 782.726,174.52 783.726,174.853 784.5,175.5 Z"/></g>
<g><path style="opacity:1" fill="#112052" d="M 810.5,170.5 C 802.565,172.149 794.565,173.483 786.5,174.5C 792.936,172.734 800.103,171.067 808,169.5C 809.07,169.528 809.903,169.861 810.5,170.5 Z"/></g>
<g><path style="opacity:1" fill="#dce0e1" d="M 690.5,384.5 C 687.62,384.94 684.954,385.94 682.5,387.5C 676.87,391.752 673.537,397.419 672.5,404.5C 672.688,542.169 672.354,679.835 671.5,817.5C 652.529,819.488 633.196,820.154 613.5,819.5C 607.355,818.51 601.022,818.177 594.5,818.5C 594.5,725.5 594.5,632.5 594.5,539.5C 595.502,625.49 595.835,718.157 595.5,817.5C 620.167,817.5 644.833,817.5 669.5,817.5C 670.254,679.169 670.754,540.836 671,402.5C 673.338,393.83 678.338,387.163 686,382.5C 703.336,382.375 720.836,382.542 738.5,383C 722.328,383.169 706.328,383.669 690.5,384.5 Z"/></g>
<g><path style="opacity:1" fill="#172355" d="M 494.5,416.5 C 500.776,421.107 506.443,426.441 511.5,432.5C 505.177,427.843 499.51,422.51 494.5,416.5 Z"/></g>
<g><path style="opacity:1" fill="#04142d" d="M 711.5,330.5 C 662.5,380.167 613.167,429.5 563.5,478.5C 563.062,478.565 562.728,478.399 562.5,478C 612.034,427.962 661.701,378.796 711.5,330.5 Z"/></g>
<g><path style="opacity:1" fill="#f8cf44" d="M 322.5,404.5 C 323.525,404.897 323.692,405.563 323,406.5C 295.599,433.734 268.432,461.068 241.5,488.5C 235.515,493.985 229.681,499.652 224,505.5C 223.601,505.272 223.435,504.938 223.5,504.5C 238.833,488.833 254.167,473.167 269.5,457.5C 274.833,451.5 280.5,445.833 286.5,440.5C 297.5,430.167 308.167,419.5 318.5,408.5C 320.167,407.5 321.5,406.167 322.5,404.5 Z"/></g>
<g><path style="opacity:1" fill="#101f56" d="M 269.5,457.5 C 254.167,473.167 238.833,488.833 223.5,504.5C 223.167,504.5 222.833,504.5 222.5,504.5C 237.412,488.085 252.912,472.085 269,456.5C 269.399,456.728 269.565,457.062 269.5,457.5 Z"/></g>
<g><path style="opacity:1" fill="#031a35" d="M 593.5,526.5 C 593.5,530.833 593.5,535.167 593.5,539.5C 593.5,632.833 593.5,726.167 593.5,819.5C 592.667,723.334 592.167,627.001 592,530.5C 590.602,519.765 584.769,512.598 574.5,509C 531.998,508.833 489.665,508.333 447.5,507.5C 488.665,506.335 529.998,506.169 571.5,507C 582.475,509.479 589.808,515.979 593.5,526.5 Z"/></g>
<g><path style="opacity:1" fill="#132355" d="M 305.5,489.5 C 285.544,510.798 264.878,530.798 243.5,549.5C 263.272,530.229 282.938,510.729 302.5,491C 303.527,490.487 304.527,489.987 305.5,489.5 Z"/></g>
<g><path style="opacity:1" fill="#1c2556" d="M 211.5,515.5 C 209.5,517.671 207.666,520.004 206,522.5C 205.365,524.635 205.699,526.635 207,528.5C 215.197,537.031 223.697,545.198 232.5,553C 234.345,554.128 236.345,554.628 238.5,554.5C 236.228,555.764 233.895,555.598 231.5,554C 222.363,545.864 213.53,537.364 205,528.5C 203.471,522.224 205.638,517.891 211.5,515.5 Z"/></g>
<g><path style="opacity:1" fill="#fafaf7" d="M 593.5,526.5 C 589.808,515.979 582.475,509.479 571.5,507C 529.998,506.169 488.665,506.335 447.5,507.5C 440.178,509.571 434.678,513.905 431,520.5C 429.586,529.418 429.086,538.418 429.5,547.5C 428.501,637.665 428.167,727.998 428.5,818.5C 403.167,818.5 377.833,818.5 352.5,818.5C 352.5,817.5 352.5,816.5 352.5,815.5C 352.829,751.762 352.496,688.095 351.5,624.5C 351.672,623.508 351.338,622.842 350.5,622.5C 350.5,621.833 350.5,621.167 350.5,620.5C 352.21,621.474 353.377,623.474 354,626.5C 354.5,690.166 354.667,753.832 354.5,817.5C 378.896,818.151 403.062,817.484 427,815.5C 427.17,717.972 427.67,620.472 428.5,523C 428.241,521.739 427.574,520.739 426.5,520C 428.32,519.021 429.487,517.521 430,515.5C 430.333,516.167 430.667,516.833 431,517.5C 431.635,516.034 432.469,514.7 433.5,513.5C 433.291,512.914 432.957,512.414 432.5,512C 437.793,509.69 443.126,507.356 448.5,505C 489.833,504.333 531.167,504.333 572.5,505C 582.185,507.619 589.519,513.952 594.5,524C 593.748,524.671 593.414,525.504 593.5,526.5 Z"/></g>
<g><path style="opacity:1" fill="#02122c" d="M 672.5,404.5 C 673.666,542.333 673.833,680.333 673,818.5C 672.617,817.944 672.117,817.611 671.5,817.5C 672.354,679.835 672.688,542.169 672.5,404.5 Z"/></g>
<g><path style="opacity:1" fill="#172b45" d="M 350.5,620.5 C 350.5,621.167 350.5,621.833 350.5,622.5C 347.719,620.243 344.719,617.41 341.5,614C 339.913,613.138 338.246,612.471 336.5,612C 293.833,611.333 251.167,611.333 208.5,612C 199.737,614.43 193.904,619.93 191,628.5C 190.536,627.906 190.369,627.239 190.5,626.5C 193.903,617.775 200.236,612.275 209.5,610C 251.167,609.333 292.833,609.333 334.5,610C 337.376,610.438 340.043,611.438 342.5,613C 345.036,615.705 347.703,618.205 350.5,620.5 Z"/></g>
<g><path style="opacity:1" fill="#143a51" d="M 865.5,819.5 C 866.492,819.328 867.158,819.662 867.5,820.5C 868.479,822.02 870.313,823.353 873,824.5C 876.333,829.5 876.333,834.5 873,839.5C 870.958,841.604 868.458,842.771 865.5,843C 761.666,843.167 657.999,843.667 554.5,844.5C 421.166,844.667 287.833,844.5 154.5,844C 145.614,839.731 143.448,833.231 148,824.5C 150.313,821.928 153.146,820.261 156.5,819.5C 164.002,820.304 171.669,820.97 179.5,821.5C 183.432,821.154 187.265,820.487 191,819.5C 191.113,756.333 190.613,693.333 189.5,630.5C 189.232,628.901 189.566,627.568 190.5,626.5C 190.369,627.239 190.536,627.906 191,628.5C 193.904,619.93 199.737,614.43 208.5,612C 251.167,611.333 293.833,611.333 336.5,612C 338.246,612.471 339.913,613.138 341.5,614C 344.719,617.41 347.719,620.243 350.5,622.5C 351.338,622.842 351.672,623.508 351.5,624.5C 350.335,688.999 350.168,753.665 351,818.5C 351.232,817.263 351.732,816.263 352.5,815.5C 352.5,816.5 352.5,817.5 352.5,818.5C 377.995,819.498 403.661,819.831 429.5,819.5C 429.5,728.833 429.5,638.167 429.5,547.5C 429.086,538.418 429.586,529.418 431,520.5C 434.678,513.905 440.178,509.571 447.5,507.5C 489.665,508.333 531.998,508.833 574.5,509C 584.769,512.598 590.602,519.765 592,530.5C 592.167,627.001 592.667,723.334 593.5,819.5C 600.167,819.5 606.833,819.5 613.5,819.5C 633.196,820.154 652.529,819.488 671.5,817.5C 672.117,817.611 672.617,817.944 673,818.5C 673.833,680.333 673.666,542.333 672.5,404.5C 673.537,397.419 676.87,391.752 682.5,387.5C 682.56,388.043 682.893,388.376 683.5,388.5C 685.385,387.391 687.385,386.557 689.5,386C 731.5,385.333 773.5,385.333 815.5,386C 824.229,388.395 830.062,393.895 833,402.5C 833.333,541.5 833.667,680.5 834,819.5C 844.598,820.829 855.098,820.829 865.5,819.5 Z"/></g>
<g><path style="opacity:1" fill="#f4bd43" d="M 566.5,532.5 C 567.222,532.918 567.722,533.584 568,534.5C 568.5,629.166 568.667,723.833 568.5,818.5C 568.167,818.5 567.833,818.5 567.5,818.5C 567.831,790.662 567.498,762.995 566.5,735.5C 566.966,667.695 566.966,600.028 566.5,532.5 Z"/></g>
<g><path style="opacity:1" fill="#03213f" d="M 351.5,624.5 C 352.496,688.095 352.829,751.762 352.5,815.5C 351.732,816.263 351.232,817.263 351,818.5C 350.168,753.665 350.335,688.999 351.5,624.5 Z"/></g>
<g><path style="opacity:1" fill="#232f54" d="M 565.5,531.5 C 565.897,530.475 566.563,530.308 567.5,531C 568.893,532.171 569.727,533.671 570,535.5C 570.938,630.006 570.438,724.339 568.5,818.5C 568.667,723.833 568.5,629.166 568,534.5C 567.722,533.584 567.222,532.918 566.5,532.5C 566.5,531.833 566.167,531.5 565.5,531.5 Z"/></g>
<g><path style="opacity:1" fill="#edbf45" d="M 464.5,531.5 C 480.5,531.5 496.5,531.5 512.5,531.5C 493.992,532.277 475.326,532.943 456.5,533.5C 456.5,628.167 456.5,722.833 456.5,817.5C 493.167,817.5 529.833,817.5 566.5,817.5C 566.5,790.167 566.5,762.833 566.5,735.5C 567.498,762.995 567.831,790.662 567.5,818.5C 529.931,819.829 492.264,819.829 454.5,818.5C 454.333,723.499 454.5,628.499 455,533.5C 457.826,531.66 460.993,530.994 464.5,531.5 Z"/></g>
<g><path style="opacity:1" fill="#9ba8a7" d="M 429.5,547.5 C 429.5,638.167 429.5,728.833 429.5,819.5C 403.661,819.831 377.995,819.498 352.5,818.5C 377.833,818.5 403.167,818.5 428.5,818.5C 428.167,727.998 428.501,637.665 429.5,547.5 Z"/></g>
<g><path style="opacity:1" fill="#f1b544" d="M 565.5,531.5 C 566.167,531.5 566.5,531.833 566.5,532.5C 566.966,600.028 566.966,667.695 566.5,735.5C 566.5,762.833 566.5,790.167 566.5,817.5C 529.833,817.5 493.167,817.5 456.5,817.5C 456.5,722.833 456.5,628.167 456.5,533.5C 475.326,532.943 493.992,532.277 512.5,531.5C 530.159,530.499 547.826,530.499 565.5,531.5 Z"/></g>
<g><path style="opacity:1" fill="#172840" d="M 865.5,819.5 C 855.098,820.829 844.598,820.829 834,819.5C 833.667,680.5 833.333,541.5 833,402.5C 830.062,393.895 824.229,388.395 815.5,386C 773.5,385.333 731.5,385.333 689.5,386C 687.385,386.557 685.385,387.391 683.5,388.5C 682.893,388.376 682.56,388.043 682.5,387.5C 684.954,385.94 687.62,384.94 690.5,384.5C 731.832,383.799 773.166,383.632 814.5,384C 824.894,386.726 831.727,393.226 835,403.5C 835.5,542.166 835.667,680.833 835.5,819.5C 845.5,819.5 855.5,819.5 865.5,819.5 Z"/></g>
<g><path style="opacity:1" fill="#041e55" d="M 464.5,531.5 C 460.993,530.994 457.826,531.66 455,533.5C 454.5,628.499 454.333,723.499 454.5,818.5C 453.335,723.903 453.168,628.57 454,532.5C 454.903,531.299 456.069,530.465 457.5,530C 475.5,529.333 493.5,529.333 511.5,530C 495.661,530.169 479.995,530.669 464.5,531.5 Z"/></g>
<g><path style="opacity:1" fill="#2c617c" d="M 700.5,408.5 C 735.829,409.296 771.163,409.463 806.5,409C 807.931,409.465 809.097,410.299 810,411.5C 810.667,546.5 810.667,681.5 810,816.5C 809.626,817.416 809.126,818.25 808.5,819C 771.168,819.078 733.835,818.911 696.5,818.5C 696.89,682.5 697.39,546.5 698,410.5C 698.995,409.934 699.828,409.267 700.5,408.5 Z"/></g>
<g><path style="opacity:1" fill="#2d627d" d="M 217.5,635.5 C 252.835,635.333 288.168,635.5 323.5,636C 324.931,636.465 326.097,637.299 327,638.5C 327.667,698.167 327.667,757.833 327,817.5C 326.25,818.126 325.416,818.626 324.5,819C 287.834,819.213 251.167,819.047 214.5,818.5C 214.333,758.499 214.5,698.499 215,638.5C 216.045,637.627 216.878,636.627 217.5,635.5 Z"/></g>
<g><path style="opacity:1" fill="#c1c6bf" d="M 593.5,539.5 C 593.833,539.5 594.167,539.5 594.5,539.5C 594.5,632.5 594.5,725.5 594.5,818.5C 601.022,818.177 607.355,818.51 613.5,819.5C 606.833,819.5 600.167,819.5 593.5,819.5C 593.5,726.167 593.5,632.833 593.5,539.5 Z"/></g>
<g><path style="opacity:1" fill="#021934" d="M 189.5,630.5 C 190.613,693.333 191.113,756.333 191,819.5C 187.265,820.487 183.432,821.154 179.5,821.5C 171.669,820.97 164.002,820.304 156.5,819.5C 167.5,819.5 178.5,819.5 189.5,819.5C 189.5,756.5 189.5,693.5 189.5,630.5 Z"/></g>
<g><path style="opacity:1" fill="#010d2a" d="M 867.5,820.5 C 873.844,821.812 876.844,825.812 876.5,832.5C 876.803,838.368 874.137,842.202 868.5,844C 763.834,844.5 659.167,844.667 554.5,844.5C 657.999,843.667 761.666,843.167 865.5,843C 868.458,842.771 870.958,841.604 873,839.5C 876.333,834.5 876.333,829.5 873,824.5C 870.313,823.353 868.479,822.02 867.5,820.5 Z"/></g>
</svg>
