<?xml version="1.0" encoding="UTF-8"?>
<!DOCTYPE svg PUBLIC "-//W3C//DTD SVG 1.1//EN" "http://www.w3.org/Graphics/SVG/1.1/DTD/svg11.dtd">
<svg xmlns="http://www.w3.org/2000/svg" version="1.1" width="1024px" height="1024px" style="shape-rendering:geometricPrecision; text-rendering:geometricPrecision; image-rendering:optimizeQuality; fill-rule:evenodd; clip-rule:evenodd" xmlns:xlink="http://www.w3.org/1999/xlink">
<g><path style="opacity:1" fill="#f6ebd7" d="M -0.5,-0.5 C 340.833,-0.5 682.167,-0.5 1023.5,-0.5C 1023.5,340.833 1023.5,682.167 1023.5,1023.5C 682.167,1023.5 340.833,1023.5 -0.5,1023.5C -0.5,682.167 -0.5,340.833 -0.5,-0.5 Z"/></g>
<g><path style="opacity:1" fill="#173842" d="M 850.5,335.5 C 846.933,340.943 843.1,346.276 839,351.5C 825.667,365.5 812.333,379.5 799,393.5C 699.306,493.194 599.64,592.86 500,692.5C 485.896,708.606 471.062,724.106 455.5,739C 446.884,743.807 437.884,747.807 428.5,751C 375.11,768.296 322.11,786.462 269.5,805.5C 250.077,812.709 230.743,820.209 211.5,828C 191.767,830.933 181.934,822.433 182,802.5C 188.843,780.154 195.676,757.82 202.5,735.5C 219.464,686.785 236.964,638.119 255,589.5C 257.996,578.85 260.996,568.183 264,557.5C 279.058,543.445 293.891,528.945 308.5,514C 309.094,513.536 309.761,513.369 310.5,513.5C 323.277,501.894 335.943,490.06 348.5,478C 366.971,458.528 385.805,439.362 405,420.5C 405.464,419.906 405.631,419.239 405.5,418.5C 419.414,406.089 432.914,393.089 446,379.5C 446.464,378.906 446.631,378.239 446.5,377.5C 447.5,374.5 449.5,372.5 452.5,371.5C 470.436,355.066 487.936,338.066 505,320.5C 505.464,319.906 505.631,319.239 505.5,318.5C 513.467,310.507 521.467,302.507 529.5,294.5C 530.72,293.289 531.887,293.289 533,294.5C 533,293.167 533,291.833 533,290.5C 560.388,262.778 588.055,235.445 616,208.5C 630.703,192.296 646.203,176.963 662.5,162.5C 693.305,145.828 721.972,148.995 748.5,172C 773.203,194.372 798.203,216.372 823.5,238C 833.055,246.555 841.555,256.055 849,266.5C 862.05,289.265 862.55,312.265 850.5,335.5 Z"/></g>
<g><path style="opacity:1" fill="#eaae39" d="M 800.5,334.5 C 790.838,343.994 781.005,353.328 771,362.5C 769.961,361.29 768.794,360.29 767.5,359.5C 738.686,332.524 709.353,306.024 679.5,280C 667.182,267.113 654.016,255.279 640,244.5C 639.333,243.833 639.333,243.167 640,242.5C 653.471,228.029 667.304,213.862 681.5,200C 691.927,190.605 703.26,189.272 715.5,196C 747.262,223.092 778.429,250.925 809,279.5C 819.543,292.622 820.21,306.288 811,320.5C 807.668,325.327 804.168,329.993 800.5,334.5 Z"/></g>
<g><path style="opacity:1" fill="#08122a" d="M 701.5,238.5 C 703.337,238.639 703.67,239.306 702.5,240.5C 701.702,240.043 701.369,239.376 701.5,238.5 Z"/></g>
<g><path style="opacity:1" fill="#eaaf39" d="M 695.5,343.5 C 708.245,356.915 721.912,369.248 736.5,380.5C 739.483,383.76 742.483,387.094 745.5,390.5C 736.833,399.833 727.833,408.833 718.5,417.5C 696.352,398.52 674.352,379.353 652.5,360C 630.493,338.994 608.16,318.327 585.5,298C 595.037,288.132 604.203,277.965 613,267.5C 639.77,293.775 667.27,319.109 695.5,343.5 Z"/></g>
<g><path style="opacity:1" fill="#0d2343" d="M 800.5,334.5 C 792.803,343.704 784.47,352.537 775.5,361C 771.868,364.724 769.201,364.224 767.5,359.5C 768.794,360.29 769.961,361.29 771,362.5C 781.005,353.328 790.838,343.994 800.5,334.5 Z"/></g>
<g><path style="opacity:1" fill="#132545" d="M 505.5,318.5 C 505.631,319.239 505.464,319.906 505,320.5C 487.936,338.066 470.436,355.066 452.5,371.5C 469.758,353.575 487.425,335.908 505.5,318.5 Z"/></g>
<g><path style="opacity:1" fill="#eaae39" d="M 662.5,162.5 C 646.203,176.963 630.703,192.296 616,208.5C 588.055,235.445 560.388,262.778 533,290.5C 533,291.833 533,293.167 533,294.5C 531.887,293.289 530.72,293.289 529.5,294.5C 521.467,302.507 513.467,310.507 505.5,318.5C 487.425,335.908 469.758,353.575 452.5,371.5C 449.5,372.5 447.5,374.5 446.5,377.5C 432.5,390.833 418.833,404.5 405.5,418.5C 374.167,450.5 342.5,482.167 310.5,513.5C 309.761,513.369 309.094,513.536 308.5,514C 293.891,528.945 279.058,543.445 264,557.5C 260.996,568.183 257.996,578.85 255,589.5C 236.964,638.119 219.464,686.785 202.5,735.5C 156.275,667.821 131.608,592.821 128.5,510.5C 133.09,393.835 179.09,297.335 266.5,221C 340.986,160.534 426.319,131.034 522.5,132.5C 555.434,134.157 587.767,139.324 619.5,148C 633.804,152.991 648.137,157.824 662.5,162.5 Z"/></g>
<g><path style="opacity:1" fill="#182744" d="M 695.5,343.5 C 699.067,345.557 702.234,348.223 705,351.5C 705.604,349.314 706.77,349.148 708.5,351C 707.833,351.667 707.167,352.333 706.5,353C 716.833,362 727.167,371 737.5,380C 737.272,380.399 736.938,380.565 736.5,380.5C 721.912,369.248 708.245,356.915 695.5,343.5 Z"/></g>
<g><path style="opacity:1" fill="#062144" d="M 446.5,377.5 C 446.631,378.239 446.464,378.906 446,379.5C 432.914,393.089 419.414,406.089 405.5,418.5C 418.833,404.5 432.5,390.833 446.5,377.5 Z"/></g>
<g><path style="opacity:1" fill="#eaae39" d="M 529.5,398.5 C 514.833,412.5 500.5,426.833 486.5,441.5C 484.5,442.833 482.833,444.5 481.5,446.5C 469.167,458.167 457.167,470.167 445.5,482.5C 434.5,492.833 423.833,503.5 413.5,514.5C 398.833,528.5 384.5,542.833 370.5,557.5C 368.08,559.92 365.08,561.087 361.5,561C 347.777,561.926 334.111,561.593 320.5,560C 323.703,556.629 327.036,553.462 330.5,550.5C 359.916,522.585 388.916,494.085 417.5,465C 417.272,464.601 416.938,464.435 416.5,464.5C 455.912,425.921 494.912,386.755 533.5,347C 542.333,338.833 551.167,330.667 560,322.5C 567.681,330.014 575.181,337.681 582.5,345.5C 564.812,363.188 547.146,380.854 529.5,398.5 Z"/></g>
<g><path style="opacity:1" fill="#072244" d="M 529.5,398.5 C 516.422,413.081 502.755,427.248 488.5,441C 487.906,441.464 487.239,441.631 486.5,441.5C 500.5,426.833 514.833,412.5 529.5,398.5 Z"/></g>
<g><path style="opacity:1" fill="#042044" d="M 481.5,446.5 C 470.756,458.747 459.423,470.58 447.5,482C 446.906,482.464 446.239,482.631 445.5,482.5C 457.167,470.167 469.167,458.167 481.5,446.5 Z"/></g>
<g><path style="opacity:1" fill="#f8c636" d="M 629.5,454.5 C 611.92,473.582 593.754,492.248 575,510.5C 574.601,510.272 574.435,509.938 574.5,509.5C 592.5,490.833 610.833,472.5 629.5,454.5 Z"/></g>
<g><path style="opacity:1" fill="#102445" d="M 670.5,460.5 C 659.214,473.301 647.047,485.968 634,498.5C 633.601,498.272 633.435,497.938 633.5,497.5C 645.5,484.833 657.833,472.5 670.5,460.5 Z"/></g>
<g><path style="opacity:1" fill="#162544" d="M 405.5,418.5 C 405.631,419.239 405.464,419.906 405,420.5C 385.805,439.362 366.971,458.528 348.5,478C 335.943,490.06 323.277,501.894 310.5,513.5C 342.5,482.167 374.167,450.5 405.5,418.5 Z"/></g>
<g><path style="opacity:1" fill="#f4c439" d="M 416.5,464.5 C 416.938,464.435 417.272,464.601 417.5,465C 388.916,494.085 359.916,522.585 330.5,550.5C 358.833,521.5 387.5,492.833 416.5,464.5 Z"/></g>
<g><path style="opacity:1" fill="#052143" d="M 413.5,514.5 C 400.422,529.081 386.755,543.248 372.5,557C 371.906,557.464 371.239,557.631 370.5,557.5C 384.5,542.833 398.833,528.5 413.5,514.5 Z"/></g>
<g><path style="opacity:1" fill="#eaaf39" d="M 670.5,460.5 C 657.833,472.5 645.5,484.833 633.5,497.5C 626.364,504.467 619.03,511.3 611.5,518C 594.299,536.033 576.966,553.866 559.5,571.5C 545.833,584.5 532.5,597.833 519.5,611.5C 509.833,620.5 500.5,629.833 491.5,639.5C 478.167,652.167 465.167,665.167 452.5,678.5C 451.017,680.094 449.517,681.76 448,683.5C 447.667,683.167 447.333,682.833 447,682.5C 444.416,669.257 442.75,655.924 442,642.5C 485.728,597.606 529.895,553.272 574.5,509.5C 574.435,509.938 574.601,510.272 575,510.5C 593.754,492.248 611.92,473.582 629.5,454.5C 640.839,442.827 652.173,431.161 663.5,419.5C 672.585,425.971 680.585,433.638 687.5,442.5C 681.812,448.52 676.145,454.52 670.5,460.5 Z"/></g>
<g><path style="opacity:1" fill="#092243" d="M 559.5,571.5 C 557.491,574.354 555.657,577.354 554,580.5C 553.333,581.833 552.667,581.833 552,580.5C 541.58,591.424 530.747,601.757 519.5,611.5C 532.5,597.833 545.833,584.5 559.5,571.5 Z"/></g>
<g><path style="opacity:1" fill="#f9e6b7" d="M 289.5,598.5 C 302.735,600.003 316.068,600.67 329.5,600.5C 328.969,614.834 328.803,629.168 329,643.5C 333.581,662.082 345.414,671.915 364.5,673C 379.222,673.82 393.889,673.32 408.5,671.5C 409.083,684.676 411.417,697.51 415.5,710C 409.637,714.099 403.304,717.433 396.5,720C 362.873,730.824 329.873,743.324 297.5,757.5C 290.014,742.331 280.014,729.165 267.5,718C 262.009,714.663 256.675,711.163 251.5,707.5C 265.757,671.729 278.424,635.396 289.5,598.5 Z"/></g>
<g><path style="opacity:1" fill="#1f2845" d="M 491.5,639.5 C 479.256,653.247 466.422,666.581 453,679.5C 452.601,679.272 452.435,678.938 452.5,678.5C 465.167,665.167 478.167,652.167 491.5,639.5 Z"/></g>
<g><path style="opacity:1" fill="#eaae39" d="M 850.5,335.5 C 893.047,417.471 904.547,503.804 885,594.5C 850.588,730.242 767.755,822.409 636.5,871C 554.005,900.608 471.338,900.941 388.5,872C 344.869,856.528 305.202,834.361 269.5,805.5C 322.11,786.462 375.11,768.296 428.5,751C 437.884,747.807 446.884,743.807 455.5,739C 471.062,724.106 485.896,708.606 500,692.5C 599.64,592.86 699.306,493.194 799,393.5C 812.333,379.5 825.667,365.5 839,351.5C 843.1,346.276 846.933,340.943 850.5,335.5 Z"/></g>
</svg>
