<?xml version="1.0" encoding="UTF-8"?>
<!DOCTYPE svg PUBLIC "-//W3C//DTD SVG 1.1//EN" "http://www.w3.org/Graphics/SVG/1.1/DTD/svg11.dtd">
<svg xmlns="http://www.w3.org/2000/svg" version="1.1" width="1024px" height="1024px" style="shape-rendering:geometricPrecision; text-rendering:geometricPrecision; image-rendering:optimizeQuality; fill-rule:evenodd; clip-rule:evenodd" xmlns:xlink="http://www.w3.org/1999/xlink">
<g><path style="opacity:1" fill="#faf7ef" d="M -0.5,-0.5 C 340.833,-0.5 682.167,-0.5 1023.5,-0.5C 1023.5,340.833 1023.5,682.167 1023.5,1023.5C 682.167,1023.5 340.833,1023.5 -0.5,1023.5C -0.5,682.167 -0.5,340.833 -0.5,-0.5 Z"/></g>
<g><path style="opacity:1" fill="#05142b" d="M 710.5,162.5 C 647.003,163.606 583.336,164.273 519.5,164.5C 493.998,164.5 468.664,164.167 443.5,163.5C 532.482,162.513 621.482,162.179 710.5,162.5 Z"/></g>
<g><path style="opacity:1" fill="#052743" d="M 710.5,162.5 C 722.103,166.048 725.269,173.381 720,184.5C 671.178,248.481 623.345,313.148 576.5,378.5C 578.831,379.317 581.331,379.984 584,380.5C 635.471,379.34 686.971,379.173 738.5,380C 746.725,381.954 750.391,387.12 749.5,395.5C 739.632,409.211 728.798,422.211 717,434.5C 713.089,439.322 709.422,444.322 706,449.5C 590.012,585.819 473.679,721.819 357,857.5C 349.118,867.883 339.451,870.216 328,864.5C 325.641,861.423 324.474,857.923 324.5,854C 325.122,849.798 325.955,845.632 327,841.5C 363.679,735.804 399.512,629.804 434.5,523.5C 435.043,523.44 435.376,523.107 435.5,522.5C 402.84,521.5 370.173,521.167 337.5,521.5C 313.462,521.939 289.462,521.439 265.5,520C 257.905,516.527 255.405,510.694 258,502.5C 317.367,392.434 375.701,281.767 433,170.5C 435.606,166.71 439.106,164.377 443.5,163.5C 468.664,164.167 493.998,164.5 519.5,164.5C 583.336,164.273 647.003,163.606 710.5,162.5 Z"/></g>
<g><path style="opacity:1" fill="#111644" d="M 683.5,189.5 C 684.043,189.56 684.376,189.893 684.5,190.5C 675.667,202.167 666.833,213.833 658,225.5C 657.329,226.252 656.496,226.586 655.5,226.5C 664.5,214.5 673.5,202.5 682.5,190.5C 683.167,190.5 683.5,190.167 683.5,189.5 Z"/></g>
<g><path style="opacity:1" fill="#f8ce3a" d="M 488.5,188.5 C 553.5,188.5 618.5,188.5 683.5,188.5C 683.5,188.833 683.5,189.167 683.5,189.5C 683.5,190.167 683.167,190.5 682.5,190.5C 606.831,190.311 531.165,190.144 455.5,190C 454.54,191.419 453.707,192.919 453,194.5C 452.31,195.738 451.81,195.738 451.5,194.5C 452.361,192.614 453.361,190.78 454.5,189C 465.828,188.5 477.162,188.333 488.5,188.5 Z"/></g>
<g><path style="opacity:1" fill="#f9bf39" d="M 682.5,190.5 C 673.5,202.5 664.5,214.5 655.5,226.5C 617.84,277.828 580.174,329.161 542.5,380.5C 539.169,383.817 536.835,387.817 535.5,392.5C 536.196,395.955 537.196,399.288 538.5,402.5C 539.122,404.335 540.456,405.502 542.5,406C 544.909,406.935 547.409,407.435 550,407.5C 581.811,406.04 613.644,405.373 645.5,405.5C 665.717,405.512 685.717,406.178 705.5,407.5C 704.833,408.5 704.167,409.5 703.5,410.5C 596.919,537.254 489.752,663.588 382,789.5C 377.656,794.384 373.156,798.384 368.5,801.5C 374.871,783.38 381.204,765.38 387.5,747.5C 387.435,747.938 387.601,748.272 388,748.5C 397.907,719.031 408.074,689.698 418.5,660.5C 418.376,659.893 418.043,659.56 417.5,659.5C 419.5,653.167 421.5,646.833 423.5,640.5C 426.395,633.016 429.061,625.349 431.5,617.5C 438.434,598.697 444.768,579.697 450.5,560.5C 452.944,555.773 454.944,550.773 456.5,545.5C 460.089,535.232 463.589,524.899 467,514.5C 467.667,510.5 467.667,506.5 467,502.5C 466.34,500.676 465.173,499.343 463.5,498.5C 463.5,497.833 463.167,497.5 462.5,497.5C 428.21,496.514 393.877,496.18 359.5,496.5C 337.332,495.643 314.998,494.976 292.5,494.5C 293.929,491.304 295.595,488.304 297.5,485.5C 297.369,486.239 297.536,486.906 298,487.5C 308.824,465.85 320.157,444.516 332,423.5C 338.651,411.865 344.484,399.865 349.5,387.5C 353.423,379.986 357.09,372.319 360.5,364.5C 365.005,357.495 369.005,350.161 372.5,342.5C 381.232,326.416 389.566,310.083 397.5,293.5C 415.754,260.66 433.754,227.66 451.5,194.5C 451.81,195.738 452.31,195.738 453,194.5C 453.707,192.919 454.54,191.419 455.5,190C 531.165,190.144 606.831,190.311 682.5,190.5 Z"/></g>
<g><path style="opacity:1" fill="#041145" d="M 683.5,188.5 C 618.5,188.5 553.5,188.5 488.5,188.5C 477.674,187.67 466.674,187.17 455.5,187C 531.668,186.8 607.668,187.3 683.5,188.5 Z"/></g>
<g><path style="opacity:1" fill="#161545" d="M 397.5,293.5 C 389.566,310.083 381.232,326.416 372.5,342.5C 371.475,342.103 371.308,341.437 372,340.5C 380.397,324.648 388.897,308.982 397.5,293.5 Z"/></g>
<g><path style="opacity:1" fill="#1a2536" d="M 749.5,395.5 C 750.391,387.12 746.725,381.954 738.5,380C 686.971,379.173 635.471,379.34 584,380.5C 581.331,379.984 578.831,379.317 576.5,378.5C 631.513,377.009 686.513,377.176 741.5,379C 748.807,382.116 751.474,387.616 749.5,395.5 Z"/></g>
<g><path style="opacity:1" fill="#131445" d="M 360.5,364.5 C 357.09,372.319 353.423,379.986 349.5,387.5C 344.567,397.091 339.233,406.424 333.5,415.5C 341.739,398.017 350.739,381.017 360.5,364.5 Z"/></g>
<g><path style="opacity:1" fill="#121a45" d="M 542.5,380.5 C 539.874,384.596 538.207,389.096 537.5,394C 537.631,398.943 539.964,402.276 544.5,404C 565.483,403.592 586.483,403.092 607.5,402.5C 614.5,402.667 621.5,402.833 628.5,403C 629.416,403.278 630.082,403.778 630.5,404.5C 606.827,404.361 583.16,404.694 559.5,405.5C 554.167,405.333 548.833,405.167 543.5,405C 541.807,404.153 540.14,403.32 538.5,402.5C 537.196,399.288 536.196,395.955 535.5,392.5C 536.835,387.817 539.169,383.817 542.5,380.5 Z"/></g>
<g><path style="opacity:1" fill="#010746" d="M 703.5,410.5 C 704.167,409.5 704.833,408.5 705.5,407.5C 705.833,406.833 706.167,406.167 706.5,405.5C 707.043,405.44 707.376,405.107 707.5,404.5C 696.854,403.501 686.187,403.168 675.5,403.5C 660.83,403.667 646.163,403.5 631.5,403C 657.165,402.5 682.831,402.333 708.5,402.5C 708.657,403.873 708.49,405.207 708,406.5C 707.124,408.635 705.624,409.969 703.5,410.5 Z"/></g>
<g><path style="opacity:1" fill="#caa23b" d="M 675.5,404.5 C 675.5,404.167 675.5,403.833 675.5,403.5C 686.187,403.168 696.854,403.501 707.5,404.5C 707.376,405.107 707.043,405.44 706.5,405.5C 696.347,404.506 686.014,404.172 675.5,404.5 Z"/></g>
<g><path style="opacity:1" fill="#fbda38" d="M 538.5,402.5 C 540.14,403.32 541.807,404.153 543.5,405C 548.833,405.167 554.167,405.333 559.5,405.5C 583.16,404.694 606.827,404.361 630.5,404.5C 645.5,404.5 660.5,404.5 675.5,404.5C 686.014,404.172 696.347,404.506 706.5,405.5C 706.167,406.167 705.833,406.833 705.5,407.5C 685.717,406.178 665.717,405.512 645.5,405.5C 613.644,405.373 581.811,406.04 550,407.5C 547.409,407.435 544.909,406.935 542.5,406C 540.456,405.502 539.122,404.335 538.5,402.5 Z"/></g>
<g><path style="opacity:1" fill="#f1d239" d="M 349.5,387.5 C 344.484,399.865 338.651,411.865 332,423.5C 320.157,444.516 308.824,465.85 298,487.5C 297.536,486.906 297.369,486.239 297.5,485.5C 304.18,472.14 310.847,458.807 317.5,445.5C 323.848,436.143 329.181,426.143 333.5,415.5C 339.233,406.424 344.567,397.091 349.5,387.5 Z"/></g>
<g><path style="opacity:1" fill="#111745" d="M 317.5,445.5 C 310.847,458.807 304.18,472.14 297.5,485.5C 295.595,488.304 293.929,491.304 292.5,494.5C 291.957,494.44 291.624,494.107 291.5,493.5C 297.089,483.323 302.422,472.99 307.5,462.5C 306.674,461.549 306.508,460.549 307,459.5C 307.667,458.167 308.333,458.167 309,459.5C 311.608,454.603 314.441,449.937 317.5,445.5 Z"/></g>
<g><path style="opacity:1" fill="#010548" d="M 359.5,496.5 C 393.877,496.18 428.21,496.514 462.5,497.5C 462.083,498.124 461.416,498.457 460.5,498.5C 426.687,497.847 393.02,497.18 359.5,496.5 Z"/></g>
<g><path style="opacity:1" fill="#566e7b" d="M 337.5,521.5 C 370.173,521.167 402.84,521.5 435.5,522.5C 435.376,523.107 435.043,523.44 434.5,523.5C 402.167,522.833 369.833,522.167 337.5,521.5 Z"/></g>
<g><path style="opacity:1" fill="#0b1343" d="M 463.5,498.5 C 465.173,499.343 466.34,500.676 467,502.5C 467.667,506.5 467.667,510.5 467,514.5C 463.589,524.899 460.089,535.232 456.5,545.5C 455.903,545.265 455.57,544.765 455.5,544C 459.232,533.238 462.732,522.405 466,511.5C 466.667,509.167 466.667,506.833 466,504.5C 465.667,505.167 465.333,505.833 465,506.5C 464.06,503.927 463.56,501.261 463.5,498.5 Z"/></g>
<g><path style="opacity:1" fill="#0d1343" d="M 450.5,560.5 C 444.768,579.697 438.434,598.697 431.5,617.5C 430.903,617.265 430.57,616.765 430.5,616C 436.711,597.189 443.378,578.689 450.5,560.5 Z"/></g>
<g><path style="opacity:1" fill="#0f1244" d="M 423.5,640.5 C 421.5,646.833 419.5,653.167 417.5,659.5C 408.774,683.345 400.44,707.345 392.5,731.5C 391.903,731.265 391.57,730.765 391.5,730C 402,699.833 412.5,669.667 423,639.5C 423.399,639.728 423.565,640.062 423.5,640.5 Z"/></g>
<g><path style="opacity:1" fill="#eece39" d="M 417.5,659.5 C 418.043,659.56 418.376,659.893 418.5,660.5C 408.074,689.698 397.907,719.031 388,748.5C 387.601,748.272 387.435,747.938 387.5,747.5C 388.766,742.035 390.433,736.701 392.5,731.5C 400.44,707.345 408.774,683.345 417.5,659.5 Z"/></g>
</svg>
