<?xml version="1.0" encoding="UTF-8"?>
<!DOCTYPE svg PUBLIC "-//W3C//DTD SVG 1.1//EN" "http://www.w3.org/Graphics/SVG/1.1/DTD/svg11.dtd">
<svg xmlns="http://www.w3.org/2000/svg" version="1.1" width="1024px" height="1024px" style="shape-rendering:geometricPrecision; text-rendering:geometricPrecision; image-rendering:optimizeQuality; fill-rule:evenodd; clip-rule:evenodd" xmlns:xlink="http://www.w3.org/1999/xlink">
<g><path style="opacity:1" fill="#fbf7ee" d="M -0.5,-0.5 C 340.833,-0.5 682.167,-0.5 1023.5,-0.5C 1023.5,340.833 1023.5,682.167 1023.5,1023.5C 682.167,1023.5 340.833,1023.5 -0.5,1023.5C -0.5,682.167 -0.5,340.833 -0.5,-0.5 Z"/></g>
<g><path style="opacity:1" fill="#0a0f22" d="M 470.5,124.5 C 404.665,124.832 338.998,124.499 273.5,123.5C 334.34,123.801 395.174,123.467 456,122.5C 461.079,122.405 465.912,123.072 470.5,124.5 Z"/></g>
<g><path style="opacity:1" fill="#293341" d="M 522.5,148.5 C 572.75,197.249 622.583,246.582 672,296.5C 672.464,297.094 672.631,297.761 672.5,298.5C 622.167,248.833 572.167,198.833 522.5,148.5 Z"/></g>
<g><path style="opacity:1" fill="#020414" d="M 132.5,247.5 C 133.124,247.917 133.457,248.584 133.5,249.5C 132.509,253.131 131.676,256.798 131,260.5C 130.833,331.668 130.333,402.668 129.5,473.5C 129.333,402.166 129.5,330.833 130,259.5C 130.731,255.435 131.565,251.435 132.5,247.5 Z"/></g>
<g><path style="opacity:1" fill="#16314a" d="M 273.5,123.5 C 338.998,124.499 404.665,124.832 470.5,124.5C 487.94,126.222 503.607,132.389 517.5,143C 519.373,144.704 521.04,146.537 522.5,148.5C 572.167,198.833 622.167,248.833 672.5,298.5C 744.708,368.875 815.875,439.875 886,511.5C 910.036,550.914 905.703,586.914 873,619.5C 783.004,708.162 693.838,797.329 605.5,887C 582.007,904.735 556.34,908.402 528.5,898C 523.341,895.588 518.341,892.921 513.5,890C 462.38,839.046 411.38,787.88 360.5,736.5C 334.217,708.55 307.217,681.216 279.5,654.5C 269.554,645.221 259.887,635.554 250.5,625.5C 250.631,624.761 250.464,624.094 250,623.5C 216.557,590.224 183.39,556.89 150.5,523.5C 138.61,509.034 131.61,492.368 129.5,473.5C 130.333,402.668 130.833,331.668 131,260.5C 131.676,256.798 132.509,253.131 133.5,249.5C 133.457,248.584 133.124,247.917 132.5,247.5C 135.767,237.631 140.601,228.631 147,220.5C 172.195,195.639 197.028,170.472 221.5,145C 236.406,132.05 253.739,124.883 273.5,123.5 Z"/></g>
<g><path style="opacity:1" fill="#061229" d="M 249.5,174.5 C 226.167,198.167 202.833,221.833 179.5,245.5C 178.475,245.103 178.308,244.437 179,243.5C 202.084,219.914 225.584,196.914 249.5,174.5 Z"/></g>
<g><path style="opacity:1" fill="#fbf7ee" d="M 269.5,163.5 C 270.167,163.5 270.833,163.5 271.5,163.5C 337.501,163.333 403.501,163.5 469.5,164C 478.926,165.769 487.26,169.769 494.5,176C 542.735,224.068 590.735,272.234 638.5,320.5C 635.679,322.609 632.679,324.442 629.5,326C 620.007,328.497 611.007,332.163 602.5,337C 596.151,340.093 589.485,341.093 582.5,340C 579.567,338.729 576.901,337.062 574.5,335C 565.203,324.034 555.536,313.368 545.5,303C 535.5,295.667 525.5,295.667 515.5,303C 512.318,306.349 508.985,309.516 505.5,312.5C 499.401,321.102 492.734,329.269 485.5,337C 480.062,341.443 474.062,342.443 467.5,340C 458.798,335.145 449.798,331.145 440.5,328C 421.511,324.917 409.678,332.75 405,351.5C 402.538,361.22 399.871,370.886 397,380.5C 395.207,383.295 393.04,385.795 390.5,388C 375.839,392.721 360.839,395.388 345.5,396C 332.897,399.776 326.564,408.276 326.5,421.5C 330.297,436.023 333.464,450.69 336,465.5C 337.392,470.874 336.225,475.541 332.5,479.5C 319.179,488.419 306.679,498.419 295,509.5C 290.7,516.259 290.034,523.259 293,530.5C 295,533.833 297,537.167 299,540.5C 307.371,549.203 315.371,558.203 323,567.5C 326.162,572.777 327.162,578.443 326,584.5C 324.373,595.399 319.706,604.732 312,612.5C 309.966,616.52 307.966,620.52 306,624.5C 268.36,586.526 230.36,548.86 192,511.5C 184.111,503.608 177.777,494.608 173,484.5C 171.353,479.246 170.02,473.913 169,468.5C 168.333,400.833 168.333,333.167 169,265.5C 170.684,257.795 174.184,251.128 179.5,245.5C 202.833,221.833 226.167,198.167 249.5,174.5C 252.245,173.263 254.578,171.43 256.5,169C 260.904,167.041 265.238,165.208 269.5,163.5 Z"/></g>
<g><path style="opacity:1" fill="#163149" d="M 285.5,215.5 C 320.361,215.881 343.195,232.548 354,265.5C 361.05,307.756 344.217,335.256 303.5,348C 278.984,352.161 258.151,345.328 241,327.5C 220.016,298.971 219.349,269.971 239,240.5C 251.536,226.484 267.036,218.151 285.5,215.5 Z"/></g>
<g><path style="opacity:1" fill="#faf6ee" d="M 283.5,257.5 C 302.171,255.348 312.838,263.515 315.5,282C 314.737,298.596 306.071,307.429 289.5,308.5C 268.403,303.981 260.903,291.314 267,270.5C 271.166,264.35 276.666,260.017 283.5,257.5 Z"/></g>
<g><path style="opacity:1" fill="#000621" d="M 271.5,163.5 C 270.833,163.5 270.167,163.5 269.5,163.5C 268.761,163.631 268.094,163.464 267.5,163C 268.5,162.667 269.5,162.333 270.5,162C 335.5,161.333 400.5,161.333 465.5,162C 400.665,162.167 335.999,162.667 271.5,163.5 Z"/></g>
<g><path style="opacity:1" fill="#faf6ee" d="M 668.5,351.5 C 681.686,364.186 694.686,377.019 707.5,390C 697.01,392.949 686.677,392.282 676.5,388C 668.286,378.69 664.453,367.857 665,355.5C 666.102,354.051 667.269,352.718 668.5,351.5 Z"/></g>
<g><path style="opacity:1" fill="#faf7ee" d="M 786.5,467.5 C 809.528,491.526 832.528,515.526 855.5,539.5C 862.437,556.214 860.271,571.548 849,585.5C 843.297,591.035 837.797,596.702 832.5,602.5C 805.116,628.883 778.45,655.883 752.5,683.5C 746.67,689.162 740.67,694.662 734.5,700C 682.472,751.694 630.806,803.694 579.5,856C 561.768,865.788 545.102,864.122 529.5,851C 493.348,814.014 457.014,777.181 420.5,740.5C 429.095,733.842 438.762,731.675 449.5,734C 451.5,735 453.5,736 455.5,737C 461.208,746.251 467.042,755.418 473,764.5C 480.831,775.992 490.998,778.492 503.5,772C 509.062,769.035 514.395,765.701 519.5,762C 522.96,759.935 526.626,758.435 530.5,757.5C 532.577,757.692 534.577,758.192 536.5,759C 544.88,764.19 553.546,768.857 562.5,773C 574.293,776.762 584.126,773.928 592,764.5C 596.333,757.167 600.667,749.833 605,742.5C 607.921,738.908 611.421,736.075 615.5,734C 621.833,733.333 628.167,733.333 634.5,734C 648.041,738.887 661.374,738.554 674.5,733C 678.721,729.395 681.554,724.895 683,719.5C 685.617,704.945 687.284,690.278 688,675.5C 690.204,670.299 694.038,666.799 699.5,665C 713.237,662.754 726.57,659.087 739.5,654C 751.655,648.188 756.155,638.688 753,625.5C 747,610.833 741,596.167 735,581.5C 733.891,576.352 734.891,571.685 738,567.5C 747,557.833 756,548.167 765,538.5C 769.751,532.662 772.585,525.996 773.5,518.5C 770.655,510.146 765.655,503.312 758.5,498C 749.669,492.083 740.669,486.417 731.5,481C 730.789,479.745 729.956,478.579 729,477.5C 728.488,462.723 730.821,448.389 736,434.5C 737.667,431.833 739.333,429.167 741,426.5C 741.718,425.549 742.551,425.383 743.5,426C 757.419,440.422 771.752,454.255 786.5,467.5 Z"/></g>
<g><path style="opacity:1" fill="#eab03e" d="M 462.5,695.5 C 450.963,695.526 439.463,696.193 428,697.5C 422.708,697.448 418.041,695.781 414,692.5C 413.661,689.12 413.161,685.787 412.5,682.5C 409.572,672.715 407.739,662.715 407,652.5C 405.827,648.663 403.827,645.329 401,642.5C 387.895,634.373 373.728,628.539 358.5,625C 355.523,623.855 353.856,621.688 353.5,618.5C 357.592,606.991 361.092,595.324 364,583.5C 365.275,577.207 365.608,570.874 365,564.5C 358.487,552.149 350.487,540.815 341,530.5C 338.705,526.308 339.372,522.641 343,519.5C 350.704,512.127 358.704,505.127 367,498.5C 370.388,494.391 372.721,489.725 374,484.5C 374.667,477.5 374.667,470.5 374,463.5C 372.331,457.162 370.665,450.829 369,444.5C 366.612,435.873 369.778,430.373 378.5,428C 389.282,425.759 399.949,423.093 410.5,420C 418.441,415.392 424.275,408.892 428,400.5C 431.28,392.716 433.947,384.716 436,376.5C 437.875,370.845 441.708,369.011 447.5,371C 461.438,377.546 476.105,380.212 491.5,379C 503.732,369.774 515.065,359.44 525.5,348C 527.914,346.115 530.581,345.448 533.5,346C 540.5,353.667 547.5,361.333 554.5,369C 557.997,371.583 561.664,373.916 565.5,376C 574.393,378.126 583.393,378.793 592.5,378C 600.878,375.822 609.211,373.489 617.5,371C 621.591,369.773 625.091,370.606 628,373.5C 631.067,384.369 634.734,395.036 639,405.5C 644.3,412.408 651.133,417.242 659.5,420C 668.663,422.967 677.997,425.3 687.5,427C 692.524,428.024 695.524,431.024 696.5,436C 693.367,450.665 690.367,465.332 687.5,480C 687.503,484.01 688.336,487.844 690,491.5C 693.465,495.967 697.298,500.133 701.5,504C 708.672,508.419 715.672,513.085 722.5,518C 724.562,519.532 725.896,521.532 726.5,524C 719.712,533.123 712.546,541.956 705,550.5C 700.111,557.94 696.611,565.94 694.5,574.5C 697.509,587.856 701.675,600.856 707,613.5C 708.724,618.731 707.224,622.565 702.5,625C 690.008,627.751 678.342,632.417 667.5,639C 660.24,644.928 655.407,652.428 653,661.5C 651.427,671.462 650.094,681.462 649,691.5C 646.075,694.796 642.408,696.463 638,696.5C 629.689,695.281 621.355,694.281 613,693.5C 608.299,693.279 603.799,694.113 599.5,696C 587.407,705.759 577.073,717.092 568.5,730C 566.833,730.667 565.167,730.667 563.5,730C 555.5,725.333 547.5,720.667 539.5,716C 532.421,714.006 525.421,714.34 518.5,717C 511.018,720.999 503.685,725.166 496.5,729.5C 494.517,728.018 492.684,726.351 491,724.5C 487.333,718.5 483.667,712.5 480,706.5C 475.281,700.926 469.448,697.26 462.5,695.5 Z"/></g>
<g><path style="opacity:1" fill="#0a172f" d="M 786.5,467.5 C 787.239,467.369 787.906,467.536 788.5,468C 808.971,489.472 829.805,510.638 851,531.5C 853.157,533.817 854.657,536.484 855.5,539.5C 832.528,515.526 809.528,491.526 786.5,467.5 Z"/></g>
<g><path style="opacity:1" fill="#16314b" d="M 508.5,557.5 C 503.337,554.672 497.337,552.172 490.5,550C 487.167,548 483.833,546 480.5,544C 475.285,539.612 470.285,535.112 465.5,530.5C 463.14,528.287 461.306,525.621 460,522.5C 447.694,488.75 456.86,462.584 487.5,444C 495.149,439.675 503.149,436.175 511.5,433.5C 512.223,426.814 513.057,420.147 514,413.5C 519.953,402.845 528.786,399.679 540.5,404C 545.144,406.641 548.311,410.475 550,415.5C 550.499,421.491 550.666,427.491 550.5,433.5C 564.147,436.153 576.814,441.32 588.5,449C 600.149,456.446 603.649,466.613 599,479.5C 592.257,488.311 583.757,490.478 573.5,486C 566.3,481.255 558.633,477.755 550.5,475.5C 550.333,492.17 550.5,508.837 551,525.5C 561.098,528.2 570.931,531.7 580.5,536C 612.499,556.485 620.333,583.985 604,618.5C 591.48,637.617 573.813,649.283 551,653.5C 550.667,659.5 550.333,665.5 550,671.5C 544.263,685.719 534.429,689.552 520.5,683C 516.806,680.313 514.306,676.813 513,672.5C 512.5,665.842 512.334,659.175 512.5,652.5C 496.358,650.62 481.358,645.453 467.5,637C 455.712,629.934 451.212,619.767 454,606.5C 459.428,597.369 467.261,594.202 477.5,597C 488.745,602.961 500.245,608.127 512,612.5C 512.667,594.833 512.667,577.167 512,559.5C 510.698,558.915 509.531,558.249 508.5,557.5 Z"/></g>
<g><path style="opacity:1" fill="#ebb53f" d="M 511.5,475.5 C 512.826,489.006 512.826,502.672 511.5,516.5C 495.412,510.64 491.245,499.973 499,484.5C 502.651,480.609 506.818,477.609 511.5,475.5 Z"/></g>
<g><path style="opacity:1" fill="#141e4c" d="M 465.5,530.5 C 470.285,535.112 475.285,539.612 480.5,544C 483.833,546 487.167,548 490.5,550C 497.337,552.172 503.337,554.672 508.5,557.5C 496.884,554.687 486.217,549.854 476.5,543C 472.253,539.258 468.586,535.092 465.5,530.5 Z"/></g>
<g><path style="opacity:1" fill="#09172f" d="M 150.5,523.5 C 183.39,556.89 216.557,590.224 250,623.5C 250.464,624.094 250.631,624.761 250.5,625.5C 216.107,592.441 182.774,558.441 150.5,523.5 Z"/></g>
<g><path style="opacity:1" fill="#ebb13e" d="M 550.5,567.5 C 568.925,571.37 575.092,582.036 569,599.5C 564.253,605.621 558.086,609.288 550.5,610.5C 550.5,596.167 550.5,581.833 550.5,567.5 Z"/></g>
<g><path style="opacity:1" fill="#f8f5ee" d="M 339.5,658.5 C 339.56,657.957 339.893,657.624 340.5,657.5C 347.151,660.747 354.151,662.913 361.5,664C 369.526,666.622 374.026,672.122 375,680.5C 376.418,684.821 376.585,689.154 375.5,693.5C 363.506,681.839 351.506,670.173 339.5,658.5 Z"/></g>
<g><path style="opacity:1" fill="#07162e" d="M 832.5,602.5 C 806.55,630.117 779.884,657.117 752.5,683.5C 778.45,655.883 805.116,628.883 832.5,602.5 Z"/></g>
<g><path style="opacity:1" fill="#101d4c" d="M 412.5,682.5 C 413.161,685.787 413.661,689.12 414,692.5C 418.041,695.781 422.708,697.448 428,697.5C 439.463,696.193 450.963,695.526 462.5,695.5C 451.865,697.013 441.032,698.013 430,698.5C 423.593,698.945 417.927,697.279 413,693.5C 412.704,690.294 412.204,687.128 411.5,684C 411.57,683.235 411.903,682.735 412.5,682.5 Z"/></g>
<g><path style="opacity:1" fill="#07142c" d="M 279.5,654.5 C 307.217,681.216 334.217,708.55 360.5,736.5C 332.783,709.784 305.783,682.45 279.5,654.5 Z"/></g>
</svg>
