<?xml version="1.0" encoding="UTF-8"?>
<!DOCTYPE svg PUBLIC "-//W3C//DTD SVG 1.1//EN" "http://www.w3.org/Graphics/SVG/1.1/DTD/svg11.dtd">
<svg xmlns="http://www.w3.org/2000/svg" version="1.1" width="1024px" height="1024px" style="shape-rendering:geometricPrecision; text-rendering:geometricPrecision; image-rendering:optimizeQuality; fill-rule:evenodd; clip-rule:evenodd" xmlns:xlink="http://www.w3.org/1999/xlink">
<g><path style="opacity:0.004" fill="#645400" d="M 419.5,5.5 C 420.833,6.16667 420.833,6.16667 419.5,5.5 Z"/></g>
<g><path style="opacity:0.004" fill="#615300" d="M 307.5,53.5 C 308.833,54.1667 308.833,54.1667 307.5,53.5 Z"/></g>
<g><path style="opacity:0.004" fill="#f0d01d" d="M 864.5,105.5 C 865.833,106.167 865.833,106.167 864.5,105.5 Z"/></g>
<g><path style="opacity:0.008" fill="#f9d61f" d="M 792.5,107.5 C 792.897,106.475 793.563,106.308 794.5,107C 793.906,107.464 793.239,107.631 792.5,107.5 Z"/></g>
<g><path style="opacity:0.016" fill="#eecd1c" d="M 875.5,107.5 C 876.833,108.167 876.833,108.167 875.5,107.5 Z"/></g>
<g><path style="opacity:0.004" fill="#f8d31e" d="M 775.5,109.5 C 775.897,108.475 776.563,108.308 777.5,109C 776.906,109.464 776.239,109.631 775.5,109.5 Z"/></g>
<g><path style="opacity:0.988" fill="#fddc0f" d="M 816.5,106.5 C 819.167,107.167 821.833,107.833 824.5,108.5C 823.5,108.5 822.5,108.5 821.5,108.5C 818.116,108.66 814.783,108.327 811.5,107.5C 809.829,107.668 808.496,108.335 807.5,109.5C 804.833,109.5 802.167,109.5 799.5,109.5C 801.833,108.833 804.167,108.167 806.5,107.5C 809.764,106.676 813.098,106.342 816.5,106.5 Z"/></g>
<g><path style="opacity:0.988" fill="#fed81b" d="M 821.5,108.5 C 817.03,109.486 812.363,109.819 807.5,109.5C 808.496,108.335 809.829,107.668 811.5,107.5C 814.783,108.327 818.116,108.66 821.5,108.5 Z"/></g>
<g><path style="opacity:0.998" fill="#fedb28" d="M 821.5,108.5 C 822.5,108.5 823.5,108.5 824.5,108.5C 843.044,107.729 861.377,109.229 879.5,113C 883.704,115.264 887.704,117.764 891.5,120.5C 894.421,125.198 896.587,130.198 898,135.5C 902.268,186.881 898.101,237.548 885.5,287.5C 882.266,287.757 879.432,287.09 877,285.5C 876.544,286.744 877.044,287.577 878.5,288C 877.66,289.666 878.16,289.833 880,288.5C 880.688,289.332 880.521,289.998 879.5,290.5C 878.284,291.002 877.117,291.335 876,291.5C 875.333,290.833 874.667,290.167 874,289.5C 872.856,291.917 871.19,292.584 869,291.5C 867.513,292.253 867.346,293.086 868.5,294C 864.763,296.213 862.596,295.046 862,290.5C 861.667,290.833 861.333,291.167 861,291.5C 859.933,290.809 858.766,290.309 857.5,290C 858.654,289.086 858.487,288.253 857,287.5C 856.009,288.939 854.676,289.939 853,290.5C 852.251,289.365 852.417,288.365 853.5,287.5C 854.086,287.709 854.586,288.043 855,288.5C 856.659,286.131 856.826,283.631 855.5,281C 855.675,279.342 856.342,278.009 857.5,277C 857.217,273.898 857.217,270.898 857.5,268C 858.167,267.667 858.833,267.333 859.5,267C 858.915,265.698 858.249,264.531 857.5,263.5C 863.529,239.918 866.862,215.918 867.5,191.5C 867.264,188.391 867.597,185.391 868.5,182.5C 868.827,173.318 868.493,164.318 867.5,155.5C 868.981,148.575 866.314,145.075 859.5,145C 809.163,140.858 760.33,147.358 713,164.5C 711.829,165.34 710.662,166.173 709.5,167C 710.691,167.698 711.691,168.531 712.5,169.5C 756.527,214.194 800.86,258.527 845.5,302.5C 848.164,303.437 850.664,303.437 853,302.5C 853.915,303.328 854.581,304.328 855,305.5C 855.448,303.776 856.282,303.109 857.5,303.5C 856.975,302.808 856.308,302.308 855.5,302C 858.022,300.659 860.689,299.826 863.5,299.5C 863.596,295.689 864.262,295.689 865.5,299.5C 865.911,298.738 866.077,297.738 866,296.5C 866.333,296.833 866.667,297.167 867,297.5C 870.207,294.85 870.707,295.016 868.5,298C 869.126,298.75 869.626,299.584 870,300.5C 871.017,297.972 872.184,297.972 873.5,300.5C 874.812,299.54 876.146,299.706 877.5,301C 877.167,301.333 876.833,301.667 876.5,302C 877.793,302.49 879.127,302.657 880.5,302.5C 861.78,364.622 831.614,420.288 790,469.5C 785.546,476.555 780.046,482.721 773.5,488C 757.041,507.641 739.041,526.474 719.5,544.5C 711.505,552.823 702.838,560.489 693.5,567.5C 692.495,571.479 692.495,575.479 693.5,579.5C 699.729,637.252 686.562,689.919 654,737.5C 651.578,739.75 649.411,742.083 647.5,744.5C 639.09,754.775 630.09,764.609 620.5,774C 618.975,775.009 617.308,775.509 615.5,775.5C 615.67,776.822 615.337,777.989 614.5,779C 600.821,790.163 586.821,800.83 572.5,811C 564.562,815.282 556.895,819.948 549.5,825C 539.972,830.431 529.972,834.764 519.5,838C 515.739,838.738 512.072,838.405 508.5,837C 506.112,835.139 503.446,833.806 500.5,833C 497.817,831.155 496.15,828.655 495.5,825.5C 495.2,818.291 495.533,810.958 496.5,803.5C 503.044,781.529 506.377,759.029 506.5,736C 509.544,719.912 504.211,707.745 490.5,699.5C 489.833,698.167 489.167,696.833 488.5,695.5C 484.833,693.167 481.833,690.167 479.5,686.5C 477.579,685.359 475.579,685.192 473.5,686C 463.186,694.157 452.52,701.824 441.5,709C 433.081,718.528 423.414,720.194 412.5,714C 408.641,710.472 404.807,706.972 401,703.5C 397.653,698.498 393.987,693.831 390,689.5C 388.255,688.044 386.422,686.711 384.5,685.5C 383.5,685.833 382.833,686.5 382.5,687.5C 387.473,714.057 383.306,739.057 370,762.5C 358.356,780.634 344.189,796.301 327.5,809.5C 311.799,820.364 295.466,830.197 278.5,839C 240.623,855.052 201.623,867.552 161.5,876.5C 158.151,876.108 154.817,875.608 151.5,875C 149.583,872.577 147.25,870.744 144.5,869.5C 142.677,863.629 142.177,857.629 143,851.5C 152.467,824.431 161.134,797.098 169,769.5C 174.522,754.385 180.189,739.385 186,724.5C 203.325,688.275 229.492,660.442 264.5,641C 270.4,639.589 276.066,637.589 281.5,635C 286.477,633.893 291.477,632.893 296.5,632C 307.855,632.029 319.189,631.862 330.5,631.5C 320.749,621.649 310.916,611.649 301,601.5C 298.197,596.152 297.197,590.486 298,584.5C 303.848,576.844 310.181,569.511 317,562.5C 319.447,559.829 321.447,556.829 323,553.5C 327.158,550.841 330.658,547.508 333.5,543.5C 324.892,533.551 315.892,524.051 306.5,515C 302.974,513.663 299.308,513.163 295.5,513.5C 283.919,513.326 272.586,514.326 261.5,516.5C 256.878,516.156 252.545,516.823 248.5,518.5C 232.737,521.024 217.07,524.024 201.5,527.5C 202.684,526.312 202.684,525.145 201.5,524C 202.167,523.667 202.833,523.333 203.5,523C 202.167,522.333 202.167,521.667 203.5,521C 202.216,520.316 201.049,520.483 200,521.5C 199.667,520.167 199.333,518.833 199,517.5C 197.513,518.253 197.346,519.086 198.5,520C 197.328,522.055 195.661,522.722 193.5,522C 195.878,521.026 195.544,520.359 192.5,520C 191.874,519.25 191.374,518.416 191,517.5C 189.412,519.968 187.578,520.134 185.5,518C 187.378,517.748 189.378,517.081 191.5,516C 189.944,513.386 187.61,512.053 184.5,512C 184.818,509.958 184.985,507.791 185,505.5C 185.465,504.069 186.299,502.903 187.5,502C 185.5,501.333 184.167,500 183.5,498C 185.226,495.659 186.726,493.159 188,490.5C 188.333,491.5 188.667,492.5 189,493.5C 189.903,492.299 191.069,491.465 192.5,491C 190.833,490 189.167,489 187.5,488C 188.5,487.667 189.5,487.333 190.5,487C 189.939,485.434 190.606,484.101 192.5,483C 190.866,482.506 189.199,482.34 187.5,482.5C 186.769,484.749 185.769,486.916 184.5,489C 185.167,489.667 185.833,490.333 186.5,491C 186.167,491.5 185.833,492 185.5,492.5C 184.265,491.66 183.265,490.66 182.5,489.5C 186.886,478.898 192.053,468.565 198,458.5C 198.601,455.363 199.601,452.363 201,449.5C 207.094,441.642 212.428,433.309 217,424.5C 223.713,416.626 230.213,408.626 236.5,400.5C 271.89,361.786 315.556,336.953 367.5,326C 391.171,323.093 414.837,322.759 438.5,325C 451.646,307.658 465.479,290.824 480,274.5C 509.289,245.111 540.789,218.278 574.5,194C 583.641,189.262 592.308,183.762 600.5,177.5C 609.14,174.001 617.14,169.501 624.5,164C 651.613,151.296 679.279,139.963 707.5,130C 737.737,120.604 768.404,113.77 799.5,109.5C 802.167,109.5 804.833,109.5 807.5,109.5C 812.363,109.819 817.03,109.486 821.5,108.5 Z M 864.5,153.5 C 865.473,155.948 865.806,158.615 865.5,161.5C 865.5,171.5 865.5,181.5 865.5,191.5C 865.657,192.873 865.49,194.207 865,195.5C 864.346,194.304 863.846,194.304 863.5,195.5C 863.866,215.375 861.699,235.041 857,254.5C 853.644,269.259 849.977,283.925 846,298.5C 844.624,297.295 843.458,295.962 842.5,294.5C 827.304,280.974 812.638,266.641 798.5,251.5C 792.833,246.5 787.5,241.167 782.5,235.5C 776.833,230.5 771.5,225.167 766.5,219.5C 760.833,214.5 755.5,209.167 750.5,203.5C 747.5,201.167 744.833,198.5 742.5,195.5C 739.5,193.167 736.833,190.5 734.5,187.5C 731.452,185.118 728.785,182.452 726.5,179.5C 722.459,175.824 718.459,172.157 714.5,168.5C 713.047,167.175 713.381,166.342 715.5,166C 764.006,149.142 813.006,143.142 862.5,148C 864.155,149.444 864.822,151.278 864.5,153.5 Z M 682.5,184.5 C 689.447,191.111 696.447,197.778 703.5,204.5C 708.167,209.5 712.833,214.5 717.5,219.5C 725.167,226.5 732.5,233.833 739.5,241.5C 738.453,242.078 738.62,242.744 740,243.5C 740.399,243.272 740.565,242.938 740.5,242.5C 763.551,264.219 786.217,286.219 808.5,308.5C 816.839,316.506 825.173,324.506 833.5,332.5C 820.98,361.313 805.98,388.646 788.5,414.5C 787.527,416.139 786.194,417.473 784.5,418.5C 780.143,426.55 774.809,433.884 768.5,440.5C 748.261,467.739 725.261,492.405 699.5,514.5C 692.45,521.884 684.783,528.551 676.5,534.5C 650.059,557.608 622.725,579.608 594.5,600.5C 570.074,619.885 545.074,638.552 519.5,656.5C 514.825,660.268 509.991,663.934 505,667.5C 503.955,666.627 503.122,665.627 502.5,664.5C 498.5,661.167 494.833,657.5 491.5,653.5C 456.747,620.081 423.08,585.748 390.5,550.5C 386.221,546.888 382.221,542.888 378.5,538.5C 374.5,534.833 370.5,531.167 366.5,527.5C 364.267,523.922 361.601,520.588 358.5,517.5C 356.037,515.539 353.703,513.372 351.5,511C 363.244,491.115 375.911,471.948 389.5,453.5C 389.709,452.078 390.209,450.745 391,449.5C 398.61,438.588 406.444,427.921 414.5,417.5C 416.925,413.648 419.591,409.981 422.5,406.5C 443.012,376.652 464.678,347.652 487.5,319.5C 494.798,310.867 502.465,302.533 510.5,294.5C 514.833,288.167 520.167,282.833 526.5,278.5C 533.969,271.2 541.636,264.033 549.5,257C 554.398,253.255 559.398,249.755 564.5,246.5C 574.996,237.341 586.329,229.341 598.5,222.5C 622.059,206.547 647.059,192.88 673.5,181.5C 674.107,181.624 674.44,181.957 674.5,182.5C 675.156,181.722 675.989,181.056 677,180.5C 678.981,181.65 680.814,182.984 682.5,184.5 Z M 654.5,304.5 C 664.427,306.02 673.094,310.02 680.5,316.5C 686.134,320.467 691.134,325.134 695.5,330.5C 703.239,344.53 706.239,359.53 704.5,375.5C 703.11,381.055 701.11,386.389 698.5,391.5C 698.34,393.153 697.674,394.486 696.5,395.5C 686.284,414.172 670.45,424.839 649,427.5C 619.848,428.564 599.182,415.564 587,388.5C 584.831,381.837 583.331,375.171 582.5,368.5C 582.676,361.095 583.509,353.762 585,346.5C 586.078,342.02 587.911,338.02 590.5,334.5C 597.332,319.665 608.666,310.331 624.5,306.5C 626.214,305.262 628.214,304.595 630.5,304.5C 638.5,303.167 646.5,303.167 654.5,304.5 Z M 408.5,360.5 C 406.565,364.707 403.898,368.373 400.5,371.5C 396.554,378.405 391.887,384.738 386.5,390.5C 376.001,405.666 365.668,420.333 355.5,434.5C 353.066,438.382 350.399,442.048 347.5,445.5C 339.355,458.444 331.188,471.444 323,484.5C 319.35,482.954 315.516,482.287 311.5,482.5C 309.107,481.79 306.607,481.123 304,480.5C 303.617,481.056 303.117,481.389 302.5,481.5C 300.863,480.62 299.03,479.954 297,479.5C 294.152,480.783 291.318,480.783 288.5,479.5C 286.974,479.994 285.641,480.661 284.5,481.5C 282.856,481.714 281.356,481.38 280,480.5C 268.187,482.054 256.354,483.721 244.5,485.5C 241.209,486.801 237.709,487.801 234,488.5C 233.228,488.355 232.561,488.022 232,487.5C 229.004,490.445 225.504,491.445 221.5,490.5C 228.058,474.373 236.391,459.373 246.5,445.5C 285.283,389.27 338.949,359.936 407.5,357.5C 407.263,358.791 407.596,359.791 408.5,360.5 Z M 410.5,357.5 C 410.573,359.027 409.906,360.027 408.5,360.5C 408.427,358.973 409.094,357.973 410.5,357.5 Z M 360.5,573.5 C 363.5,575.833 366.167,578.5 368.5,581.5C 378.222,590.22 387.222,599.553 395.5,609.5C 396.5,609.833 397.167,610.5 397.5,611.5C 415.252,628.25 432.252,645.584 448.5,663.5C 441.501,669.986 434.001,675.986 426,681.5C 408.353,664.019 390.853,646.352 373.5,628.5C 361.359,615.191 349.026,602.024 336.5,589C 342.279,581.55 348.446,574.383 355,567.5C 357.04,569.37 358.873,571.37 360.5,573.5 Z M 662.5,600.5 C 662.07,602.38 662.07,604.38 662.5,606.5C 661.962,624.053 659.128,641.386 654,658.5C 652.629,663.464 650.796,668.131 648.5,672.5C 647.234,678.36 644.9,683.693 641.5,688.5C 639.509,694.489 636.509,699.823 632.5,704.5C 625.957,716.249 617.957,726.915 608.5,736.5C 606.167,739.5 603.5,742.167 600.5,744.5C 598.167,747.5 595.5,750.167 592.5,752.5C 583.39,761.609 573.39,769.609 562.5,776.5C 560.337,778.083 558.004,779.416 555.5,780.5C 549.778,785.031 543.611,789.031 537,792.5C 536.148,791.429 535.315,790.429 534.5,789.5C 538.699,768.713 540.699,747.713 540.5,726.5C 539.633,715.398 536.633,704.898 531.5,695C 533.057,693.023 535.39,691.19 538.5,689.5C 546.774,682.69 555.441,676.356 564.5,670.5C 574.96,661.769 585.96,653.769 597.5,646.5C 601.258,642.408 605.591,639.074 610.5,636.5C 616.099,631.361 622.099,626.695 628.5,622.5C 635.614,615.778 643.281,609.778 651.5,604.5C 654.239,601.616 657.239,598.949 660.5,596.5C 660.387,597.859 661.053,599.193 662.5,600.5 Z M 336.5,672.5 C 339.5,673.5 341.5,675.5 342.5,678.5C 347.014,683.199 349.681,688.865 350.5,695.5C 351.32,701.797 351.653,708.131 351.5,714.5C 350.481,720.575 349.148,726.575 347.5,732.5C 336.42,756.756 319.42,775.923 296.5,790C 270.082,805.73 242.415,817.73 213.5,826C 204.154,829 194.82,831.666 185.5,834C 193.308,805.405 202.975,777.572 214.5,750.5C 217.793,741.248 222.126,732.581 227.5,724.5C 236.951,707.385 249.284,692.718 264.5,680.5C 264.833,680.5 265.167,680.5 265.5,680.5C 266.605,679.4 267.938,678.733 269.5,678.5C 288.739,664.295 309.739,661.128 332.5,669C 334.093,669.949 335.426,671.115 336.5,672.5 Z"/></g>
<g><path style="opacity:0.012" fill="#f5d221" d="M 759.5,112.5 C 759.897,111.475 760.563,111.308 761.5,112C 760.906,112.464 760.239,112.631 759.5,112.5 Z"/></g>
<g><path style="opacity:0.004" fill="#e8c718" d="M 889.5,112.5 C 890.833,113.167 890.833,113.167 889.5,112.5 Z"/></g>
<g><path style="opacity:0.027" fill="#f2cd11" d="M 888.5,115.5 C 889.609,115.557 890.609,115.89 891.5,116.5C 891.5,116.833 891.5,117.167 891.5,117.5C 889.973,117.573 888.973,116.906 888.5,115.5 Z"/></g>
<g><path style="opacity:0.004" fill="#e7c818" d="M 891.5,115.5 C 892.833,116.167 892.833,116.167 891.5,115.5 Z"/></g>
<g><path style="opacity:0.008" fill="#f5d420" d="M 727.5,120.5 C 727.897,119.475 728.563,119.308 729.5,120C 728.906,120.464 728.239,120.631 727.5,120.5 Z"/></g>
<g><path style="opacity:0.016" fill="#f6d31a" d="M 704.5,128.5 C 703.833,127.167 703.833,127.167 704.5,128.5 Z"/></g>
<g><path style="opacity:0.004" fill="#645500" d="M 259.5,141.5 C 260.833,142.167 260.833,142.167 259.5,141.5 Z"/></g>
<g><path style="opacity:0.012" fill="#f5d31c" d="M 647.5,148.5 C 648.833,149.167 648.833,149.167 647.5,148.5 Z"/></g>
<g><path style="opacity:0.971" fill="#fed912" d="M 867.5,155.5 C 867.5,156.5 867.5,157.5 867.5,158.5C 866.833,159.5 866.167,160.5 865.5,161.5C 865.806,158.615 865.473,155.948 864.5,153.5C 864.822,151.278 864.155,149.444 862.5,148C 813.006,143.142 764.006,149.142 715.5,166C 713.381,166.342 713.047,167.175 714.5,168.5C 713.508,168.328 712.842,168.662 712.5,169.5C 711.691,168.531 710.691,167.698 709.5,167C 710.662,166.173 711.829,165.34 713,164.5C 760.33,147.358 809.163,140.858 859.5,145C 866.314,145.075 868.981,148.575 867.5,155.5 Z"/></g>
<g><path style="opacity:0.008" fill="#f3d01b" d="M 631.5,156.5 C 632.833,157.167 632.833,157.167 631.5,156.5 Z"/></g>
<g><path style="opacity:0.973" fill="#fdd513" d="M 867.5,155.5 C 868.493,164.318 868.827,173.318 868.5,182.5C 867.694,181.003 867.028,179.336 866.5,177.5C 867.46,171.227 867.793,164.893 867.5,158.5C 867.5,157.5 867.5,156.5 867.5,155.5 Z"/></g>
<g><path style="opacity:0.012" fill="#f6d319" d="M 619.5,162.5 C 620.833,163.167 620.833,163.167 619.5,162.5 Z"/></g>
<g><path style="opacity:0.715" fill="#fad717" d="M 901.5,152.5 C 902.289,152.783 902.956,153.283 903.5,154C 902.493,163.849 902.493,173.183 903.5,182C 902.851,188.266 902.185,194.433 901.5,200.5C 901.5,184.5 901.5,168.5 901.5,152.5 Z"/></g>
<g><path style="opacity:0.96" fill="#fdd90f" d="M 806.5,107.5 C 804.167,108.167 801.833,108.833 799.5,109.5C 768.404,113.77 737.737,120.604 707.5,130C 679.279,139.963 651.613,151.296 624.5,164C 617.14,169.501 609.14,174.001 600.5,177.5C 592.308,183.762 583.641,189.262 574.5,194C 540.789,218.278 509.289,245.111 480,274.5C 465.479,290.824 451.646,307.658 438.5,325C 414.837,322.759 391.171,323.093 367.5,326C 315.556,336.953 271.89,361.786 236.5,400.5C 236.565,400.062 236.399,399.728 236,399.5C 235.292,400.381 234.458,401.047 233.5,401.5C 235.22,398.269 237.553,395.436 240.5,393C 242.947,390.698 245.614,387.865 248.5,384.5C 250.167,383.5 251.5,382.167 252.5,380.5C 264.849,370.667 277.516,361.333 290.5,352.5C 295.5,350.336 300.167,347.669 304.5,344.5C 310.804,342.344 316.804,339.678 322.5,336.5C 330.18,334.107 337.847,331.607 345.5,329C 343.405,328.444 343.238,327.944 345,327.5C 346,327.833 347,328.167 348,328.5C 377.341,319.992 407.008,318.325 437,323.5C 453.918,301.746 471.752,280.746 490.5,260.5C 500.5,251.167 510.5,241.833 520.5,232.5C 535.238,220.42 550.238,208.754 565.5,197.5C 609.533,167.702 655.867,144.702 704.5,128.5C 737.647,117.404 771.647,110.404 806.5,107.5 Z"/></g>
<g><path style="opacity:0.243" fill="#fedd15" d="M 867.5,158.5 C 867.793,164.893 867.46,171.227 866.5,177.5C 867.028,179.336 867.694,181.003 868.5,182.5C 867.597,185.391 867.264,188.391 867.5,191.5C 866.833,191.5 866.167,191.5 865.5,191.5C 865.5,181.5 865.5,171.5 865.5,161.5C 866.167,160.5 866.833,159.5 867.5,158.5 Z"/></g>
<g><path style="opacity:0.016" fill="#f7d51b" d="M 583.5,183.5 C 584.833,184.167 584.833,184.167 583.5,183.5 Z"/></g>
<g><path style="opacity:0.937" fill="#fdd50b" d="M 683.5,182.5 C 691.188,189.521 698.521,196.854 705.5,204.5C 704.604,203.494 703.938,203.494 703.5,204.5C 696.447,197.778 689.447,191.111 682.5,184.5C 682.833,183.833 683.167,183.167 683.5,182.5 Z"/></g>
<g><path style="opacity:0.004" fill="#f5d619" d="M 565.5,197.5 C 564.833,196.167 564.833,196.167 565.5,197.5 Z"/></g>
<g><path style="opacity:0.004" fill="#625400" d="M 107.5,205.5 C 108.833,206.167 108.833,206.167 107.5,205.5 Z"/></g>
<g><path style="opacity:0.004" fill="#f3d21e" d="M 902.5,205.5 C 903.833,206.167 903.833,206.167 902.5,205.5 Z"/></g>
<g><path style="opacity:0.004" fill="#f1d01e" d="M 544.5,207.5 C 545.833,208.167 545.833,208.167 544.5,207.5 Z"/></g>
<g><path style="opacity:0.004" fill="#f3d221" d="M 528.5,223.5 C 529.833,224.167 529.833,224.167 528.5,223.5 Z"/></g>
<g><path style="opacity:0.024" fill="#f4cf20" d="M 520.5,232.5 C 519.833,231.167 519.833,231.167 520.5,232.5 Z"/></g>
<g><path style="opacity:0.872" fill="#fdd80e" d="M 875.5,108.5 C 880.248,110.041 884.581,112.374 888.5,115.5C 888.973,116.906 889.973,117.573 891.5,117.5C 894.997,121.148 897.497,125.481 899,130.5C 900.631,137.747 901.464,145.08 901.5,152.5C 901.5,168.5 901.5,184.5 901.5,200.5C 900.55,220.996 898.217,241.329 894.5,261.5C 883.384,312.735 864.717,361.069 838.5,406.5C 825.497,427.162 811.497,447.162 796.5,466.5C 786.905,477.936 777.072,489.27 767,500.5C 756.328,512.005 745.494,523.339 734.5,534.5C 729.957,537.921 725.624,541.587 721.5,545.5C 721.158,544.662 720.492,544.328 719.5,544.5C 739.041,526.474 757.041,507.641 773.5,488C 780.046,482.721 785.546,476.555 790,469.5C 831.614,420.288 861.78,364.622 880.5,302.5C 882.321,297.548 883.988,292.548 885.5,287.5C 898.101,237.548 902.268,186.881 898,135.5C 896.587,130.198 894.421,125.198 891.5,120.5C 887.704,117.764 883.704,115.264 879.5,113C 861.377,109.229 843.044,107.729 824.5,108.5C 821.833,107.833 819.167,107.167 816.5,106.5C 835.987,105.521 855.654,106.187 875.5,108.5 Z"/></g>
<g><path style="opacity:0.004" fill="#f5d31e" d="M 501.5,247.5 C 502.833,248.167 502.833,248.167 501.5,247.5 Z"/></g>
<g><path style="opacity:0.004" fill="#f5d61f" d="M 490.5,260.5 C 489.833,259.167 489.833,259.167 490.5,260.5 Z"/></g>
<g><path style="opacity:0.004" fill="#f5d120" d="M 894.5,261.5 C 895.833,262.167 895.833,262.167 894.5,261.5 Z"/></g>
<g><path style="opacity:1" fill="#feda0f" d="M 714.5,168.5 C 718.459,172.157 722.459,175.824 726.5,179.5C 728.785,182.452 731.452,185.118 734.5,187.5C 736.833,190.5 739.5,193.167 742.5,195.5C 744.833,198.5 747.5,201.167 750.5,203.5C 755.5,209.167 760.833,214.5 766.5,219.5C 771.5,225.167 776.833,230.5 782.5,235.5C 787.5,241.167 792.833,246.5 798.5,251.5C 812.638,266.641 827.304,280.974 842.5,294.5C 843.458,295.962 844.624,297.295 846,298.5C 849.977,283.925 853.644,269.259 857,254.5C 861.699,235.041 863.866,215.375 863.5,195.5C 863.846,194.304 864.346,194.304 865,195.5C 865.49,194.207 865.657,192.873 865.5,191.5C 866.167,191.5 866.833,191.5 867.5,191.5C 866.862,215.918 863.529,239.918 857.5,263.5C 855.697,273.348 853.197,283.014 850,292.5C 848.788,296.118 847.288,299.452 845.5,302.5C 800.86,258.527 756.527,214.194 712.5,169.5C 712.842,168.662 713.508,168.328 714.5,168.5 Z"/></g>
<g><path style="opacity:0.998" fill="#feda28" d="M 738.5,357.5 C 738.5,363.5 738.5,369.5 738.5,375.5C 737.15,383.235 735.317,390.902 733,398.5C 728.333,409.774 722.167,420.274 714.5,430C 706.997,436.882 698.997,443.049 690.5,448.5C 659.683,463.699 628.683,464.199 597.5,450C 569.207,432.266 552.873,406.766 548.5,373.5C 547.002,351.866 551.835,331.866 563,313.5C 571.458,300.335 582.624,290.001 596.5,282.5C 597.287,281.758 597.953,280.925 598.5,280C 598.272,279.601 597.938,279.435 597.5,279.5C 597.5,278.833 597.833,278.5 598.5,278.5C 599.265,278.923 600.098,279.257 601,279.5C 631.465,267.167 661.632,267.667 691.5,281C 699.904,286.894 707.904,293.394 715.5,300.5C 724.685,311.208 731.518,323.208 736,336.5C 737.409,343.436 738.242,350.436 738.5,357.5 Z M 654.5,304.5 C 664.427,306.02 673.094,310.02 680.5,316.5C 686.134,320.467 691.134,325.134 695.5,330.5C 703.239,344.53 706.239,359.53 704.5,375.5C 703.11,381.055 701.11,386.389 698.5,391.5C 698.34,393.153 697.674,394.486 696.5,395.5C 686.284,414.172 670.45,424.839 649,427.5C 619.848,428.564 599.182,415.564 587,388.5C 584.831,381.837 583.331,375.171 582.5,368.5C 582.676,361.095 583.509,353.762 585,346.5C 586.078,342.02 587.911,338.02 590.5,334.5C 597.332,319.665 608.666,310.331 624.5,306.5C 626.214,305.262 628.214,304.595 630.5,304.5C 638.5,303.167 646.5,303.167 654.5,304.5 Z"/></g>
<g><path style="opacity:0.004" fill="#675700" d="M 86.5,282.5 C 87.8333,283.167 87.8333,283.167 86.5,282.5 Z"/></g>
<g><path style="opacity:0.988" fill="#feda10" d="M 669.5,270.5 C 720.53,286.578 744.197,321.245 740.5,374.5C 740.283,368.64 739.617,362.973 738.5,357.5C 738.242,350.436 737.409,343.436 736,336.5C 731.518,323.208 724.685,311.208 715.5,300.5C 707.904,293.394 699.904,286.894 691.5,281C 661.632,267.667 631.465,267.167 601,279.5C 600.098,279.257 599.265,278.923 598.5,278.5C 621.396,267.511 645.063,264.844 669.5,270.5 Z"/></g>
<g><path style="opacity:0.008" fill="#f4d51e" d="M 889.5,285.5 C 890.833,286.167 890.833,286.167 889.5,285.5 Z"/></g>
<g><path style="opacity:0.02" fill="#f4d41e" d="M 463.5,287.5 C 464.833,288.167 464.833,288.167 463.5,287.5 Z"/></g>
<g><path style="opacity:0.992" fill="#fed910" d="M 683.5,182.5 C 683.167,183.167 682.833,183.833 682.5,184.5C 680.814,182.984 678.981,181.65 677,180.5C 675.989,181.056 675.156,181.722 674.5,182.5C 674.44,181.957 674.107,181.624 673.5,181.5C 647.059,192.88 622.059,206.547 598.5,222.5C 586.329,229.341 574.996,237.341 564.5,246.5C 559.398,249.755 554.398,253.255 549.5,257C 541.636,264.033 533.969,271.2 526.5,278.5C 520.167,282.833 514.833,288.167 510.5,294.5C 502.465,302.533 494.798,310.867 487.5,319.5C 487.158,318.662 486.492,318.328 485.5,318.5C 506.128,292.369 529.795,269.536 556.5,250C 557.833,249.333 557.833,248.667 556.5,248C 593.052,220.143 632.386,196.81 674.5,178C 678.274,177.887 681.274,179.387 683.5,182.5 Z"/></g>
<g><path style="opacity:0.008" fill="#f8d520" d="M 456.5,295.5 C 457.833,296.167 457.833,296.167 456.5,295.5 Z"/></g>
<g><path style="opacity:0.004" fill="#f6d522" d="M 456.5,296.5 C 455.833,297.167 455.833,297.167 456.5,296.5 Z"/></g>
<g><path style="opacity:0.998" fill="#feda29" d="M 857.5,263.5 C 858.249,264.531 858.915,265.698 859.5,267C 858.833,267.333 858.167,267.667 857.5,268C 857.217,270.898 857.217,273.898 857.5,277C 856.342,278.009 855.675,279.342 855.5,281C 856.826,283.631 856.659,286.131 855,288.5C 854.586,288.043 854.086,287.709 853.5,287.5C 852.417,288.365 852.251,289.365 853,290.5C 854.676,289.939 856.009,288.939 857,287.5C 858.487,288.253 858.654,289.086 857.5,290C 858.766,290.309 859.933,290.809 861,291.5C 861.333,291.167 861.667,290.833 862,290.5C 862.596,295.046 864.763,296.213 868.5,294C 867.346,293.086 867.513,292.253 869,291.5C 871.19,292.584 872.856,291.917 874,289.5C 874.667,290.167 875.333,290.833 876,291.5C 877.117,291.335 878.284,291.002 879.5,290.5C 880.521,289.998 880.688,289.332 880,288.5C 878.16,289.833 877.66,289.666 878.5,288C 877.044,287.577 876.544,286.744 877,285.5C 879.432,287.09 882.266,287.757 885.5,287.5C 883.988,292.548 882.321,297.548 880.5,302.5C 879.127,302.657 877.793,302.49 876.5,302C 876.833,301.667 877.167,301.333 877.5,301C 876.146,299.706 874.812,299.54 873.5,300.5C 872.184,297.972 871.017,297.972 870,300.5C 869.626,299.584 869.126,298.75 868.5,298C 870.707,295.016 870.207,294.85 867,297.5C 866.667,297.167 866.333,296.833 866,296.5C 866.077,297.738 865.911,298.738 865.5,299.5C 864.262,295.689 863.596,295.689 863.5,299.5C 860.689,299.826 858.022,300.659 855.5,302C 856.308,302.308 856.975,302.808 857.5,303.5C 856.282,303.109 855.448,303.776 855,305.5C 854.581,304.328 853.915,303.328 853,302.5C 850.664,303.437 848.164,303.437 845.5,302.5C 847.288,299.452 848.788,296.118 850,292.5C 853.197,283.014 855.697,273.348 857.5,263.5 Z"/></g>
<g><path style="opacity:1" fill="#fede11" d="M 633.5,301.5 C 639.167,301.5 644.833,301.5 650.5,301.5C 652.076,302.143 653.41,303.143 654.5,304.5C 646.5,303.167 638.5,303.167 630.5,304.5C 630.389,303.883 630.056,303.383 629.5,303C 631.058,302.79 632.391,302.29 633.5,301.5 Z"/></g>
<g><path style="opacity:0.004" fill="#f4d31d" d="M 883.5,306.5 C 884.833,307.167 884.833,307.167 883.5,306.5 Z"/></g>
<g><path style="opacity:0.973" fill="#feda10" d="M 650.5,301.5 C 654.939,301.754 659.272,302.588 663.5,304C 669.081,307.623 675.081,310.456 681.5,312.5C 686.636,317.45 691.302,322.783 695.5,328.5C 695.5,329.167 695.5,329.833 695.5,330.5C 691.134,325.134 686.134,320.467 680.5,316.5C 673.094,310.02 664.427,306.02 654.5,304.5C 653.41,303.143 652.076,302.143 650.5,301.5 Z"/></g>
<g><path style="opacity:1" fill="#feda11" d="M 633.5,301.5 C 632.391,302.29 631.058,302.79 629.5,303C 630.056,303.383 630.389,303.883 630.5,304.5C 628.214,304.595 626.214,305.262 624.5,306.5C 608.666,310.331 597.332,319.665 590.5,334.5C 587.911,338.02 586.078,342.02 585,346.5C 583.509,353.762 582.676,361.095 582.5,368.5C 582.5,372.5 582.5,376.5 582.5,380.5C 575.754,346.505 587.421,321.338 617.5,305C 622.708,303.198 628.041,302.031 633.5,301.5 Z"/></g>
<g><path style="opacity:0.004" fill="#f5d21e" d="M 334.5,330.5 C 335.833,331.167 335.833,331.167 334.5,330.5 Z"/></g>
<g><path style="opacity:0.012" fill="#f5d41e" d="M 322.5,336.5 C 321.833,335.167 321.833,335.167 322.5,336.5 Z"/></g>
<g><path style="opacity:0.004" fill="#f8d31e" d="M 304.5,344.5 C 303.833,343.167 303.833,343.167 304.5,344.5 Z"/></g>
<g><path style="opacity:0.008" fill="#f3d11e" d="M 297.5,346.5 C 298.833,347.167 298.833,347.167 297.5,346.5 Z"/></g>
<g><path style="opacity:0.008" fill="#f5d320" d="M 290.5,352.5 C 289.761,352.631 289.094,352.464 288.5,352C 289.437,351.308 290.103,351.475 290.5,352.5 Z"/></g>
<g><path style="opacity:0.989" fill="#fedb10" d="M 597.5,279.5 C 597.938,279.435 598.272,279.601 598.5,280C 597.953,280.925 597.287,281.758 596.5,282.5C 582.624,290.001 571.458,300.335 563,313.5C 551.835,331.866 547.002,351.866 548.5,373.5C 548.813,377.042 548.479,380.375 547.5,383.5C 543.222,358.227 547.555,334.56 560.5,312.5C 569.542,299.791 580.542,289.124 593.5,280.5C 594.833,280.167 596.167,279.833 597.5,279.5 Z"/></g>
<g><path style="opacity:0.999" fill="#fed810" d="M 695.5,328.5 C 702.012,336.208 705.845,345.208 707,355.5C 707.667,362.167 707.667,368.833 707,375.5C 706.302,378.004 705.469,380.337 704.5,382.5C 704.5,380.167 704.5,377.833 704.5,375.5C 706.239,359.53 703.239,344.53 695.5,330.5C 695.5,329.833 695.5,329.167 695.5,328.5 Z"/></g>
<g><path style="opacity:0.999" fill="#fed40e" d="M 738.5,357.5 C 739.617,362.973 740.283,368.64 740.5,374.5C 740.5,375.5 740.5,376.5 740.5,377.5C 739.833,376.833 739.167,376.167 738.5,375.5C 738.5,369.5 738.5,363.5 738.5,357.5 Z"/></g>
<g><path style="opacity:0.004" fill="#f1cd1a" d="M 247.5,377.5 C 248.833,378.167 248.833,378.167 247.5,377.5 Z"/></g>
<g><path style="opacity:0.998" fill="#fed90e" d="M 705.5,204.5 C 742.096,240.427 779.096,276.093 816.5,311.5C 822.848,318.236 829.182,324.902 835.5,331.5C 834.504,336.322 833.004,340.988 831,345.5C 822.139,363.552 812.472,381.219 802,398.5C 797.049,404.539 792.549,410.872 788.5,417.5C 788.5,416.5 788.5,415.5 788.5,414.5C 805.98,388.646 820.98,361.313 833.5,332.5C 825.173,324.506 816.839,316.506 808.5,308.5C 786.217,286.219 763.551,264.219 740.5,242.5C 740.5,241.833 740.167,241.5 739.5,241.5C 732.5,233.833 725.167,226.5 717.5,219.5C 712.833,214.5 708.167,209.5 703.5,204.5C 703.938,203.494 704.604,203.494 705.5,204.5 Z"/></g>
<g><path style="opacity:0.004" fill="#f6d31a" d="M 252.5,380.5 C 251.833,379.167 251.833,379.167 252.5,380.5 Z"/></g>
<g><path style="opacity:0.863" fill="#feda0e" d="M 485.5,318.5 C 486.492,318.328 487.158,318.662 487.5,319.5C 464.678,347.652 443.012,376.652 422.5,406.5C 419.591,409.981 416.925,413.648 414.5,417.5C 406.444,427.921 398.61,438.588 391,449.5C 390.209,450.745 389.709,452.078 389.5,453.5C 375.911,471.948 363.244,491.115 351.5,511C 353.703,513.372 356.037,515.539 358.5,517.5C 361.601,520.588 364.267,523.922 366.5,527.5C 365.833,527.5 365.5,527.833 365.5,528.5C 360.128,523.476 354.961,518.143 350,512.5C 349.365,510.365 349.699,508.365 351,506.5C 392.57,441.441 437.403,378.774 485.5,318.5 Z"/></g>
<g><path style="opacity:0.008" fill="#f8d61d" d="M 248.5,384.5 C 247.833,383.167 247.833,383.167 248.5,384.5 Z"/></g>
<g><path style="opacity:0.008" fill="#f0cf1e" d="M 845.5,394.5 C 846.833,395.167 846.833,395.167 845.5,394.5 Z"/></g>
<g><path style="opacity:0.012" fill="#f1d019" d="M 838.5,406.5 C 839.833,407.167 839.833,407.167 838.5,406.5 Z"/></g>
<g><path style="opacity:0.016" fill="#f6d41d" d="M 224.5,410.5 C 223.833,409.167 223.833,409.167 224.5,410.5 Z"/></g>
<g><path style="opacity:0.984" fill="#feda11" d="M 412.5,360.5 C 411.402,359.603 411.402,358.77 412.5,358C 411.906,357.536 411.239,357.369 410.5,357.5C 409.094,357.973 408.427,358.973 408.5,360.5C 407.596,359.791 407.263,358.791 407.5,357.5C 338.949,359.936 285.283,389.27 246.5,445.5C 236.391,459.373 228.058,474.373 221.5,490.5C 225.504,491.445 229.004,490.445 232,487.5C 232.561,488.022 233.228,488.355 234,488.5C 237.709,487.801 241.209,486.801 244.5,485.5C 256.354,483.721 268.187,482.054 280,480.5C 281.356,481.38 282.856,481.714 284.5,481.5C 290.5,481.5 296.5,481.5 302.5,481.5C 303.117,481.389 303.617,481.056 304,480.5C 306.607,481.123 309.107,481.79 311.5,482.5C 281.524,481.704 252.191,485.538 223.5,494C 221.167,494.667 218.833,494.667 216.5,494C 221.793,482.912 227.293,471.745 233,460.5C 257.782,418.924 291.949,388.091 335.5,368C 344.928,365.747 354.261,363.081 363.5,360C 380.669,356.186 398.003,355.02 415.5,356.5C 415.185,358.483 414.185,359.816 412.5,360.5 Z M 410.5,357.5 C 410.573,359.027 409.906,360.027 408.5,360.5C 408.427,358.973 409.094,357.973 410.5,357.5 Z"/></g>
<g><path style="opacity:0.991" fill="#fdda0b" d="M 236.5,400.5 C 230.213,408.626 223.713,416.626 217,424.5C 212.428,433.309 207.094,441.642 201,449.5C 199.601,452.363 198.601,455.363 198,458.5C 192.053,468.565 186.886,478.898 182.5,489.5C 180.429,495.381 178.762,501.381 177.5,507.5C 176.732,508.263 176.232,509.263 176,510.5C 175.51,509.207 175.343,507.873 175.5,506.5C 175.547,503.432 176.047,500.432 177,497.5C 180.457,489.591 183.623,481.591 186.5,473.5C 197.569,451.455 210.236,430.455 224.5,410.5C 227.728,407.694 230.728,404.694 233.5,401.5C 234.458,401.047 235.292,400.381 236,399.5C 236.399,399.728 236.565,400.062 236.5,400.5 Z"/></g>
<g><path style="opacity:0.98" fill="#fedb10" d="M 582.5,368.5 C 583.331,375.171 584.831,381.837 587,388.5C 599.182,415.564 619.848,428.564 649,427.5C 670.45,424.839 686.284,414.172 696.5,395.5C 697.674,394.486 698.34,393.153 698.5,391.5C 701.11,386.389 703.11,381.055 704.5,375.5C 704.5,377.833 704.5,380.167 704.5,382.5C 703.519,385.421 702.685,388.421 702,391.5C 699.343,397.417 696.009,402.75 692,407.5C 686.523,412.67 680.69,417.504 674.5,422C 653.521,431.908 632.521,431.908 611.5,422C 605.33,418.329 600.33,413.496 596.5,407.5C 595.675,406.614 594.675,406.281 593.5,406.5C 591.879,402.603 589.712,398.936 587,395.5C 585.029,390.612 583.529,385.612 582.5,380.5C 582.5,376.5 582.5,372.5 582.5,368.5 Z"/></g>
<g><path style="opacity:0.008" fill="#edcd1e" d="M 207.5,423.5 C 208.525,423.897 208.692,424.563 208,425.5C 207.536,424.906 207.369,424.239 207.5,423.5 Z"/></g>
<g><path style="opacity:0.004" fill="#f3d11f" d="M 207.5,431.5 C 208.833,432.167 208.833,432.167 207.5,431.5 Z"/></g>
<g><path style="opacity:0.999" fill="#fedc0e" d="M 410.5,357.5 C 411.239,357.369 411.906,357.536 412.5,358C 411.402,358.77 411.402,359.603 412.5,360.5C 406.059,367.449 400.559,375.116 396,383.5C 391.078,387.08 387.745,391.747 386,397.5C 372.67,414.174 360.337,431.507 349,449.5C 343.248,458 337.248,466.333 331,474.5C 328.89,478.422 327.057,482.422 325.5,486.5C 320.365,486.057 315.699,484.724 311.5,482.5C 315.516,482.287 319.35,482.954 323,484.5C 331.188,471.444 339.355,458.444 347.5,445.5C 350.399,442.048 353.066,438.382 355.5,434.5C 365.668,420.333 376.001,405.666 386.5,390.5C 391.887,384.738 396.554,378.405 400.5,371.5C 403.898,368.373 406.565,364.707 408.5,360.5C 409.906,360.027 410.573,359.027 410.5,357.5 Z"/></g>
<g><path style="opacity:0.765" fill="#feda0e" d="M 738.5,375.5 C 739.167,376.167 739.833,376.833 740.5,377.5C 735.539,410.083 718.872,434.416 690.5,450.5C 690.5,449.833 690.5,449.167 690.5,448.5C 698.997,443.049 706.997,436.882 714.5,430C 722.167,420.274 728.333,409.774 733,398.5C 735.317,390.902 737.15,383.235 738.5,375.5 Z"/></g>
<g><path style="opacity:0.949" fill="#fdd910" d="M 548.5,373.5 C 552.873,406.766 569.207,432.266 597.5,450C 628.683,464.199 659.683,463.699 690.5,448.5C 690.5,449.167 690.5,449.833 690.5,450.5C 681.544,455.655 671.877,459.155 661.5,461C 629.429,467.063 601.096,459.23 576.5,437.5C 568.853,429.516 562.187,420.849 556.5,411.5C 552.703,402.442 549.703,393.109 547.5,383.5C 548.479,380.375 548.813,377.042 548.5,373.5 Z"/></g>
<g><path style="opacity:0.004" fill="#f3d31f" d="M 199.5,441.5 C 200.833,442.167 200.833,442.167 199.5,441.5 Z"/></g>
<g><path style="opacity:0.004" fill="#f4d31e" d="M 195.5,452.5 C 196.833,453.167 196.833,453.167 195.5,452.5 Z"/></g>
<g><path style="opacity:0.008" fill="#f2d019" d="M 806.5,454.5 C 807.833,455.167 807.833,455.167 806.5,454.5 Z"/></g>
<g><path style="opacity:0.004" fill="#f4d11c" d="M 805.5,457.5 C 806.833,458.167 806.833,458.167 805.5,457.5 Z"/></g>
<g><path style="opacity:0.004" fill="#f5cf1e" d="M 796.5,466.5 C 797.833,467.167 797.833,467.167 796.5,466.5 Z"/></g>
<g><path style="opacity:0.004" fill="#f3d31d" d="M 794.5,469.5 C 795.833,470.167 795.833,470.167 794.5,469.5 Z"/></g>
<g><path style="opacity:0.016" fill="#f5d11f" d="M 186.5,473.5 C 185.475,473.103 185.308,472.437 186,471.5C 186.464,472.094 186.631,472.761 186.5,473.5 Z"/></g>
<g><path style="opacity:0.021" fill="#fcde24" d="M 302.5,481.5 C 296.5,481.5 290.5,481.5 284.5,481.5C 285.641,480.661 286.974,479.994 288.5,479.5C 291.318,480.783 294.152,480.783 297,479.5C 299.03,479.954 300.863,480.62 302.5,481.5 Z"/></g>
<g><path style="opacity:0.998" fill="#fed929" d="M 201.5,527.5 C 186.554,529.224 178.554,522.557 177.5,507.5C 178.762,501.381 180.429,495.381 182.5,489.5C 183.265,490.66 184.265,491.66 185.5,492.5C 185.833,492 186.167,491.5 186.5,491C 185.833,490.333 185.167,489.667 184.5,489C 185.769,486.916 186.769,484.749 187.5,482.5C 189.199,482.34 190.866,482.506 192.5,483C 190.606,484.101 189.939,485.434 190.5,487C 189.5,487.333 188.5,487.667 187.5,488C 189.167,489 190.833,490 192.5,491C 191.069,491.465 189.903,492.299 189,493.5C 188.667,492.5 188.333,491.5 188,490.5C 186.726,493.159 185.226,495.659 183.5,498C 184.167,500 185.5,501.333 187.5,502C 186.299,502.903 185.465,504.069 185,505.5C 184.985,507.791 184.818,509.958 184.5,512C 187.61,512.053 189.944,513.386 191.5,516C 189.378,517.081 187.378,517.748 185.5,518C 187.578,520.134 189.412,519.968 191,517.5C 191.374,518.416 191.874,519.25 192.5,520C 195.544,520.359 195.878,521.026 193.5,522C 195.661,522.722 197.328,522.055 198.5,520C 197.346,519.086 197.513,518.253 199,517.5C 199.333,518.833 199.667,520.167 200,521.5C 201.049,520.483 202.216,520.316 203.5,521C 202.167,521.667 202.167,522.333 203.5,523C 202.833,523.333 202.167,523.667 201.5,524C 202.684,525.145 202.684,526.312 201.5,527.5 Z"/></g>
<g><path style="opacity:0.012" fill="#f2ce22" d="M 177.5,489.5 C 178.833,490.167 178.833,490.167 177.5,489.5 Z"/></g>
<g><path style="opacity:0.004" fill="#f5d41b" d="M 758.5,510.5 C 759.833,511.167 759.833,511.167 758.5,510.5 Z"/></g>
<g><path style="opacity:0.979" fill="#fed50e" d="M 295.5,513.5 C 291.018,514.326 286.351,514.826 281.5,515C 280.584,515.278 279.918,515.778 279.5,516.5C 278.5,516.5 277.5,516.5 276.5,516.5C 271.5,516.5 266.5,516.5 261.5,516.5C 272.586,514.326 283.919,513.326 295.5,513.5 Z"/></g>
<g><path style="opacity:0.979" fill="#feda15" d="M 261.5,516.5 C 266.5,516.5 271.5,516.5 276.5,516.5C 267.63,517.824 258.63,519.157 249.5,520.5C 249.167,519.833 248.833,519.167 248.5,518.5C 252.545,516.823 256.878,516.156 261.5,516.5 Z"/></g>
<g><path style="opacity:0.008" fill="#fedd23" d="M 284.5,518.5 C 284.897,517.475 285.563,517.308 286.5,518C 285.906,518.464 285.239,518.631 284.5,518.5 Z"/></g>
<g><path style="opacity:0.004" fill="#fcd924" d="M 268.5,519.5 C 269.251,518.427 270.251,518.26 271.5,519C 270.552,519.483 269.552,519.649 268.5,519.5 Z"/></g>
<g><path style="opacity:0.024" fill="#eccb1a" d="M 181.5,525.5 C 180.833,526.167 180.833,526.167 181.5,525.5 Z"/></g>
<g><path style="opacity:0.004" fill="#fad921" d="M 239.5,526.5 C 240.833,527.167 240.833,527.167 239.5,526.5 Z"/></g>
<g><path style="opacity:0.946" fill="#fcd610" d="M 175.5,506.5 C 175.343,507.873 175.51,509.207 176,510.5C 176.232,509.263 176.732,508.263 177.5,507.5C 178.554,522.557 186.554,529.224 201.5,527.5C 217.07,524.024 232.737,521.024 248.5,518.5C 248.833,519.167 249.167,519.833 249.5,520.5C 232.327,524.085 215.16,527.751 198,531.5C 191.793,531.308 186.293,529.308 181.5,525.5C 176.235,520.046 174.235,513.712 175.5,506.5 Z"/></g>
<g><path style="opacity:0.012" fill="#f4d61c" d="M 204.5,531.5 C 205.833,532.167 205.833,532.167 204.5,531.5 Z"/></g>
<g><path style="opacity:0.004" fill="#f8d61d" d="M 734.5,534.5 C 735.833,535.167 735.833,535.167 734.5,534.5 Z"/></g>
<g><path style="opacity:0.004" fill="#fde023" d="M 328.5,541.5 C 327.833,542.167 327.833,542.167 328.5,541.5 Z"/></g>
<g><path style="opacity:0.961" fill="#fddb0e" d="M 719.5,544.5 C 720.492,544.328 721.158,544.662 721.5,545.5C 714.5,552.167 707.5,558.833 700.5,565.5C 698.114,566.373 696.114,567.873 694.5,570C 695.435,572.381 695.768,574.881 695.5,577.5C 695.66,579.199 695.494,580.866 695,582.5C 694.768,581.263 694.268,580.263 693.5,579.5C 692.495,575.479 692.495,571.479 693.5,567.5C 702.838,560.489 711.505,552.823 719.5,544.5 Z"/></g>
<g><path style="opacity:0.004" fill="#f9da20" d="M 700.5,565.5 C 701.833,566.167 701.833,566.167 700.5,565.5 Z"/></g>
<g><path style="opacity:0.004" fill="#fcdb23" d="M 306.5,568.5 C 305.833,567.167 305.833,567.167 306.5,568.5 Z"/></g>
<g><path style="opacity:0.016" fill="#fcdb20" d="M 299.5,577.5 C 298.833,576.167 298.833,576.167 299.5,577.5 Z"/></g>
<g><path style="opacity:0.773" fill="#feda0f" d="M 449.5,666.5 C 449.167,665.833 448.833,665.167 448.5,664.5C 449.833,664.167 449.833,663.833 448.5,663.5C 432.252,645.584 415.252,628.25 397.5,611.5C 397.167,610.5 396.5,609.833 395.5,609.5C 387.222,599.553 378.222,590.22 368.5,581.5C 366.167,578.5 363.5,575.833 360.5,573.5C 358.873,571.37 357.04,569.37 355,567.5C 348.446,574.383 342.279,581.55 336.5,589C 349.026,602.024 361.359,615.191 373.5,628.5C 373.833,629.833 374.167,631.167 374.5,632.5C 361.923,619.422 349.09,606.422 336,593.5C 335.15,591.99 334.317,590.49 333.5,589C 339.751,581.075 346.418,573.408 353.5,566C 355.18,565.966 356.68,565.799 358,565.5C 364.623,573.29 371.789,580.624 379.5,587.5C 380.246,588.736 380.579,590.07 380.5,591.5C 381.552,591.351 382.552,591.517 383.5,592C 405.237,614.075 426.737,636.575 448,659.5C 450.167,661 452.333,662.5 454.5,664C 452.807,664.847 451.14,665.68 449.5,666.5 Z"/></g>
<g><path style="opacity:0.004" fill="#fede21" d="M 311.5,618.5 C 312.833,619.167 312.833,619.167 311.5,618.5 Z"/></g>
<g><path style="opacity:0.004" fill="#635500" d="M 1019.5,621.5 C 1020.83,622.167 1020.83,622.167 1019.5,621.5 Z"/></g>
<g><path style="opacity:0.008" fill="#fedc1f" d="M 317.5,622.5 C 316.833,623.167 316.833,623.167 317.5,622.5 Z"/></g>
<g><path style="opacity:0.004" fill="#fede20" d="M 291.5,628.5 C 292.833,629.167 292.833,629.167 291.5,628.5 Z"/></g>
<g><path style="opacity:0.004" fill="#fbd921" d="M 271.5,633.5 C 272.833,634.167 272.833,634.167 271.5,633.5 Z"/></g>
<g><path style="opacity:0.008" fill="#fedb1f" d="M 265.5,636.5 C 266.833,637.167 266.833,637.167 265.5,636.5 Z"/></g>
<g><path style="opacity:0.996" fill="#feda0f" d="M 295.5,513.5 C 299.308,513.163 302.974,513.663 306.5,515C 315.892,524.051 324.892,533.551 333.5,543.5C 330.658,547.508 327.158,550.841 323,553.5C 321.447,556.829 319.447,559.829 317,562.5C 310.181,569.511 303.848,576.844 298,584.5C 297.197,590.486 298.197,596.152 301,601.5C 310.916,611.649 320.749,621.649 330.5,631.5C 319.189,631.862 307.855,632.029 296.5,632C 291.477,632.893 286.477,633.893 281.5,635C 276.066,637.589 270.4,639.589 264.5,641C 229.492,660.442 203.325,688.275 186,724.5C 180.189,739.385 174.522,754.385 169,769.5C 161.134,797.098 152.467,824.431 143,851.5C 142.177,857.629 142.677,863.629 144.5,869.5C 143.833,869.167 143.167,868.833 142.5,868.5C 141.209,866.051 140.209,863.384 139.5,860.5C 150.81,819.067 163.643,778.067 178,737.5C 182.37,726.86 187.203,716.526 192.5,706.5C 194.326,704.853 195.66,702.853 196.5,700.5C 203.421,690.904 210.755,681.571 218.5,672.5C 236.02,654.563 256.686,641.397 280.5,633C 295.576,628.724 310.576,627.724 325.5,630C 322.964,627.295 320.297,624.795 317.5,622.5C 311.87,616.369 306.036,610.369 300,604.5C 297.186,600.391 295.353,595.891 294.5,591C 295.738,586.354 297.405,581.854 299.5,577.5C 302.209,574.792 304.542,571.792 306.5,568.5C 314.661,560.171 322.661,551.671 330.5,543C 329.956,542.283 329.289,541.783 328.5,541.5C 321.005,533.838 313.672,526.004 306.5,518C 303.601,516.853 300.601,516.019 297.5,515.5C 291.541,516.414 285.541,516.747 279.5,516.5C 279.918,515.778 280.584,515.278 281.5,515C 286.351,514.826 291.018,514.326 295.5,513.5 Z"/></g>
<g><path style="opacity:0.973" fill="#fedb0e" d="M 788.5,414.5 C 788.5,415.5 788.5,416.5 788.5,417.5C 763.018,456.158 732.351,490.325 696.5,520C 695.929,521.205 695.262,522.372 694.5,523.5C 673.687,540.478 653.021,557.645 632.5,575C 630.725,576.439 628.725,577.439 626.5,578C 621.664,584.169 615.664,588.836 608.5,592C 605.306,594.772 602.306,597.772 599.5,601C 591.811,606.841 583.811,612.175 575.5,617C 572.568,621.462 568.568,624.462 563.5,626C 557.371,632.461 550.371,637.794 542.5,642C 530.014,652.174 517.181,662.007 504,671.5C 502.062,667.599 499.229,664.599 495.5,662.5C 488.372,655.043 481.372,647.543 474.5,640C 473.552,639.517 472.552,639.351 471.5,639.5C 464.705,631.03 457.038,623.03 448.5,615.5C 447.749,614.624 447.249,613.624 447,612.5C 439.74,606.588 433.407,599.921 428,592.5C 424.352,588.521 420.352,584.855 416,581.5C 415.667,580.5 415.333,579.5 415,578.5C 410.752,576.257 407.086,573.257 404,569.5C 391.112,555.585 378.279,541.919 365.5,528.5C 365.5,527.833 365.833,527.5 366.5,527.5C 370.5,531.167 374.5,534.833 378.5,538.5C 382.221,542.888 386.221,546.888 390.5,550.5C 423.08,585.748 456.747,620.081 491.5,653.5C 494.833,657.5 498.5,661.167 502.5,664.5C 503.122,665.627 503.955,666.627 505,667.5C 509.991,663.934 514.825,660.268 519.5,656.5C 545.074,638.552 570.074,619.885 594.5,600.5C 622.725,579.608 650.059,557.608 676.5,534.5C 684.783,528.551 692.45,521.884 699.5,514.5C 725.261,492.405 748.261,467.739 768.5,440.5C 774.809,433.884 780.143,426.55 784.5,418.5C 786.194,417.473 787.527,416.139 788.5,414.5 Z"/></g>
<g><path style="opacity:0.008" fill="#f2d020" d="M 694.5,653.5 C 695.833,654.167 695.833,654.167 694.5,653.5 Z"/></g>
<g><path style="opacity:0.012" fill="#f8d620" d="M 223.5,663.5 C 224.833,664.167 224.833,664.167 223.5,663.5 Z"/></g>
<g><path style="opacity:0.933" fill="#fed90f" d="M 348.5,735.5 C 348.737,734.209 348.404,733.209 347.5,732.5C 349.148,726.575 350.481,720.575 351.5,714.5C 353.208,707.873 353.375,701.206 352,694.5C 351.617,695.056 351.117,695.389 350.5,695.5C 349.681,688.865 347.014,683.199 342.5,678.5C 341.5,675.5 339.5,673.5 336.5,672.5C 335.426,671.115 334.093,669.949 332.5,669C 309.739,661.128 288.739,664.295 269.5,678.5C 267.938,678.733 266.605,679.4 265.5,680.5C 268.157,676.022 271.99,672.689 277,670.5C 291.273,662.909 306.44,660.409 322.5,663C 339.274,666.441 349.441,676.608 353,693.5C 355.968,708.109 354.468,722.109 348.5,735.5 Z"/></g>
<g><path style="opacity:0.027" fill="#f8d822" d="M 218.5,672.5 C 217.833,671.167 217.833,671.167 218.5,672.5 Z"/></g>
<g><path style="opacity:1" fill="#fdd80e" d="M 695.5,577.5 C 703.417,634.854 690.583,687.854 657,736.5C 654.302,740.025 651.469,743.358 648.5,746.5C 647.662,746.158 647.328,745.492 647.5,744.5C 649.411,742.083 651.578,739.75 654,737.5C 686.562,689.919 699.729,637.252 693.5,579.5C 694.268,580.263 694.768,581.263 695,582.5C 695.494,580.866 695.66,579.199 695.5,577.5 Z"/></g>
<g><path style="opacity:0.004" fill="#f3cf1e" d="M 688.5,676.5 C 689.833,677.167 689.833,677.167 688.5,676.5 Z"/></g>
<g><path style="opacity:0.95" fill="#fedc0e" d="M 373.5,628.5 C 390.853,646.352 408.353,664.019 426,681.5C 434.001,675.986 441.501,669.986 448.5,663.5C 448.5,663.833 448.5,664.167 448.5,664.5C 448.833,665.167 449.167,665.833 449.5,666.5C 441.718,672.897 433.385,678.564 424.5,683.5C 407.921,666.586 391.255,649.586 374.5,632.5C 374.167,631.167 373.833,629.833 373.5,628.5 Z"/></g>
<g><path style="opacity:1" fill="#fedb0f" d="M 537.5,794.5 C 536.798,793.884 535.798,793.884 534.5,794.5C 534.5,794.167 534.5,793.833 534.5,793.5C 535.833,793.167 535.833,792.833 534.5,792.5C 534.5,791.5 534.5,790.5 534.5,789.5C 535.315,790.429 536.148,791.429 537,792.5C 543.611,789.031 549.778,785.031 555.5,780.5C 558.004,779.416 560.337,778.083 562.5,776.5C 573.39,769.609 583.39,761.609 592.5,752.5C 595.5,750.167 598.167,747.5 600.5,744.5C 603.5,742.167 606.167,739.5 608.5,736.5C 617.957,726.915 625.957,716.249 632.5,704.5C 636.509,699.823 639.509,694.489 641.5,688.5C 644.9,683.693 647.234,678.36 648.5,672.5C 650.796,668.131 652.629,663.464 654,658.5C 659.128,641.386 661.962,624.053 662.5,606.5C 663.789,610.472 663.789,608.472 662.5,600.5C 661.053,599.193 660.387,597.859 660.5,596.5C 657.239,598.949 654.239,601.616 651.5,604.5C 643.281,609.778 635.614,615.778 628.5,622.5C 622.099,626.695 616.099,631.361 610.5,636.5C 605.591,639.074 601.258,642.408 597.5,646.5C 585.96,653.769 574.96,661.769 564.5,670.5C 555.441,676.356 546.774,682.69 538.5,689.5C 535.39,691.19 533.057,693.023 531.5,695C 536.633,704.898 539.633,715.398 540.5,726.5C 539.732,727.263 539.232,728.263 539,729.5C 538.821,725.975 538.321,722.641 537.5,719.5C 535.499,710.67 532.499,702.17 528.5,694C 529.101,692.395 530.101,691.062 531.5,690C 541.521,683.303 551.521,676.636 561.5,670C 594.993,644.287 628.326,618.62 661.5,593C 662.449,592.383 663.282,592.549 664,593.5C 665.958,626.43 659.958,657.764 646,687.5C 632.321,713.19 614.821,736.023 593.5,756C 586.167,761.333 578.833,766.667 571.5,772C 569.833,774.333 567.833,776.333 565.5,778C 556.446,783.964 547.113,789.464 537.5,794.5 Z"/></g>
<g><path style="opacity:0.995" fill="#fcd304" d="M 662.5,606.5 C 662.07,604.38 662.07,602.38 662.5,600.5C 663.789,608.472 663.789,610.472 662.5,606.5 Z"/></g>
<g><path style="opacity:0.008" fill="#f2d121" d="M 199.5,687.5 C 200.833,688.167 200.833,688.167 199.5,687.5 Z"/></g>
<g><path style="opacity:0.008" fill="#f4d21a" d="M 196.5,700.5 C 195.833,699.167 195.833,699.167 196.5,700.5 Z"/></g>
<g><path style="opacity:0.004" fill="#f5d21e" d="M 192.5,706.5 C 191.833,705.167 191.833,705.167 192.5,706.5 Z"/></g>
<g><path style="opacity:0.135" fill="#fee01d" d="M 351.5,714.5 C 351.653,708.131 351.32,701.797 350.5,695.5C 351.117,695.389 351.617,695.056 352,694.5C 353.375,701.206 353.208,707.873 351.5,714.5 Z"/></g>
<g><path style="opacity:1" fill="#fed90f" d="M 496.5,803.5 C 495.833,802.833 495.167,802.167 494.5,801.5C 498.937,782.488 502.27,763.321 504.5,744C 504.835,736.548 504.335,728.715 503,720.5C 502.759,717.711 502.092,715.044 501,712.5C 494.298,705.631 487.465,698.964 480.5,692.5C 479.405,690.642 478.071,688.975 476.5,687.5C 473.761,689.851 471.095,692.184 468.5,694.5C 455.67,703.145 442.67,711.645 429.5,720C 425.833,720.667 422.167,720.667 418.5,720C 415.478,718.489 412.478,716.989 409.5,715.5C 402.905,707.402 395.739,699.735 388,692.5C 387.667,692.833 387.333,693.167 387,693.5C 389.906,727.111 380.573,756.778 359,782.5C 350.258,793.078 340.424,802.412 329.5,810.5C 328.508,810.672 327.842,810.338 327.5,809.5C 344.189,796.301 358.356,780.634 370,762.5C 383.306,739.057 387.473,714.057 382.5,687.5C 382.833,686.5 383.5,685.833 384.5,685.5C 386.422,686.711 388.255,688.044 390,689.5C 393.987,693.831 397.653,698.498 401,703.5C 404.807,706.972 408.641,710.472 412.5,714C 423.414,720.194 433.081,718.528 441.5,709C 452.52,701.824 463.186,694.157 473.5,686C 475.579,685.192 477.579,685.359 479.5,686.5C 481.833,690.167 484.833,693.167 488.5,695.5C 489.167,696.833 489.833,698.167 490.5,699.5C 504.211,707.745 509.544,719.912 506.5,736C 506.377,759.029 503.044,781.529 496.5,803.5 Z"/></g>
<g><path style="opacity:0.004" fill="#fedd20" d="M 500.5,716.5 C 501.833,717.167 501.833,717.167 500.5,716.5 Z"/></g>
<g><path style="opacity:0.004" fill="#fedc22" d="M 409.5,715.5 C 408.833,716.167 408.833,716.167 409.5,715.5 Z"/></g>
<g><path style="opacity:0.008" fill="#fdde20" d="M 446.5,710.5 C 447.833,711.167 447.833,711.167 446.5,710.5 Z"/></g>
<g><path style="opacity:0.012" fill="#fede1f" d="M 468.5,694.5 C 469.833,695.167 469.833,695.167 468.5,694.5 Z"/></g>
<g><path style="opacity:0.004" fill="#fdde23" d="M 480.5,692.5 C 479.833,693.167 479.833,693.167 480.5,692.5 Z"/></g>
<g><path style="opacity:0.004" fill="#f6d523" d="M 175.5,738.5 C 176.833,739.167 176.833,739.167 175.5,738.5 Z"/></g>
<g><path style="opacity:0.012" fill="#f9d61c" d="M 382.5,742.5 C 383.833,743.167 383.833,743.167 382.5,742.5 Z"/></g>
<g><path style="opacity:0.012" fill="#f8d41d" d="M 171.5,749.5 C 172.833,750.167 172.833,750.167 171.5,749.5 Z"/></g>
<g><path style="opacity:0.969" fill="#feda0f" d="M 264.5,680.5 C 249.284,692.718 236.951,707.385 227.5,724.5C 222.126,732.581 217.793,741.248 214.5,750.5C 202.975,777.572 193.308,805.405 185.5,834C 194.82,831.666 204.154,829 213.5,826C 242.415,817.73 270.082,805.73 296.5,790C 319.42,775.923 336.42,756.756 347.5,732.5C 348.404,733.209 348.737,734.209 348.5,735.5C 346.588,738.995 344.921,742.662 343.5,746.5C 338.145,753.932 332.645,761.265 327,768.5C 314.591,780.798 300.757,791.298 285.5,800C 270.773,807.004 255.773,813.67 240.5,820C 223.422,825.036 206.422,830.37 189.5,836C 186.132,837.205 183.798,836.205 182.5,833C 191.195,804.029 201.028,775.529 212,747.5C 222.228,723.62 236.728,702.786 255.5,685C 258.418,683.291 261.252,681.458 264,679.5C 264.399,679.728 264.565,680.062 264.5,680.5 Z"/></g>
<g><path style="opacity:0.008" fill="#edcb19" d="M 646.5,750.5 C 647.833,751.167 647.833,751.167 646.5,750.5 Z"/></g>
<g><path style="opacity:0.6" fill="#fed911" d="M 537.5,719.5 C 538.321,722.641 538.821,725.975 539,729.5C 539.232,728.263 539.732,727.263 540.5,726.5C 540.699,747.713 538.699,768.713 534.5,789.5C 533.167,790.5 533.167,791.5 534.5,792.5C 534.5,792.833 534.5,793.167 534.5,793.5C 531.833,793.833 531.833,794.167 534.5,794.5C 535.798,793.884 536.798,793.884 537.5,794.5C 535.548,795.785 533.882,797.451 532.5,799.5C 531.646,798.052 530.646,796.719 529.5,795.5C 536.068,770.584 538.735,745.251 537.5,719.5 Z"/></g>
<g><path style="opacity:0.008" fill="#fbd523" d="M 167.5,761.5 C 168.525,761.897 168.692,762.563 168,763.5C 167.536,762.906 167.369,762.239 167.5,761.5 Z"/></g>
<g><path style="opacity:0.004" fill="#f3cf1a" d="M 636.5,762.5 C 637.833,763.167 637.833,763.167 636.5,762.5 Z"/></g>
<g><path style="opacity:0.006" fill="#ffdb22" d="M 498.5,769.5 C 499.525,769.897 499.692,770.563 499,771.5C 498.536,770.906 498.369,770.239 498.5,769.5 Z"/></g>
<g><path style="opacity:0.012" fill="#fedc21" d="M 495.5,771.5 C 496.833,772.167 496.833,772.167 495.5,771.5 Z"/></g>
<g><path style="opacity:0.016" fill="#fad71d" d="M 163.5,773.5 C 164.833,774.167 164.833,774.167 163.5,773.5 Z"/></g>
<g><path style="opacity:0.004" fill="#fcda23" d="M 497.5,777.5 C 498.833,778.167 498.833,778.167 497.5,777.5 Z"/></g>
<g><path style="opacity:0.004" fill="#f8d621" d="M 160.5,783.5 C 161.833,784.167 161.833,784.167 160.5,783.5 Z"/></g>
<g><path style="opacity:0.008" fill="#fbd722" d="M 495.5,784.5 C 496.833,785.167 496.833,785.167 495.5,784.5 Z"/></g>
<g><path style="opacity:0.004" fill="#fbd822" d="M 159.5,786.5 C 160.833,787.167 160.833,787.167 159.5,786.5 Z"/></g>
<g><path style="opacity:0.008" fill="#f2d11e" d="M 349.5,796.5 C 350.833,797.167 350.833,797.167 349.5,796.5 Z"/></g>
<g><path style="opacity:0.004" fill="#eecd1a" d="M 597.5,798.5 C 598.833,799.167 598.833,799.167 597.5,798.5 Z"/></g>
<g><path style="opacity:0.004" fill="#f5d11d" d="M 151.5,802.5 C 152.833,803.167 152.833,803.167 151.5,802.5 Z"/></g>
<g><path style="opacity:0.008" fill="#f6d51c" d="M 491.5,805.5 C 492.833,806.167 492.833,806.167 491.5,805.5 Z"/></g>
<g><path style="opacity:0.004" fill="#f5d21e" d="M 490.5,810.5 C 491.833,811.167 491.833,811.167 490.5,810.5 Z"/></g>
<g><path style="opacity:0.004" fill="#eccb1b" d="M 582.5,810.5 C 583.833,811.167 583.833,811.167 582.5,810.5 Z"/></g>
<g><path style="opacity:0.004" fill="#ebcc1b" d="M 579.5,813.5 C 580.833,814.167 580.833,814.167 579.5,813.5 Z"/></g>
<g><path style="opacity:0.004" fill="#eac719" d="M 565.5,821.5 C 566.525,821.897 566.692,822.563 566,823.5C 565.536,822.906 565.369,822.239 565.5,821.5 Z"/></g>
<g><path style="opacity:0.004" fill="#e7c61a" d="M 491.5,829.5 C 492.833,830.167 492.833,830.167 491.5,829.5 Z"/></g>
<g><path style="opacity:0.004" fill="#f0ce18" d="M 302.5,830.5 C 303.833,831.167 303.833,831.167 302.5,830.5 Z"/></g>
<g><path style="opacity:0.004" fill="#e6c517" d="M 496.5,832.5 C 495.833,833.167 495.833,833.167 496.5,832.5 Z"/></g>
<g><path style="opacity:0.984" fill="#fcd60d" d="M 647.5,744.5 C 647.328,745.492 647.662,746.158 648.5,746.5C 647.833,747.833 647.167,749.167 646.5,750.5C 612.246,788.246 571.912,817.746 525.5,839C 517.584,841.378 509.917,840.878 502.5,837.5C 500.54,835.844 498.54,834.177 496.5,832.5C 493.853,827.894 492.187,822.894 491.5,817.5C 492.503,812.148 493.503,806.815 494.5,801.5C 495.167,802.167 495.833,802.833 496.5,803.5C 495.533,810.958 495.2,818.291 495.5,825.5C 496.15,828.655 497.817,831.155 500.5,833C 503.446,833.806 506.112,835.139 508.5,837C 512.072,838.405 515.739,838.738 519.5,838C 529.972,834.764 539.972,830.431 549.5,825C 556.895,819.948 564.562,815.282 572.5,811C 586.821,800.83 600.821,790.163 614.5,779C 615.337,777.989 615.67,776.822 615.5,775.5C 617.308,775.509 618.975,775.009 620.5,774C 630.09,764.609 639.09,754.775 647.5,744.5 Z"/></g>
<g><path style="opacity:0.004" fill="#f0cd21" d="M 143.5,836.5 C 144.833,837.167 144.833,837.167 143.5,836.5 Z"/></g>
<g><path style="opacity:0.004" fill="#e3c116" d="M 496.5,837.5 C 497.833,838.167 497.833,838.167 496.5,837.5 Z"/></g>
<g><path style="opacity:0.004" fill="#e5c418" d="M 502.5,837.5 C 502.103,838.525 501.437,838.692 500.5,838C 501.094,837.536 501.761,837.369 502.5,837.5 Z"/></g>
<g><path style="opacity:0.004" fill="#ebca1b" d="M 533.5,837.5 C 534.833,838.167 534.833,838.167 533.5,837.5 Z"/></g>
<g><path style="opacity:1" fill="#fcd60e" d="M 327.5,809.5 C 327.842,810.338 328.508,810.672 329.5,810.5C 304.734,829.389 277.4,843.889 247.5,854C 221.605,863.391 195.271,871.391 168.5,878C 162.463,878.697 156.463,878.53 150.5,877.5C 150.158,876.662 149.492,876.328 148.5,876.5C 146.091,874.098 144.091,871.431 142.5,868.5C 143.167,868.833 143.833,869.167 144.5,869.5C 147.25,870.744 149.583,872.577 151.5,875C 154.817,875.608 158.151,876.108 161.5,876.5C 201.623,867.552 240.623,855.052 278.5,839C 295.466,830.197 311.799,820.364 327.5,809.5 Z"/></g>
<g><path style="opacity:0.008" fill="#f0d11a" d="M 286.5,838.5 C 287.833,839.167 287.833,839.167 286.5,838.5 Z"/></g>
<g><path style="opacity:0.004" fill="#f0cd19" d="M 140.5,845.5 C 141.833,846.167 141.833,846.167 140.5,845.5 Z"/></g>
<g><path style="opacity:0.008" fill="#eece18" d="M 270.5,846.5 C 271.833,847.167 271.833,847.167 270.5,846.5 Z"/></g>
<g><path style="opacity:0.008" fill="#f3d21d" d="M 227.5,861.5 C 228.833,862.167 228.833,862.167 227.5,861.5 Z"/></g>
<g><path style="opacity:0.004" fill="#f3d31a" d="M 198.5,870.5 C 199.833,871.167 199.833,871.167 198.5,870.5 Z"/></g>
<g><path style="opacity:0.012" fill="#e4c018" d="M 148.5,876.5 C 148.631,877.239 148.464,877.906 148,878.5C 147.308,877.563 147.475,876.897 148.5,876.5 Z"/></g>
<g><path style="opacity:0.004" fill="#e3c315" d="M 150.5,877.5 C 149.833,878.167 149.833,878.167 150.5,877.5 Z"/></g>
<g><path style="opacity:0.008" fill="#edcb1c" d="M 170.5,878.5 C 171.833,879.167 171.833,879.167 170.5,878.5 Z"/></g>
<g><path style="opacity:0.004" fill="#5c4f00" d="M 899.5,925.5 C 900.833,926.167 900.833,926.167 899.5,925.5 Z"/></g>
<g><path style="opacity:0.004" fill="#7f6d00" d="M 307.5,933.5 C 308.833,934.167 308.833,934.167 307.5,933.5 Z"/></g>
<g><path style="opacity:0.004" fill="#5b4e00" d="M 819.5,973.5 C 820.833,974.167 820.833,974.167 819.5,973.5 Z"/></g>
<g><path style="opacity:0.004" fill="#625400" d="M 339.5,1021.5 C 340.833,1022.17 340.833,1022.17 339.5,1021.5 Z"/></g>
</svg>
