<?xml version="1.0" encoding="UTF-8"?>
<!DOCTYPE svg PUBLIC "-//W3C//DTD SVG 1.1//EN" "http://www.w3.org/Graphics/SVG/1.1/DTD/svg11.dtd">
<svg xmlns="http://www.w3.org/2000/svg" version="1.1" width="1024px" height="1024px" style="shape-rendering:geometricPrecision; text-rendering:geometricPrecision; image-rendering:optimizeQuality; fill-rule:evenodd; clip-rule:evenodd" xmlns:xlink="http://www.w3.org/1999/xlink">
<g><path style="opacity:1" fill="#f8f5ec" d="M -0.5,-0.5 C 340.833,-0.5 682.167,-0.5 1023.5,-0.5C 1023.5,340.833 1023.5,682.167 1023.5,1023.5C 682.167,1023.5 340.833,1023.5 -0.5,1023.5C -0.5,682.167 -0.5,340.833 -0.5,-0.5 Z"/></g>
<g><path style="opacity:1" fill="#14303e" d="M 849.5,114.5 C 860.245,114.071 870.912,114.571 881.5,116C 886.551,118.72 889.718,122.887 891,128.5C 889.781,221.711 867.114,309.378 823,391.5C 787.764,454.764 744.097,511.764 692,562.5C 697.328,646.19 668.828,716.023 606.5,772C 573.275,800.173 536.608,823.173 496.5,841C 492.112,843.36 487.445,844.86 482.5,845.5C 470.97,843.121 466.47,836.121 469,824.5C 477.061,812.768 484.728,800.768 492,788.5C 501.527,771.251 507.861,752.918 511,733.5C 511.499,724.489 511.333,715.489 510.5,706.5C 503.269,710.122 496.269,714.289 489.5,719C 484.087,721.317 479.087,720.65 474.5,717C 466.833,710.167 459.167,703.333 451.5,696.5C 439.676,705.246 427.676,713.746 415.5,722C 409.683,724.198 404.017,723.865 398.5,721C 394.985,717.318 391.318,713.818 387.5,710.5C 372.013,791.137 326.013,845.97 249.5,875C 241.167,876.417 235.334,873.251 232,865.5C 231.667,862.167 231.333,858.833 231,855.5C 211.244,867.964 191.078,879.797 170.5,891C 158.467,893.976 151.467,889.309 149.5,877C 157.341,832.801 172.675,791.467 195.5,753C 190.91,753.543 186.243,753.543 181.5,753C 173.425,747.803 171.258,740.637 175,731.5C 186.469,704.051 203.302,680.551 225.5,661C 247.966,644.223 272.966,632.723 300.5,626.5C 297.146,622.981 293.98,619.314 291,615.5C 289.209,612.009 288.542,608.342 289,604.5C 298.749,590.004 308.249,575.337 317.5,560.5C 313.849,556.348 310.016,552.348 306,548.5C 302.619,544.753 301.286,540.419 302,535.5C 304.912,529.342 308.079,523.342 311.5,517.5C 308.702,516.031 305.702,515.198 302.5,515C 289.224,513.647 276.224,514.98 263.5,519C 239.293,527.238 216.959,538.905 196.5,554C 180.997,556.833 174.163,550.333 176,534.5C 194.795,492.876 218.129,454.209 246,418.5C 298.122,356.999 364.622,327.833 445.5,331C 487.578,283.238 534.245,240.905 585.5,204C 645.906,162.981 712.239,135.981 784.5,123C 806.201,119.267 827.867,116.433 849.5,114.5 Z"/></g>
<g><path style="opacity:1" fill="#f5edd5" d="M 399.5,434.5 C 400.239,434.369 400.906,434.536 401.5,435C 424.565,457.401 447.565,479.734 470.5,502C 443.35,531.151 415.516,559.651 387,587.5C 368.284,570.618 350.784,552.618 334.5,533.5C 341,522.5 347.5,511.5 354,500.5C 368.94,478.268 384.106,456.268 399.5,434.5 Z"/></g>
<g><path style="opacity:1" fill="#eeba4f" d="M 412.5,359.5 C 415.518,359.335 418.518,359.502 421.5,360C 387.511,401.988 355.845,445.655 326.5,491C 302.834,484.793 279.167,485.126 255.5,492C 244.677,495.385 234.177,499.552 224,504.5C 245.927,456.227 279.093,417.394 323.5,388C 351.164,371.842 380.831,362.342 412.5,359.5 Z"/></g>
<g><path style="opacity:1" fill="#f5edd7" d="M 572.5,282.5 C 529.248,317.792 517.415,361.792 537,414.5C 561.685,461.429 600.518,481.929 653.5,476C 690.45,468.444 716.95,447.61 733,413.5C 746.446,381.555 745.28,350.222 729.5,319.5C 730.525,319.103 730.692,318.437 730,317.5C 722.987,305.486 714.154,294.986 703.5,286C 705.891,285.309 705.891,284.309 703.5,283C 705.085,282.915 706.418,282.749 707.5,282.5C 706.754,281.264 706.421,279.93 706.5,278.5C 705.127,278.657 703.793,278.49 702.5,278C 703.167,277.667 703.833,277.333 704.5,277C 701.038,274.761 699.705,271.594 700.5,267.5C 699.448,267.351 698.448,267.517 697.5,268C 698.451,268.718 698.617,269.551 698,270.5C 694.101,268.448 693.768,266.114 697,263.5C 697.667,266.167 698.333,266.167 699,263.5C 699.667,264.167 700.333,264.833 701,265.5C 701.772,264.151 702.939,263.318 704.5,263C 703.624,261.415 702.291,260.415 700.5,260C 701.973,257.507 703.473,258.007 705,261.5C 706.418,259.637 708.251,259.137 710.5,260C 708.881,261.483 708.714,262.65 710,263.5C 711.73,262.351 713.396,262.351 715,263.5C 715.308,262.692 715.808,262.025 716.5,261.5C 717.243,262.908 718.077,264.241 719,265.5C 719.5,264.333 720.333,263.5 721.5,263C 721.167,262.667 720.833,262.333 720.5,262C 722.075,262.379 723.575,262.212 725,261.5C 726.337,265.63 728.171,266.13 730.5,263C 729.751,261.266 729.251,259.433 729,257.5C 728.468,264.075 727.634,264.075 726.5,257.5C 728.599,255.183 730.932,255.017 733.5,257C 732.542,258.147 732.875,259.147 734.5,260C 736.218,260.346 737.885,260.846 739.5,261.5C 740.521,262.002 740.688,262.668 740,263.5C 739.107,262.289 738.274,262.289 737.5,263.5C 737.833,264.5 738.5,265.167 739.5,265.5C 740.912,264.194 742.579,263.36 744.5,263C 745.833,262.333 745.833,261.667 744.5,261C 746.279,261.044 747.945,261.711 749.5,263C 748.328,263.419 747.328,264.085 746.5,265C 748.126,264.805 749.793,264.805 751.5,265C 756.092,270.1 761.092,274.6 766.5,278.5C 784.988,297.984 801.988,318.65 817.5,340.5C 785.53,407.808 743.697,468.141 692,521.5C 678.5,535 665,548.5 651.5,562C 637.686,574.071 623.686,585.904 609.5,597.5C 576.85,569.35 546.35,539.017 518,506.5C 519.748,502.717 522.414,499.384 526,496.5C 532.2,484.768 529.367,475.935 517.5,470C 513.5,469.333 509.5,469.333 505.5,470C 501.2,473.298 497.2,476.965 493.5,481C 492.833,481.667 492.167,481.667 491.5,481C 465.597,459.433 441.264,436.1 418.5,411C 453.178,364.466 491.845,321.132 534.5,281C 544.435,271.887 554.769,263.387 565.5,255.5C 567.044,255.297 568.378,254.63 569.5,253.5C 571.444,254.189 573.444,254.689 575.5,255C 575.167,255.333 574.833,255.667 574.5,256C 575.893,257.171 576.727,258.671 577,260.5C 577.5,260 578,259.5 578.5,259C 577.773,256.876 577.106,254.709 576.5,252.5C 577.498,249.972 578.331,249.972 579,252.5C 579.251,250.567 579.751,248.734 580.5,247C 580.167,246.667 579.833,246.333 579.5,246C 580.448,245.517 581.448,245.351 582.5,245.5C 582.672,247.492 582.005,249.158 580.5,250.5C 581.792,252.667 582.625,255 583,257.5C 583.333,256.833 583.667,256.167 584,255.5C 585.452,258.862 587.952,260.362 591.5,260C 590.5,259.167 589.5,258.333 588.5,257.5C 589.025,256.808 589.692,256.308 590.5,256C 588.256,254.821 585.923,253.654 583.5,252.5C 583.312,250.897 583.812,249.563 585,248.5C 588.009,251.177 590.676,254.177 593,257.5C 593.973,255.608 594.64,253.608 595,251.5C 596.667,253.167 598.333,254.833 600,256.5C 600.318,254.939 601.151,253.772 602.5,253C 600.963,251.89 600.297,250.39 600.5,248.5C 597.402,248.587 597.068,248.087 599.5,247C 598.833,246.667 598.167,246.333 597.5,246C 599.69,247.235 602.023,247.735 604.5,247.5C 604.833,247.333 605.167,247.167 605.5,247C 604.672,246.085 603.672,245.419 602.5,245C 605.112,244.259 606.778,245.259 607.5,248C 605.998,248.583 604.665,249.416 603.5,250.5C 607.89,256.627 613.057,256.627 619,250.5C 619.914,252.664 621.081,254.664 622.5,256.5C 621.132,257.594 619.965,257.26 619,255.5C 617.529,257.616 618.196,259.283 621,260.5C 622.399,259.773 623.899,259.273 625.5,259C 623.109,258.309 623.109,257.309 625.5,256C 626.448,255.517 627.448,255.351 628.5,255.5C 628.413,252.402 628.913,252.068 630,254.5C 632.711,253.074 635.211,253.408 637.5,255.5C 636.085,258.212 636.419,258.712 638.5,257C 640.521,256.86 642.355,256.693 644,256.5C 645.067,257.943 646.234,259.276 647.5,260.5C 620.16,259.083 595.16,265.917 572.5,281C 571.262,281.69 571.262,282.19 572.5,282.5 Z"/></g>
<g><path style="opacity:1" fill="#15313f" d="M 729.5,319.5 C 745.28,350.222 746.446,381.555 733,413.5C 716.95,447.61 690.45,468.444 653.5,476C 600.518,481.929 561.685,461.429 537,414.5C 517.415,361.792 529.248,317.792 572.5,282.5C 615.691,255.202 658.358,256.036 700.5,285C 712.414,294.692 722.08,306.192 729.5,319.5 Z"/></g>
<g><path style="opacity:1" fill="#f2e6ca" d="M 624.5,291.5 C 651.395,289.706 674.228,298.373 693,317.5C 697.389,322.18 700.389,327.514 702,333.5C 679.407,312.225 652.907,305.059 622.5,312C 583.299,326.923 565.799,355.423 570,397.5C 572.025,405.602 574.025,413.602 576,421.5C 556.262,396.865 551.596,369.531 562,339.5C 574.626,312.695 595.46,296.695 624.5,291.5 Z"/></g>
<g><path style="opacity:1" fill="#efbb4f" d="M 845.5,143.5 C 851.5,143.5 857.5,143.5 863.5,143.5C 860.273,192.861 851.44,241.195 837,288.5C 834.869,295.422 832.202,302.089 829,308.5C 791.165,257.326 745.665,214.492 692.5,180C 715.511,169.219 739.511,161.219 764.5,156C 791.368,149.997 818.368,145.83 845.5,143.5 Z"/></g>
<g><path style="opacity:1" fill="#f7f0dd" d="M 766.5,278.5 C 761.092,274.6 756.092,270.1 751.5,265C 749.793,264.805 748.126,264.805 746.5,265C 747.328,264.085 748.328,263.419 749.5,263C 747.945,261.711 746.279,261.044 744.5,261C 745.833,261.667 745.833,262.333 744.5,263C 742.579,263.36 740.912,264.194 739.5,265.5C 738.5,265.167 737.833,264.5 737.5,263.5C 738.274,262.289 739.107,262.289 740,263.5C 740.688,262.668 740.521,262.002 739.5,261.5C 737.885,260.846 736.218,260.346 734.5,260C 732.875,259.147 732.542,258.147 733.5,257C 730.932,255.017 728.599,255.183 726.5,257.5C 727.634,264.075 728.468,264.075 729,257.5C 729.251,259.433 729.751,261.266 730.5,263C 728.171,266.13 726.337,265.63 725,261.5C 723.575,262.212 722.075,262.379 720.5,262C 720.833,262.333 721.167,262.667 721.5,263C 720.333,263.5 719.5,264.333 719,265.5C 718.077,264.241 717.243,262.908 716.5,261.5C 715.808,262.025 715.308,262.692 715,263.5C 713.396,262.351 711.73,262.351 710,263.5C 708.714,262.65 708.881,261.483 710.5,260C 708.251,259.137 706.418,259.637 705,261.5C 703.473,258.007 701.973,257.507 700.5,260C 702.291,260.415 703.624,261.415 704.5,263C 702.939,263.318 701.772,264.151 701,265.5C 700.333,264.833 699.667,264.167 699,263.5C 698.333,266.167 697.667,266.167 697,263.5C 693.768,266.114 694.101,268.448 698,270.5C 698.617,269.551 698.451,268.718 697.5,268C 698.448,267.517 699.448,267.351 700.5,267.5C 699.705,271.594 701.038,274.761 704.5,277C 703.833,277.333 703.167,277.667 702.5,278C 703.793,278.49 705.127,278.657 706.5,278.5C 706.421,279.93 706.754,281.264 707.5,282.5C 706.418,282.749 705.085,282.915 703.5,283C 705.891,284.309 705.891,285.309 703.5,286C 714.154,294.986 722.987,305.486 730,317.5C 730.692,318.437 730.525,319.103 729.5,319.5C 722.08,306.192 712.414,294.692 700.5,285C 658.358,256.036 615.691,255.202 572.5,282.5C 571.262,282.19 571.262,281.69 572.5,281C 595.16,265.917 620.16,259.083 647.5,260.5C 646.234,259.276 645.067,257.943 644,256.5C 642.355,256.693 640.521,256.86 638.5,257C 636.419,258.712 636.085,258.212 637.5,255.5C 635.211,253.408 632.711,253.074 630,254.5C 628.913,252.068 628.413,252.402 628.5,255.5C 627.448,255.351 626.448,255.517 625.5,256C 623.109,257.309 623.109,258.309 625.5,259C 623.899,259.273 622.399,259.773 621,260.5C 618.196,259.283 617.529,257.616 619,255.5C 619.965,257.26 621.132,257.594 622.5,256.5C 621.081,254.664 619.914,252.664 619,250.5C 613.057,256.627 607.89,256.627 603.5,250.5C 604.665,249.416 605.998,248.583 607.5,248C 606.778,245.259 605.112,244.259 602.5,245C 603.672,245.419 604.672,246.085 605.5,247C 605.167,247.167 604.833,247.333 604.5,247.5C 602.023,247.735 599.69,247.235 597.5,246C 598.167,246.333 598.833,246.667 599.5,247C 597.068,248.087 597.402,248.587 600.5,248.5C 600.297,250.39 600.963,251.89 602.5,253C 601.151,253.772 600.318,254.939 600,256.5C 598.333,254.833 596.667,253.167 595,251.5C 594.64,253.608 593.973,255.608 593,257.5C 590.676,254.177 588.009,251.177 585,248.5C 583.812,249.563 583.312,250.897 583.5,252.5C 585.923,253.654 588.256,254.821 590.5,256C 589.692,256.308 589.025,256.808 588.5,257.5C 589.5,258.333 590.5,259.167 591.5,260C 587.952,260.362 585.452,258.862 584,255.5C 583.667,256.167 583.333,256.833 583,257.5C 582.625,255 581.792,252.667 580.5,250.5C 582.005,249.158 582.672,247.492 582.5,245.5C 581.448,245.351 580.448,245.517 579.5,246C 579.833,246.333 580.167,246.667 580.5,247C 579.751,248.734 579.251,250.567 579,252.5C 578.331,249.972 577.498,249.972 576.5,252.5C 577.106,254.709 577.773,256.876 578.5,259C 578,259.5 577.5,260 577,260.5C 576.727,258.671 575.893,257.171 574.5,256C 574.833,255.667 575.167,255.333 575.5,255C 573.444,254.689 571.444,254.189 569.5,253.5C 568.378,254.63 567.044,255.297 565.5,255.5C 588.277,236.58 612.61,219.746 638.5,205C 646.198,201.151 653.864,197.318 661.5,193.5C 700.05,217.298 735.05,245.631 766.5,278.5 Z"/></g>
<g><path style="opacity:1" fill="#eeb94e" d="M 499.5,529.5 C 503.845,533.847 507.845,538.514 511.5,543.5C 481.92,570.412 453.253,598.412 425.5,627.5C 422.097,625.1 419.43,622.1 417.5,618.5C 416.316,616.537 415.483,614.537 415,612.5C 443.034,583.96 471.2,556.293 499.5,529.5 Z"/></g>
<g><path style="opacity:1" fill="#f5d052" d="M 499.5,529.5 C 471.2,556.293 443.034,583.96 415,612.5C 415.483,614.537 416.316,616.537 417.5,618.5C 414.927,617.121 413.427,615.121 413,612.5C 441.333,584.167 469.667,555.833 498,527.5C 498.717,528.044 499.217,528.711 499.5,529.5 Z"/></g>
<g><path style="opacity:1" fill="#efbc4f" d="M 335.5,583.5 C 345.118,593.453 354.784,603.453 364.5,613.5C 359.52,619.647 354.354,625.647 349,631.5C 339.551,623.042 330.718,614.042 322.5,604.5C 326.594,597.304 330.927,590.304 335.5,583.5 Z"/></g>
<g><path style="opacity:1" fill="#f5ecd5" d="M 511.5,543.5 C 536.056,568.557 561.389,592.724 587.5,616C 555.449,641.384 522.283,665.217 488,687.5C 466.058,668.726 445.225,648.726 425.5,627.5C 453.253,598.412 481.92,570.412 511.5,543.5 Z"/></g>
<g><path style="opacity:1" fill="#eeba4e" d="M 320.5,651.5 C 322.604,651.201 324.604,651.534 326.5,652.5C 337.849,664.682 349.682,676.349 362,687.5C 357.018,746.409 330.851,793.243 283.5,828C 276.153,832.675 268.486,836.842 260.5,840.5C 260.167,840.167 259.833,839.833 259.5,839.5C 261.732,832.865 261.898,826.198 260,819.5C 255.431,813.42 249.598,811.587 242.5,814C 223.594,827.373 204.094,839.873 184,851.5C 191.01,823.133 201.676,796.133 216,770.5C 223.013,759.134 230.013,747.801 237,736.5C 238.729,725.563 234.063,720.23 223,720.5C 219.63,720.333 216.463,720.999 213.5,722.5C 218.362,708.378 226.695,696.211 238.5,686C 263.156,668.173 290.489,656.673 320.5,651.5 Z"/></g>
<g><path style="opacity:1" fill="#eeba4d" d="M 663.5,587.5 C 664.794,589.048 665.461,591.048 665.5,593.5C 660.86,657.281 634.526,710.114 586.5,752C 574.862,761.817 562.862,771.15 550.5,780C 540.232,786.987 529.565,792.987 518.5,798C 533.983,771.556 540.816,743.056 539,712.5C 537.983,704.899 536.483,697.399 534.5,690C 558.428,673.079 582.095,655.745 605.5,638C 625.618,622.048 644.951,605.214 663.5,587.5 Z"/></g>
<g><path style="opacity:1" fill="#eeba4d" d="M 386.5,636.5 C 387.552,636.351 388.552,636.517 389.5,637C 403.5,650.333 417.5,663.667 431.5,677C 424.5,682.167 417.5,687.333 410.5,692.5C 397.167,679.833 384.167,666.833 371.5,653.5C 376.894,648.11 381.894,642.444 386.5,636.5 Z"/></g>
<g><path style="opacity:1" fill="#15303f" d="M 303.5,676.5 C 313.21,674.714 316.71,678.381 314,687.5C 296.524,701.32 281.691,717.487 269.5,736C 264.271,738.621 259.771,737.788 256,733.5C 254.397,722.644 257.064,712.977 264,704.5C 274.997,692.087 288.164,682.753 303.5,676.5 Z"/></g>
<g><path style="opacity:1" fill="#15313f" d="M 330.5,718.5 C 336.53,718.008 340.197,720.675 341.5,726.5C 331.691,752.473 315.357,773.306 292.5,789C 285.854,793.773 278.521,795.439 270.5,794C 264.962,789.607 264.129,784.441 268,778.5C 278.643,772.092 288.476,764.592 297.5,756C 309.511,744.171 320.511,731.671 330.5,718.5 Z"/></g>
</svg>
