<?xml version="1.0" encoding="UTF-8"?>
<!DOCTYPE svg PUBLIC "-//W3C//DTD SVG 1.1//EN" "http://www.w3.org/Graphics/SVG/1.1/DTD/svg11.dtd">
<svg xmlns="http://www.w3.org/2000/svg" version="1.1" width="1024px" height="1024px" style="shape-rendering:geometricPrecision; text-rendering:geometricPrecision; image-rendering:optimizeQuality; fill-rule:evenodd; clip-rule:evenodd" xmlns:xlink="http://www.w3.org/1999/xlink">
<g><path style="opacity:1" fill="#fcf5e9" d="M -0.5,-0.5 C 340.833,-0.5 682.167,-0.5 1023.5,-0.5C 1023.5,340.833 1023.5,682.167 1023.5,1023.5C 682.167,1023.5 340.833,1023.5 -0.5,1023.5C -0.5,682.167 -0.5,340.833 -0.5,-0.5 Z"/></g>
<g><path style="opacity:1" fill="#02324a" d="M 383.5,287.5 C 380.401,289.145 377.068,290.312 373.5,291C 358.833,291.333 344.167,291.667 329.5,292C 329,292.5 328.5,293 328,293.5C 326.857,308.268 326.357,323.102 326.5,338C 327.145,369.5 327.311,401 327,432.5C 326.439,435.279 325.606,437.946 324.5,440.5C 324.586,441.496 324.252,442.329 323.5,443C 318.082,445.392 313.082,444.892 308.5,441.5C 307.061,440.012 306.395,438.178 306.5,436C 307.484,385.181 307.818,334.348 307.5,283.5C 308.847,278.963 311.514,275.463 315.5,273C 328.782,271.28 342.115,270.113 355.5,269.5C 327.713,234.091 300.046,198.591 272.5,163C 271.004,162.493 269.837,162.993 269,164.5C 262.664,171.867 256.83,179.534 251.5,187.5C 233.198,209.31 215.031,231.31 197,253.5C 193.865,258.943 190.365,264.11 186.5,269C 186.645,269.772 186.978,270.439 187.5,271C 201.5,272.059 215.5,272.892 229.5,273.5C 234.027,277.731 236.027,283.065 235.5,289.5C 234.334,362.999 234.168,436.666 235,510.5C 235.333,511.167 235.667,511.833 236,512.5C 236.399,512.272 236.565,511.938 236.5,511.5C 239.505,513.299 242.838,513.966 246.5,513.5C 244.369,514.314 242.036,514.814 239.5,515C 259.5,515.667 279.5,515.667 299.5,515C 297.942,514.79 296.609,514.29 295.5,513.5C 297.167,513.5 298.833,513.5 300.5,513.5C 301.038,515.117 301.371,516.784 301.5,518.5C 300.571,521.675 299.738,525.009 299,528.5C 298.5,530.333 297.333,531.5 295.5,532C 277.982,532.288 260.649,533.122 243.5,534.5C 235.621,536.415 227.955,535.582 220.5,532C 216.554,527.998 214.888,523.164 215.5,517.5C 215.948,443.153 215.448,368.819 214,294.5C 213.626,293.584 213.126,292.75 212.5,292C 197.328,291.172 182.328,291.339 167.5,292.5C 155.28,289.344 151.78,282.011 157,270.5C 192.074,225.422 227.908,180.922 264.5,137C 270.422,133.295 275.922,133.795 281,138.5C 313,179.167 345,219.833 377,260.5C 380.847,265.53 384.18,270.863 387,276.5C 387.458,279.558 387.124,282.558 386,285.5C 385.292,286.381 384.458,287.047 383.5,287.5 Z"/></g>
<g><path style="opacity:1" fill="#f6b654" d="M 307.5,283.5 C 306.53,290.659 305.864,297.993 305.5,305.5C 304.61,302.123 302.943,299.123 300.5,296.5C 299.366,299.167 298.366,301.833 297.5,304.5C 294.603,304.875 291.937,304.375 289.5,303C 290.174,301.249 290.507,299.583 290.5,298C 294.011,297.88 294.345,299.214 291.5,302C 295.767,302.634 297.767,300.801 297.5,296.5C 293.107,296.543 288.774,296.709 284.5,297C 282.519,296.395 282.185,295.395 283.5,294C 282.431,291.069 280.598,289.902 278,290.5C 277.717,287.258 276.883,286.924 275.5,289.5C 274.614,288.675 274.281,287.675 274.5,286.5C 272.5,286.5 270.5,286.5 268.5,286.5C 268.172,283.996 266.838,282.162 264.5,281C 265.516,280.481 266.182,279.647 266.5,278.5C 265,275.258 263.334,272.258 261.5,269.5C 259.202,268.69 256.868,267.856 254.5,267C 255.536,265.383 256.703,265.216 258,266.5C 257.731,262.534 256.064,261.867 253,264.5C 253.046,262.687 252.88,261.021 252.5,259.5C 251.264,260.246 249.93,260.579 248.5,260.5C 248.567,257.234 246.901,255.734 243.5,256C 245.283,254.933 245.783,253.433 245,251.5C 240.764,247.691 238.098,243.025 237,237.5C 235.844,238.993 235.01,238.826 234.5,237C 235.272,235.779 236.272,234.779 237.5,234C 235.833,233.667 234.167,233.333 232.5,233C 234.099,231.214 234.933,229.047 235,226.5C 235.893,227.711 236.726,227.711 237.5,226.5C 236.583,223.242 236.249,219.909 236.5,216.5C 237.552,216.649 238.552,216.483 239.5,216C 237.968,215.3 236.968,214.134 236.5,212.5C 238.457,208.018 240.624,203.685 243,199.5C 244.299,199.966 245.799,199.966 247.5,199.5C 247.714,197.856 247.38,196.356 246.5,195C 248.808,192.872 250.474,190.372 251.5,187.5C 256.83,179.534 262.664,171.867 269,164.5C 269.837,162.993 271.004,162.493 272.5,163C 300.046,198.591 327.713,234.091 355.5,269.5C 342.115,270.113 328.782,271.28 315.5,273C 311.514,275.463 308.847,278.963 307.5,283.5 Z"/></g>
<g><path style="opacity:1" fill="#f6b639" d="M 251.5,187.5 C 250.474,190.372 248.808,192.872 246.5,195C 247.38,196.356 247.714,197.856 247.5,199.5C 245.799,199.966 244.299,199.966 243,199.5C 240.624,203.685 238.457,208.018 236.5,212.5C 236.968,214.134 237.968,215.3 239.5,216C 238.552,216.483 237.552,216.649 236.5,216.5C 236.249,219.909 236.583,223.242 237.5,226.5C 236.726,227.711 235.893,227.711 235,226.5C 234.933,229.047 234.099,231.214 232.5,233C 234.167,233.333 235.833,233.667 237.5,234C 236.272,234.779 235.272,235.779 234.5,237C 235.01,238.826 235.844,238.993 237,237.5C 238.098,243.025 240.764,247.691 245,251.5C 245.783,253.433 245.283,254.933 243.5,256C 246.901,255.734 248.567,257.234 248.5,260.5C 249.93,260.579 251.264,260.246 252.5,259.5C 252.88,261.021 253.046,262.687 253,264.5C 256.064,261.867 257.731,262.534 258,266.5C 256.703,265.216 255.536,265.383 254.5,267C 256.868,267.856 259.202,268.69 261.5,269.5C 263.334,272.258 265,275.258 266.5,278.5C 266.182,279.647 265.516,280.481 264.5,281C 266.838,282.162 268.172,283.996 268.5,286.5C 270.5,286.5 272.5,286.5 274.5,286.5C 274.281,287.675 274.614,288.675 275.5,289.5C 276.883,286.924 277.717,287.258 278,290.5C 280.598,289.902 282.431,291.069 283.5,294C 282.185,295.395 282.519,296.395 284.5,297C 288.774,296.709 293.107,296.543 297.5,296.5C 297.767,300.801 295.767,302.634 291.5,302C 294.345,299.214 294.011,297.88 290.5,298C 290.507,299.583 290.174,301.249 289.5,303C 291.937,304.375 294.603,304.875 297.5,304.5C 298.366,301.833 299.366,299.167 300.5,296.5C 302.943,299.123 304.61,302.123 305.5,305.5C 305.333,350.501 305.5,395.501 306,440.5C 306.717,441.044 307.217,441.711 307.5,442.5C 304.543,446.749 302.377,451.416 301,456.5C 300.5,475.164 300.333,493.83 300.5,512.5C 280.164,512.667 259.831,512.5 239.5,512C 239,511.5 238.5,511 238,510.5C 237.5,486.836 237.333,463.169 237.5,439.5C 237.381,396.703 237.381,354.203 237.5,312C 236.679,301.577 236.179,291.077 236,280.5C 234.659,277.978 233.826,275.311 233.5,272.5C 231.901,272.232 230.568,272.566 229.5,273.5C 215.5,272.892 201.5,272.059 187.5,271C 186.978,270.439 186.645,269.772 186.5,269C 190.365,264.11 193.865,258.943 197,253.5C 215.031,231.31 233.198,209.31 251.5,187.5 Z"/></g>
<g><path style="opacity:1" fill="#051a2f" d="M 383.5,287.5 C 381.236,290.215 378.236,291.715 374.5,292C 359.833,292.333 345.167,292.667 330.5,293C 330,293.5 329.5,294 329,294.5C 328.667,341.167 328.333,387.833 328,434.5C 327.576,437.025 326.41,439.025 324.5,440.5C 325.606,437.946 326.439,435.279 327,432.5C 327.311,401 327.145,369.5 326.5,338C 326.357,323.102 326.857,308.268 328,293.5C 328.5,293 329,292.5 329.5,292C 344.167,291.667 358.833,291.333 373.5,291C 377.068,290.312 380.401,289.145 383.5,287.5 Z"/></g>
<g><path style="opacity:1" fill="#040819" d="M 483.5,315.5 C 501.503,315.333 519.503,315.5 537.5,316C 541.908,316.916 544.908,319.416 546.5,323.5C 543.838,320.345 540.505,318.178 536.5,317C 518.662,316.832 500.995,316.332 483.5,315.5 Z"/></g>
<g><path style="opacity:1" fill="#061324" d="M 167.5,292.5 C 182.328,291.339 197.328,291.172 212.5,292C 213.126,292.75 213.626,293.584 214,294.5C 215.448,368.819 215.948,443.153 215.5,517.5C 214.948,443.655 214.115,369.655 213,295.5C 212.626,294.584 212.126,293.75 211.5,293C 209.667,292.833 207.833,292.667 206,292.5C 193.153,293.8 180.32,293.8 167.5,292.5 Z"/></g>
<g><path style="opacity:1" fill="#e1b839" d="M 237.5,439.5 C 236.502,462.661 236.169,485.994 236.5,509.5C 235.501,436.335 235.167,363.002 235.5,289.5C 236.027,283.065 234.027,277.731 229.5,273.5C 230.568,272.566 231.901,272.232 233.5,272.5C 233.826,275.311 234.659,277.978 236,280.5C 236.179,291.077 236.679,301.577 237.5,312C 237.381,354.203 237.381,396.703 237.5,439.5 Z"/></g>
<g><path style="opacity:1" fill="#f0c439" d="M 307.5,283.5 C 307.818,334.348 307.484,385.181 306.5,436C 306.395,438.178 307.061,440.012 308.5,441.5C 308.5,442.167 308.167,442.5 307.5,442.5C 307.217,441.711 306.717,441.044 306,440.5C 305.5,395.501 305.333,350.501 305.5,305.5C 305.864,297.993 306.53,290.659 307.5,283.5 Z"/></g>
<g><path style="opacity:1" fill="#010c53" d="M 235.5,289.5 C 235.167,363.002 235.501,436.335 236.5,509.5C 236.5,510.167 236.5,510.833 236.5,511.5C 236.565,511.938 236.399,512.272 236,512.5C 235.667,511.833 235.333,511.167 235,510.5C 234.168,436.666 234.334,362.999 235.5,289.5 Z"/></g>
<g><path style="opacity:1" fill="#fede35" d="M 237.5,439.5 C 237.333,463.169 237.5,486.836 238,510.5C 238.5,511 239,511.5 239.5,512C 259.831,512.5 280.164,512.667 300.5,512.5C 300.5,512.833 300.5,513.167 300.5,513.5C 298.833,513.5 297.167,513.5 295.5,513.5C 279.167,513.5 262.833,513.5 246.5,513.5C 242.838,513.966 239.505,513.299 236.5,511.5C 236.5,510.833 236.5,510.167 236.5,509.5C 236.169,485.994 236.502,462.661 237.5,439.5 Z"/></g>
<g><path style="opacity:1" fill="#03214b" d="M 246.5,513.5 C 262.833,513.5 279.167,513.5 295.5,513.5C 296.609,514.29 297.942,514.79 299.5,515C 279.5,515.667 259.5,515.667 239.5,515C 242.036,514.814 244.369,514.314 246.5,513.5 Z"/></g>
<g><path style="opacity:1" fill="#f0c536" d="M 783.5,485.5 C 785.017,485.511 786.184,486.177 787,487.5C 787.46,568.167 787.96,648.834 788.5,729.5C 787.659,730.009 787.159,729.343 787,727.5C 786.667,647.497 786,567.497 785,487.5C 784.283,486.956 783.783,486.289 783.5,485.5 Z"/></g>
<g><path style="opacity:1" fill="#02071b" d="M 301.5,518.5 C 301.608,522.247 301.108,525.914 300,529.5C 299.5,531.333 298.333,532.5 296.5,533C 278.835,533.64 261.169,534.14 243.5,534.5C 260.649,533.122 277.982,532.288 295.5,532C 297.333,531.5 298.5,530.333 299,528.5C 299.738,525.009 300.571,521.675 301.5,518.5 Z"/></g>
<g><path style="opacity:1" fill="#021026" d="M 807.5,475.5 C 808.466,489.785 808.8,504.118 808.5,518.5C 808.667,546.169 808.5,573.835 808,601.5C 807.822,560.144 807.322,518.811 806.5,477.5C 806.543,476.584 806.876,475.917 807.5,475.5 Z"/></g>
<g><path style="opacity:1" fill="#003249" d="M 483.5,315.5 C 500.995,316.332 518.662,316.832 536.5,317C 540.505,318.178 543.838,320.345 546.5,323.5C 547.222,323.918 547.722,324.584 548,325.5C 549.759,334.816 551.426,344.15 553,353.5C 553.45,355.519 554.283,357.352 555.5,359C 565.077,362.303 574.577,365.803 584,369.5C 593.438,363.066 602.605,356.233 611.5,349C 616.749,345.562 621.749,345.895 626.5,350C 640.397,363.228 653.564,377.061 666,391.5C 666.667,395.167 666.667,398.833 666,402.5C 658.065,410.881 651.232,420.047 645.5,430C 649.842,440.348 654.176,450.682 658.5,461C 668.134,462.659 677.801,464.326 687.5,466C 694.756,467.591 698.923,472.091 700,479.5C 700.667,496.5 700.667,513.5 700,530.5C 698.983,535.712 696.149,539.545 691.5,542C 681.909,544.585 672.242,546.919 662.5,549C 660.579,549.36 658.912,550.194 657.5,551.5C 655.152,560.698 651.818,569.532 647.5,578C 653.255,588.089 659.422,597.923 666,607.5C 666.667,611.167 666.667,614.833 666,618.5C 652.191,632.641 638.025,646.475 623.5,660C 618.807,663.409 613.807,664.075 608.5,662C 600.655,656.577 592.989,650.911 585.5,645C 582.97,643.578 580.303,643.245 577.5,644C 568.638,647.84 559.805,651.673 551,655.5C 549.959,665.828 548.959,676.161 548,686.5C 547.021,689.625 545.187,692.125 542.5,694C 522.599,696.931 502.599,697.265 482.5,695C 479.452,694.394 476.952,692.894 475,690.5C 472.743,679.613 471.077,668.613 470,657.5C 469.535,656.069 468.701,654.903 467.5,654C 457.376,650.792 447.376,647.292 437.5,643.5C 436.5,643.667 435.5,643.833 434.5,644C 426.446,650.387 418.112,656.387 409.5,662C 406.594,663.318 403.594,663.652 400.5,663C 396.239,660.413 392.239,657.413 388.5,654C 377.667,643.167 366.833,632.333 356,621.5C 352.297,617.28 351.63,612.614 354,607.5C 360.182,598.473 366.849,589.806 374,581.5C 374.667,579.833 374.667,578.167 374,576.5C 369.41,566.489 365.243,556.322 361.5,546C 351.115,544.572 340.782,542.905 330.5,541C 325.6,539.098 322.433,535.598 321,530.5C 320.333,512.167 320.333,493.833 321,475.5C 322.833,471 326,467.833 330.5,466C 341.624,464.202 352.624,461.869 363.5,459C 366.081,450.921 369.248,443.087 373,435.5C 373.991,433.553 374.325,431.553 374,429.5C 367.275,420.44 360.942,411.107 355,401.5C 353.906,396.119 355.239,391.452 359,387.5C 371.2,373.633 384.367,360.8 398.5,349C 402.67,346.212 407.003,345.879 411.5,348C 420.974,354.64 430.307,361.473 439.5,368.5C 448.528,364.046 457.862,360.38 467.5,357.5C 468.192,356.975 468.692,356.308 469,355.5C 470.672,344.48 472.338,333.48 474,322.5C 475.914,318.414 479.08,316.081 483.5,315.5 Z"/></g>
<g><path style="opacity:1" fill="#fbf5e9" d="M 497.5,415.5 C 543.201,412.429 576.034,431.429 596,472.5C 610.369,517.55 598.869,554.383 561.5,583C 527.243,603.884 493.243,603.551 459.5,582C 425.974,557.775 413.474,525.275 422,484.5C 433.744,446.581 458.911,423.581 497.5,415.5 Z"/></g>
<g><path style="opacity:1" fill="#02162d" d="M 694.5,571.5 C 695.8,617.33 696.3,663.33 696,709.5C 695.832,691.329 695.332,673.329 694.5,655.5C 694.129,627.473 694.129,599.473 694.5,571.5 Z"/></g>
<g><path style="opacity:1" fill="#f6b73a" d="M 718.5,483.5 C 740.294,484.146 761.961,484.812 783.5,485.5C 783.783,486.289 784.283,486.956 785,487.5C 786,567.497 786.667,647.497 787,727.5C 787.159,729.343 787.659,730.009 788.5,729.5C 789.272,730.694 790.272,731.694 791.5,732.5C 791.611,733.117 791.944,733.617 792.5,734C 801.494,734.5 810.494,734.666 819.5,734.5C 825.063,735.3 830.73,736.3 836.5,737.5C 830.448,744.545 824.448,751.545 818.5,758.5C 819.412,756.405 820.579,754.405 822,752.5C 822.72,750.888 822.554,749.388 821.5,748C 823.645,747.257 823.811,746.424 822,745.5C 820.72,745.613 819.887,746.28 819.5,747.5C 820.833,748.833 820.833,750.167 819.5,751.5C 818.24,752.382 817.074,753.382 816,754.5C 815.667,754.167 815.333,753.833 815,753.5C 814.697,759.796 814.03,759.796 813,753.5C 811.991,755.025 811.491,756.692 811.5,758.5C 810.022,758.762 808.689,758.429 807.5,757.5C 808.325,756.614 809.325,756.281 810.5,756.5C 810.657,755.127 810.49,753.793 810,752.5C 806.726,756.587 805.393,755.92 806,750.5C 809.566,749.454 812.9,750.12 816,752.5C 819.318,750.341 819.151,749.675 815.5,750.5C 814.124,749.158 812.791,747.825 811.5,746.5C 813.833,746.5 816.167,746.5 818.5,746.5C 818.291,745.914 817.957,745.414 817.5,745C 818.624,744.751 819.624,744.251 820.5,743.5C 819.167,742.833 817.833,742.167 816.5,741.5C 816.808,740.692 817.308,740.025 818,739.5C 819.693,740.184 821.193,741.184 822.5,742.5C 824.865,741.711 827.199,742.044 829.5,743.5C 830.711,742.726 830.711,741.893 829.5,741C 831.44,741.178 833.107,740.178 834.5,738C 830.471,737.697 826.471,737.197 822.5,736.5C 821.328,736.919 820.328,737.585 819.5,738.5C 817.633,735.771 816.633,736.104 816.5,739.5C 814.5,739.5 812.5,739.5 810.5,739.5C 810.649,738.448 810.483,737.448 810,736.5C 809.682,738.061 808.849,739.228 807.5,740C 808.993,741.368 810.493,741.535 812,740.5C 813.046,744.547 812.213,745.214 809.5,742.5C 808.167,745.167 806.833,745.167 805.5,742.5C 804.833,743.5 804.167,744.5 803.5,745.5C 802.604,744.494 801.938,744.494 801.5,745.5C 803.115,750.884 804.782,756.218 806.5,761.5C 805.237,762.108 803.57,762.774 801.5,763.5C 801.36,765.124 802.027,766.29 803.5,767C 801.765,767.651 800.098,767.485 798.5,766.5C 797.833,763.833 797.167,761.167 796.5,758.5C 795.18,760.651 793.68,762.651 792,764.5C 791.25,763.874 790.416,763.374 789.5,763C 791.593,759.697 793.259,756.197 794.5,752.5C 795.731,753.651 795.731,754.817 794.5,756C 796.382,758.065 797.382,757.565 797.5,754.5C 797.029,752.754 796.362,751.087 795.5,749.5C 795.818,748.353 796.484,747.519 797.5,747C 796.692,746.692 796.025,746.192 795.5,745.5C 798.012,742.807 800.678,741.14 803.5,740.5C 802.833,739.833 802.167,739.167 801.5,738.5C 802.641,737.575 802.641,736.741 801.5,736C 798.621,735.126 795.955,735.46 793.5,737C 794.624,737.249 795.624,737.749 796.5,738.5C 795.691,740.071 795.357,741.738 795.5,743.5C 793.516,743.383 791.85,744.05 790.5,745.5C 791.833,745.833 793.167,746.167 794.5,746.5C 793.91,747.799 792.91,748.632 791.5,749C 792.711,750.113 792.711,751.28 791.5,752.5C 790.5,753.833 789.5,753.833 788.5,752.5C 789.167,751.833 789.833,751.167 790.5,750.5C 788.956,749.378 787.623,749.711 786.5,751.5C 785.713,750.758 785.047,749.925 784.5,749C 786.087,748.138 787.754,747.471 789.5,747C 787.423,746.808 785.423,746.308 783.5,745.5C 786.993,744.558 790.326,743.225 793.5,741.5C 792.295,739.862 790.962,739.529 789.5,740.5C 788.808,739.975 788.308,739.308 788,738.5C 785.335,739.621 782.835,740.288 780.5,740.5C 780.06,739.302 779.727,738.135 779.5,737C 780.646,736.355 781.646,735.522 782.5,734.5C 782.833,735.167 783.167,735.833 783.5,736.5C 784.386,735.675 784.719,734.675 784.5,733.5C 783.022,733.762 781.689,733.429 780.5,732.5C 781.325,731.614 782.325,731.281 783.5,731.5C 783.881,729.058 783.214,728.391 781.5,729.5C 777.429,726.435 774.429,727.268 772.5,732C 770.866,732.494 769.199,732.66 767.5,732.5C 767.55,730.41 766.55,729.077 764.5,728.5C 763.437,730.435 762.103,732.101 760.5,733.5C 761.167,734.167 761.833,734.833 762.5,735.5C 761.086,736.624 759.586,737.624 758,738.5C 757.126,736.224 755.459,734.89 753,734.5C 750.901,735.287 748.734,735.62 746.5,735.5C 746.762,734.022 746.429,732.689 745.5,731.5C 744.808,732.025 744.308,732.692 744,733.5C 743.805,731.793 743.805,730.126 744,728.5C 740.985,730.516 740.818,732.683 743.5,735C 739.644,734.642 736.144,733.142 733,730.5C 732.619,726.723 733.286,726.723 735,730.5C 736.406,729.332 737.572,729.665 738.5,731.5C 739.799,729.693 739.632,728.027 738,726.5C 736.173,727.662 734.506,727.328 733,725.5C 730.003,727.478 729.836,729.645 732.5,732C 730.697,732.637 729.364,733.803 728.5,735.5C 727.289,734.726 727.289,733.893 728.5,733C 726.001,732.714 723.835,732.881 722,733.5C 721.626,732.584 721.126,731.75 720.5,731C 721.667,730.5 722.5,729.667 723,728.5C 725.257,731.119 727.423,731.119 729.5,728.5C 726.97,727.868 724.637,726.868 722.5,725.5C 723.167,724.833 723.833,724.167 724.5,723.5C 723.726,722.289 722.893,722.289 722,723.5C 721.833,723 721.667,722.5 721.5,722C 722.497,720.404 723.663,718.904 725,717.5C 725.159,721.16 726.826,723.827 730,725.5C 730.151,722.881 730.985,720.547 732.5,718.5C 732.167,718.167 731.833,717.833 731.5,717.5C 730.476,718.853 729.143,719.52 727.5,719.5C 727.5,718.5 727.5,717.5 727.5,716.5C 725.801,716.66 724.134,716.494 722.5,716C 723.784,714.703 723.617,713.536 722,712.5C 721.667,714.833 721.333,717.167 721,719.5C 720.963,717.026 720.13,715.026 718.5,713.5C 718.369,665.497 717.869,617.497 717,569.5C 716.768,568.263 716.268,567.263 715.5,566.5C 714.147,564.817 712.48,563.484 710.5,562.5C 715.894,559.054 718.728,554.054 719,547.5C 719.788,526.143 719.622,504.809 718.5,483.5 Z"/></g>
<g><path style="opacity:1" fill="#03324a" d="M 807.5,475.5 C 806.876,475.917 806.543,476.584 806.5,477.5C 807.322,518.811 807.822,560.144 808,601.5C 808.5,573.835 808.667,546.169 808.5,518.5C 809.333,582.665 809.833,646.999 810,711.5C 810.5,712 811,712.5 811.5,713C 827.812,714.117 844.145,714.783 860.5,715C 870.308,720.443 871.808,727.61 865,736.5C 830.237,779.26 796.237,822.593 763,866.5C 756.291,875.199 749.291,875.532 742,867.5C 706.667,822.833 671.333,778.167 636,733.5C 631.437,725.332 633.27,719.166 641.5,715C 652.5,714.667 663.5,714.333 674.5,714C 681.184,713.637 687.684,712.47 694,710.5C 694.5,692.17 694.667,673.836 694.5,655.5C 695.332,673.329 695.832,691.329 696,709.5C 696.3,663.33 695.8,617.33 694.5,571.5C 696.218,561.647 701.551,558.647 710.5,562.5C 712.48,563.484 714.147,564.817 715.5,566.5C 716.461,590.807 716.794,615.141 716.5,639.5C 715.683,637.031 715.183,634.365 715,631.5C 715.781,664.523 715.614,697.523 714.5,730.5C 713.244,730.461 712.244,730.961 711.5,732C 696.135,732.214 680.802,732.714 665.5,733.5C 665.46,736.425 666.293,739.091 668,741.5C 674.5,749.833 681,758.167 687.5,766.5C 690.161,769.827 693.161,772.827 696.5,775.5C 704.822,786.128 713.156,796.794 721.5,807.5C 729.492,819.462 737.992,831.129 747,842.5C 750.547,846.729 753.38,846.396 755.5,841.5C 769.759,821.901 784.425,802.568 799.5,783.5C 806.073,775.355 812.407,767.022 818.5,758.5C 824.448,751.545 830.448,744.545 836.5,737.5C 830.73,736.3 825.063,735.3 819.5,734.5C 820.552,734.649 821.552,734.483 822.5,734C 812.223,732.63 801.889,732.13 791.5,732.5C 790.272,731.694 789.272,730.694 788.5,729.5C 787.96,648.834 787.46,568.167 787,487.5C 786.184,486.177 785.017,485.511 783.5,485.5C 761.961,484.812 740.294,484.146 718.5,483.5C 718.334,478.156 718.501,472.823 719,467.5C 720.214,465.951 721.714,464.785 723.5,464C 745.841,463.457 768.174,463.124 790.5,463C 798.876,463.55 804.543,467.716 807.5,475.5 Z"/></g>
<g><path style="opacity:1" fill="#f8b946" d="M 818.5,758.5 C 812.407,767.022 806.073,775.355 799.5,783.5C 797.696,784.415 795.53,784.415 793,783.5C 792.506,785.134 792.34,786.801 792.5,788.5C 789.074,788.35 788.741,789.516 791.5,792C 789.609,792.309 788.275,791.475 787.5,789.5C 785.853,791.568 784.019,792.568 782,792.5C 781.833,792.167 781.667,791.833 781.5,791.5C 785.248,789.99 784.915,788.823 780.5,788C 782.025,786.991 783.692,786.491 785.5,786.5C 785.649,785.448 785.483,784.448 785,783.5C 784.346,784.696 783.846,784.696 783.5,783.5C 784.326,782.549 784.492,781.549 784,780.5C 783.333,781.833 782.667,781.833 782,780.5C 781.44,786.89 778.94,787.89 774.5,783.5C 772.425,784.762 770.425,784.595 768.5,783C 767.304,782.346 767.304,781.846 768.5,781.5C 770.768,782.544 773.101,782.711 775.5,782C 774.663,780.989 774.33,779.822 774.5,778.5C 776.39,778.297 777.89,778.963 779,780.5C 779.645,779.354 780.478,778.354 781.5,777.5C 781.167,776.5 780.5,775.833 779.5,775.5C 776.772,776.145 774.105,776.979 771.5,778C 772.711,778.893 772.711,779.726 771.5,780.5C 770.808,779.975 770.308,779.308 770,778.5C 769.282,779.451 768.449,779.617 767.5,779C 766.167,777.333 764.833,775.667 763.5,774C 765.108,773.342 766.275,773.842 767,775.5C 767.308,774.692 767.808,774.025 768.5,773.5C 769.096,774.716 769.263,776.049 769,777.5C 770.987,776.782 772.821,775.782 774.5,774.5C 776.146,771.19 778.48,768.523 781.5,766.5C 782.614,767.723 782.781,769.056 782,770.5C 781.692,769.692 781.192,769.025 780.5,768.5C 779.684,770.287 778.684,771.954 777.5,773.5C 779.706,772.444 781.706,772.444 783.5,773.5C 784.123,771.034 784.957,768.701 786,766.5C 786.854,768.715 788.021,770.048 789.5,770.5C 789.57,772.666 788.904,772.999 787.5,771.5C 786.269,772.651 786.269,773.817 787.5,775C 786.74,776.441 786.074,777.941 785.5,779.5C 786.934,781.22 787.767,783.22 788,785.5C 788.402,784.128 788.902,782.795 789.5,781.5C 788.147,780.476 787.48,779.143 787.5,777.5C 790.176,778.008 792.843,778.175 795.5,778C 798.341,774.434 798.008,773.934 794.5,776.5C 792.465,775.959 790.465,775.292 788.5,774.5C 789.325,773.614 790.325,773.281 791.5,773.5C 790.528,769.264 789.195,765.264 787.5,761.5C 784.722,761.978 782.722,760.978 781.5,758.5C 780.21,760.657 779.376,762.99 779,765.5C 777.812,764.437 777.312,763.103 777.5,761.5C 776.5,761.5 775.5,761.5 774.5,761.5C 774.34,759.801 774.506,758.134 775,756.5C 775.026,759.105 776.193,760.271 778.5,760C 777.833,759.333 777.167,758.667 776.5,758C 777.641,757.259 777.641,756.425 776.5,755.5C 778.03,753.774 779.03,751.774 779.5,749.5C 778.726,748.289 777.893,748.289 777,749.5C 775.724,752.28 774.224,754.947 772.5,757.5C 770.161,756.157 767.828,754.824 765.5,753.5C 767.045,752.548 768.712,752.215 770.5,752.5C 770.585,750.071 771.585,748.071 773.5,746.5C 773.167,745.5 772.5,744.833 771.5,744.5C 770.167,746.5 768.833,748.5 767.5,750.5C 766.833,749.167 766.167,747.833 765.5,746.5C 764.729,748.862 763.895,751.196 763,753.5C 762.5,753 762,752.5 761.5,752C 762.711,750.887 762.711,749.72 761.5,748.5C 764.167,747.5 764.167,746.5 761.5,745.5C 760.561,749.318 759.228,752.985 757.5,756.5C 757.06,755.302 756.727,754.135 756.5,753C 755.207,752.51 753.873,752.343 752.5,752.5C 752.657,751.127 752.49,749.793 752,748.5C 751.1,749.77 749.934,750.77 748.5,751.5C 748.709,752.086 749.043,752.586 749.5,753C 744.322,754.853 744.656,756.02 750.5,756.5C 750.587,759.598 750.087,759.932 749,757.5C 748.28,759.112 748.446,760.612 749.5,762C 750.167,762.667 750.833,762.667 751.5,762C 752.748,760.041 754.415,758.541 756.5,757.5C 757.711,758.274 757.711,759.107 756.5,760C 760.375,761.347 760.375,762.514 756.5,763.5C 755.319,765.198 755.319,766.865 756.5,768.5C 757.749,766.525 759.249,766.191 761,767.5C 761.263,769.86 760.43,771.86 758.5,773.5C 758.901,775.434 759.901,776.934 761.5,778C 761.167,778.333 760.833,778.667 760.5,779C 763.844,779.57 764.177,780.736 761.5,782.5C 762.326,783.451 762.492,784.451 762,785.5C 760.795,784.929 759.628,784.262 758.5,783.5C 759.919,781.873 759.586,781.373 757.5,782C 755.845,783.444 755.178,785.278 755.5,787.5C 754.448,787.649 753.448,787.483 752.5,787C 754.211,785.867 754.711,784.367 754,782.5C 753.02,783.981 751.853,785.315 750.5,786.5C 749.614,785.675 749.281,784.675 749.5,783.5C 748.325,783.719 747.325,783.386 746.5,782.5C 747.522,781.646 748.355,780.646 749,779.5C 749.483,780.448 749.649,781.448 749.5,782.5C 752.896,782.367 753.229,781.367 750.5,779.5C 751.313,778.186 752.313,777.019 753.5,776C 748.279,775.458 748.279,774.624 753.5,773.5C 751.326,772.107 749.493,772.44 748,774.5C 745.457,773.124 745.291,771.957 747.5,771C 745.44,769.507 745.107,767.674 746.5,765.5C 747.192,766.025 747.692,766.692 748,767.5C 749.796,766.233 751.629,766.233 753.5,767.5C 753.833,766.167 754.167,764.833 754.5,763.5C 754.167,763.167 753.833,762.833 753.5,762.5C 752.749,763.376 752.249,764.376 752,765.5C 750.301,764.594 748.467,764.261 746.5,764.5C 747.75,762.032 747.583,759.699 746,757.5C 744.745,758.211 743.579,759.044 742.5,760C 743.578,760.674 744.245,761.674 744.5,763C 743.593,764.911 743.593,766.744 744.5,768.5C 743.985,770.225 743.318,771.892 742.5,773.5C 741.713,772.758 741.047,771.925 740.5,771C 741.406,769.301 741.739,767.467 741.5,765.5C 739.04,765.699 736.707,766.365 734.5,767.5C 735.689,768.429 737.022,768.762 738.5,768.5C 738.025,774.189 740.358,776.355 745.5,775C 742.804,777.463 742.471,779.963 744.5,782.5C 741.852,784.378 742.019,786.045 745,787.5C 746.101,786.709 746.934,786.709 747.5,787.5C 744.329,787.787 742.329,789.454 741.5,792.5C 741.833,792.833 742.167,793.167 742.5,793.5C 743.251,792.624 743.751,791.624 744,790.5C 746.864,791.212 749.864,791.545 753,791.5C 754.979,790.286 756.479,788.619 757.5,786.5C 758.532,788.04 759.865,788.54 761.5,788C 762.866,786.4 763.866,784.567 764.5,782.5C 765.251,783.376 765.751,784.376 766,785.5C 766.414,785.043 766.914,784.709 767.5,784.5C 768.141,788.371 769.641,789.038 772,786.5C 772.49,787.793 772.657,789.127 772.5,790.5C 773.675,790.281 774.675,790.614 775.5,791.5C 774.167,792.167 772.833,792.833 771.5,793.5C 772.025,794.192 772.692,794.692 773.5,795C 772.783,796.652 772.45,798.152 772.5,799.5C 769.329,796.475 765.663,795.809 761.5,797.5C 763.353,798.76 765.186,798.76 767,797.5C 767.833,798.333 768.667,799.167 769.5,800C 766.953,800.66 764.453,800.493 762,799.5C 760.141,797.254 757.974,795.421 755.5,794C 757.002,793.417 758.335,792.584 759.5,791.5C 759.167,791.167 758.833,790.833 758.5,790.5C 755.214,792.617 752.381,795.284 750,798.5C 745.962,794.001 741.628,794.001 737,798.5C 737.379,796.925 737.212,795.425 736.5,794C 739.959,794.734 740.293,793.734 737.5,791C 738.938,790.781 740.271,790.281 741.5,789.5C 734.803,786.365 732.803,788.199 735.5,795C 734.851,796.69 734.851,798.523 735.5,800.5C 739.066,801.288 742.066,803.122 744.5,806C 743.328,806.353 742.162,806.187 741,805.5C 739.832,806.509 738.665,807.509 737.5,808.5C 734.89,806.813 735.223,805.479 738.5,804.5C 735.922,800.98 732.589,799.647 728.5,800.5C 728.167,800 727.833,799.5 727.5,799C 729.448,798.904 731.281,797.737 733,795.5C 732.865,793.575 732.698,791.575 732.5,789.5C 727.857,789.742 727.191,791.576 730.5,795C 728.976,796.701 727.976,796.201 727.5,793.5C 726.675,792.614 725.675,792.281 724.5,792.5C 724.64,794.124 723.973,795.29 722.5,796C 723.793,796.49 725.127,796.657 726.5,796.5C 726.756,798.792 726.423,800.959 725.5,803C 723.681,803.783 722.348,803.283 721.5,801.5C 722.025,800.808 722.692,800.308 723.5,800C 721.527,797.511 719.694,797.344 718,799.5C 717.5,799 717,798.5 716.5,798C 718.434,796.438 720.101,794.605 721.5,792.5C 721.291,791.914 720.957,791.414 720.5,791C 724.334,789.998 728.001,788.665 731.5,787C 730.833,786.667 730.167,786.333 729.5,786C 731.235,785.349 732.902,785.515 734.5,786.5C 735.833,783.833 737.833,781.833 740.5,780.5C 741.246,779.264 741.579,777.93 741.5,776.5C 740.325,776.719 739.325,776.386 738.5,775.5C 737.985,773.775 737.318,772.108 736.5,770.5C 733.21,772.038 732.21,771.205 733.5,768C 733.37,766.941 732.87,766.108 732,765.5C 729.198,771.156 730.698,773.489 736.5,772.5C 736.672,774.492 736.005,776.158 734.5,777.5C 736.256,777.36 737.922,777.86 739.5,779C 738.207,779.49 736.873,779.657 735.5,779.5C 735.509,781.308 735.009,782.975 734,784.5C 733.5,784 733,783.5 732.5,783C 733.38,781.644 733.714,780.144 733.5,778.5C 732.325,778.719 731.325,778.386 730.5,777.5C 729.157,772.567 727.323,772.567 725,777.5C 723.322,776.534 722.655,775.201 723,773.5C 723.414,773.957 723.914,774.291 724.5,774.5C 725.719,773.354 727.052,772.354 728.5,771.5C 723.739,770.268 720.739,772.102 719.5,777C 719.833,777.5 720.167,778 720.5,778.5C 722.745,779.337 725.245,779.337 728,778.5C 730.045,779.638 730.712,781.305 730,783.5C 728.445,781.485 726.611,781.152 724.5,782.5C 724.166,783.998 724.166,785.665 724.5,787.5C 722.604,788.466 720.604,788.799 718.5,788.5C 718.5,787.5 718.5,786.5 718.5,785.5C 720.973,785.264 722.64,783.931 723.5,781.5C 721.436,779.022 719.436,779.022 717.5,781.5C 716.808,780.975 716.308,780.308 716,779.5C 714.022,780.816 712.522,780.316 711.5,778C 717.627,777.915 717.96,776.748 712.5,774.5C 713.615,773.402 713.615,772.235 712.5,771C 716.741,766.046 718.241,766.546 717,772.5C 715.844,771.007 715.01,771.174 714.5,773C 714.833,773.5 715.167,774 715.5,774.5C 716.736,773.754 718.07,773.421 719.5,773.5C 719.38,771.801 719.046,770.135 718.5,768.5C 719.169,765.972 720.002,765.972 721,768.5C 721.483,767.552 721.649,766.552 721.5,765.5C 720.127,765.657 718.793,765.49 717.5,765C 718.863,762.871 718.529,762.371 716.5,763.5C 715.167,762.5 715.167,761.5 716.5,760.5C 718.912,761.884 721.078,763.55 723,765.5C 723.982,764.241 724.315,762.908 724,761.5C 722.613,759.699 721.113,759.032 719.5,759.5C 720.167,758.833 720.833,758.167 721.5,757.5C 721,757.167 720.5,756.833 720,756.5C 718.374,757.289 716.874,758.289 715.5,759.5C 712.876,758.924 712.209,757.59 713.5,755.5C 712.737,754.281 711.737,753.281 710.5,752.5C 710.709,751.914 711.043,751.414 711.5,751C 707.696,749.506 708.029,748.672 712.5,748.5C 712.649,751.671 714.149,754.004 717,755.5C 718.563,754.898 718.396,754.065 716.5,753C 718.974,750.572 718.474,750.072 715,751.5C 714.798,749.744 714.298,748.078 713.5,746.5C 712.391,747.59 711.391,747.59 710.5,746.5C 711.5,745.833 712.5,745.167 713.5,744.5C 711.635,743.334 709.968,743.667 708.5,745.5C 707.914,745.291 707.414,744.957 707,744.5C 706.355,745.646 705.522,746.646 704.5,747.5C 705.5,748.167 706.5,748.833 707.5,749.5C 706.45,751.102 707.117,751.935 709.5,752C 709.182,754.042 709.015,756.209 709,758.5C 707.984,755.12 706.317,752.12 704,749.5C 703,748.167 702,748.167 701,749.5C 700.383,748.551 700.549,747.718 701.5,747C 700.552,746.517 699.552,746.351 698.5,746.5C 698.5,745.5 698.5,744.5 698.5,743.5C 697.07,743.579 695.736,743.246 694.5,742.5C 693.725,740.157 693.058,737.823 692.5,735.5C 699.589,735.884 706.589,735.384 713.5,734C 715.378,732.457 716.878,730.624 718,728.5C 718.499,723.511 718.666,718.511 718.5,713.5C 720.13,715.026 720.963,717.026 721,719.5C 721.333,717.167 721.667,714.833 722,712.5C 723.617,713.536 723.784,714.703 722.5,716C 724.134,716.494 725.801,716.66 727.5,716.5C 727.5,717.5 727.5,718.5 727.5,719.5C 729.143,719.52 730.476,718.853 731.5,717.5C 731.833,717.833 732.167,718.167 732.5,718.5C 730.985,720.547 730.151,722.881 730,725.5C 726.826,723.827 725.159,721.16 725,717.5C 723.663,718.904 722.497,720.404 721.5,722C 721.667,722.5 721.833,723 722,723.5C 722.893,722.289 723.726,722.289 724.5,723.5C 723.833,724.167 723.167,724.833 722.5,725.5C 724.637,726.868 726.97,727.868 729.5,728.5C 727.423,731.119 725.257,731.119 723,728.5C 722.5,729.667 721.667,730.5 720.5,731C 721.126,731.75 721.626,732.584 722,733.5C 723.835,732.881 726.001,732.714 728.5,733C 727.289,733.893 727.289,734.726 728.5,735.5C 729.364,733.803 730.697,732.637 732.5,732C 729.836,729.645 730.003,727.478 733,725.5C 734.506,727.328 736.173,727.662 738,726.5C 739.632,728.027 739.799,729.693 738.5,731.5C 737.572,729.665 736.406,729.332 735,730.5C 733.286,726.723 732.619,726.723 733,730.5C 736.144,733.142 739.644,734.642 743.5,735C 740.818,732.683 740.985,730.516 744,728.5C 743.805,730.126 743.805,731.793 744,733.5C 744.308,732.692 744.808,732.025 745.5,731.5C 746.429,732.689 746.762,734.022 746.5,735.5C 748.734,735.62 750.901,735.287 753,734.5C 755.459,734.89 757.126,736.224 758,738.5C 759.586,737.624 761.086,736.624 762.5,735.5C 761.833,734.833 761.167,734.167 760.5,733.5C 762.103,732.101 763.437,730.435 764.5,728.5C 766.55,729.077 767.55,730.41 767.5,732.5C 769.199,732.66 770.866,732.494 772.5,732C 774.429,727.268 777.429,726.435 781.5,729.5C 783.214,728.391 783.881,729.058 783.5,731.5C 782.325,731.281 781.325,731.614 780.5,732.5C 781.689,733.429 783.022,733.762 784.5,733.5C 784.719,734.675 784.386,735.675 783.5,736.5C 783.167,735.833 782.833,735.167 782.5,734.5C 781.646,735.522 780.646,736.355 779.5,737C 779.727,738.135 780.06,739.302 780.5,740.5C 782.835,740.288 785.335,739.621 788,738.5C 788.308,739.308 788.808,739.975 789.5,740.5C 790.962,739.529 792.295,739.862 793.5,741.5C 790.326,743.225 786.993,744.558 783.5,745.5C 785.423,746.308 787.423,746.808 789.5,747C 787.754,747.471 786.087,748.138 784.5,749C 785.047,749.925 785.713,750.758 786.5,751.5C 787.623,749.711 788.956,749.378 790.5,750.5C 789.833,751.167 789.167,751.833 788.5,752.5C 789.5,753.833 790.5,753.833 791.5,752.5C 792.711,751.28 792.711,750.113 791.5,749C 792.91,748.632 793.91,747.799 794.5,746.5C 793.167,746.167 791.833,745.833 790.5,745.5C 791.85,744.05 793.516,743.383 795.5,743.5C 795.357,741.738 795.691,740.071 796.5,738.5C 795.624,737.749 794.624,737.249 793.5,737C 795.955,735.46 798.621,735.126 801.5,736C 802.641,736.741 802.641,737.575 801.5,738.5C 802.167,739.167 802.833,739.833 803.5,740.5C 800.678,741.14 798.012,742.807 795.5,745.5C 796.025,746.192 796.692,746.692 797.5,747C 796.484,747.519 795.818,748.353 795.5,749.5C 796.362,751.087 797.029,752.754 797.5,754.5C 797.382,757.565 796.382,758.065 794.5,756C 795.731,754.817 795.731,753.651 794.5,752.5C 793.259,756.197 791.593,759.697 789.5,763C 790.416,763.374 791.25,763.874 792,764.5C 793.68,762.651 795.18,760.651 796.5,758.5C 797.167,761.167 797.833,763.833 798.5,766.5C 800.098,767.485 801.765,767.651 803.5,767C 802.027,766.29 801.36,765.124 801.5,763.5C 803.57,762.774 805.237,762.108 806.5,761.5C 804.782,756.218 803.115,750.884 801.5,745.5C 801.938,744.494 802.604,744.494 803.5,745.5C 804.167,744.5 804.833,743.5 805.5,742.5C 806.833,745.167 808.167,745.167 809.5,742.5C 812.213,745.214 813.046,744.547 812,740.5C 810.493,741.535 808.993,741.368 807.5,740C 808.849,739.228 809.682,738.061 810,736.5C 810.483,737.448 810.649,738.448 810.5,739.5C 812.5,739.5 814.5,739.5 816.5,739.5C 816.633,736.104 817.633,735.771 819.5,738.5C 820.328,737.585 821.328,736.919 822.5,736.5C 826.471,737.197 830.471,737.697 834.5,738C 833.107,740.178 831.44,741.178 829.5,741C 830.711,741.893 830.711,742.726 829.5,743.5C 827.199,742.044 824.865,741.711 822.5,742.5C 821.193,741.184 819.693,740.184 818,739.5C 817.308,740.025 816.808,740.692 816.5,741.5C 817.833,742.167 819.167,742.833 820.5,743.5C 819.624,744.251 818.624,744.751 817.5,745C 817.957,745.414 818.291,745.914 818.5,746.5C 816.167,746.5 813.833,746.5 811.5,746.5C 812.791,747.825 814.124,749.158 815.5,750.5C 819.151,749.675 819.318,750.341 816,752.5C 812.9,750.12 809.566,749.454 806,750.5C 805.393,755.92 806.726,756.587 810,752.5C 810.49,753.793 810.657,755.127 810.5,756.5C 809.325,756.281 808.325,756.614 807.5,757.5C 808.689,758.429 810.022,758.762 811.5,758.5C 811.491,756.692 811.991,755.025 813,753.5C 814.03,759.796 814.697,759.796 815,753.5C 815.333,753.833 815.667,754.167 816,754.5C 817.074,753.382 818.24,752.382 819.5,751.5C 820.833,750.167 820.833,748.833 819.5,747.5C 819.887,746.28 820.72,745.613 822,745.5C 823.811,746.424 823.645,747.257 821.5,748C 822.554,749.388 822.72,750.888 822,752.5C 820.579,754.405 819.412,756.405 818.5,758.5 Z"/></g>
<g><path style="opacity:1" fill="#1c264c" d="M 714.5,730.5 C 713.547,732.61 711.881,733.777 709.5,734C 695.5,734.333 681.5,734.667 667.5,735C 666.72,736.073 666.887,737.24 668,738.5C 670.042,741.94 672.542,744.94 675.5,747.5C 682.5,756.833 689.5,766.167 696.5,775.5C 693.161,772.827 690.161,769.827 687.5,766.5C 681,758.167 674.5,749.833 668,741.5C 666.293,739.091 665.46,736.425 665.5,733.5C 680.802,732.714 696.135,732.214 711.5,732C 712.244,730.961 713.244,730.461 714.5,730.5 Z"/></g>
<g><path style="opacity:1" fill="#20254d" d="M 791.5,732.5 C 801.889,732.13 812.223,732.63 822.5,734C 821.552,734.483 820.552,734.649 819.5,734.5C 810.494,734.666 801.494,734.5 792.5,734C 791.944,733.617 791.611,733.117 791.5,732.5 Z"/></g>
<g><path style="opacity:1" fill="#ecc838" d="M 715.5,566.5 C 716.268,567.263 716.768,568.263 717,569.5C 717.869,617.497 718.369,665.497 718.5,713.5C 718.666,718.511 718.499,723.511 718,728.5C 716.878,730.624 715.378,732.457 713.5,734C 706.589,735.384 699.589,735.884 692.5,735.5C 684.472,735.169 676.472,735.502 668.5,736.5C 671.104,740.054 673.438,743.721 675.5,747.5C 672.542,744.94 670.042,741.94 668,738.5C 666.887,737.24 666.72,736.073 667.5,735C 681.5,734.667 695.5,734.333 709.5,734C 711.881,733.777 713.547,732.61 714.5,730.5C 715.117,730.389 715.617,730.056 716,729.5C 716.5,699.502 716.667,669.502 716.5,639.5C 716.794,615.141 716.461,590.807 715.5,566.5 Z"/></g>
<g><path style="opacity:1" fill="#020d54" d="M 716.5,639.5 C 716.667,669.502 716.5,699.502 716,729.5C 715.617,730.056 715.117,730.389 714.5,730.5C 715.614,697.523 715.781,664.523 715,631.5C 715.183,634.365 715.683,637.031 716.5,639.5 Z"/></g>
<g><path style="opacity:1" fill="#f6b83f" d="M 692.5,735.5 C 693.058,737.823 693.725,740.157 694.5,742.5C 695.736,743.246 697.07,743.579 698.5,743.5C 698.5,744.5 698.5,745.5 698.5,746.5C 699.552,746.351 700.552,746.517 701.5,747C 700.549,747.718 700.383,748.551 701,749.5C 702,748.167 703,748.167 704,749.5C 706.317,752.12 707.984,755.12 709,758.5C 709.015,756.209 709.182,754.042 709.5,752C 707.117,751.935 706.45,751.102 707.5,749.5C 706.5,748.833 705.5,748.167 704.5,747.5C 705.522,746.646 706.355,745.646 707,744.5C 707.414,744.957 707.914,745.291 708.5,745.5C 709.968,743.667 711.635,743.334 713.5,744.5C 712.5,745.167 711.5,745.833 710.5,746.5C 711.391,747.59 712.391,747.59 713.5,746.5C 714.298,748.078 714.798,749.744 715,751.5C 718.474,750.072 718.974,750.572 716.5,753C 718.396,754.065 718.563,754.898 717,755.5C 714.149,754.004 712.649,751.671 712.5,748.5C 708.029,748.672 707.696,749.506 711.5,751C 711.043,751.414 710.709,751.914 710.5,752.5C 711.737,753.281 712.737,754.281 713.5,755.5C 712.209,757.59 712.876,758.924 715.5,759.5C 716.874,758.289 718.374,757.289 720,756.5C 720.5,756.833 721,757.167 721.5,757.5C 720.833,758.167 720.167,758.833 719.5,759.5C 721.113,759.032 722.613,759.699 724,761.5C 724.315,762.908 723.982,764.241 723,765.5C 721.078,763.55 718.912,761.884 716.5,760.5C 715.167,761.5 715.167,762.5 716.5,763.5C 718.529,762.371 718.863,762.871 717.5,765C 718.793,765.49 720.127,765.657 721.5,765.5C 721.649,766.552 721.483,767.552 721,768.5C 720.002,765.972 719.169,765.972 718.5,768.5C 719.046,770.135 719.38,771.801 719.5,773.5C 718.07,773.421 716.736,773.754 715.5,774.5C 715.167,774 714.833,773.5 714.5,773C 715.01,771.174 715.844,771.007 717,772.5C 718.241,766.546 716.741,766.046 712.5,771C 713.615,772.235 713.615,773.402 712.5,774.5C 717.96,776.748 717.627,777.915 711.5,778C 712.522,780.316 714.022,780.816 716,779.5C 716.308,780.308 716.808,780.975 717.5,781.5C 719.436,779.022 721.436,779.022 723.5,781.5C 722.64,783.931 720.973,785.264 718.5,785.5C 718.5,786.5 718.5,787.5 718.5,788.5C 720.604,788.799 722.604,788.466 724.5,787.5C 724.166,785.665 724.166,783.998 724.5,782.5C 726.611,781.152 728.445,781.485 730,783.5C 730.712,781.305 730.045,779.638 728,778.5C 725.245,779.337 722.745,779.337 720.5,778.5C 720.167,778 719.833,777.5 719.5,777C 720.739,772.102 723.739,770.268 728.5,771.5C 727.052,772.354 725.719,773.354 724.5,774.5C 723.914,774.291 723.414,773.957 723,773.5C 722.655,775.201 723.322,776.534 725,777.5C 727.323,772.567 729.157,772.567 730.5,777.5C 731.325,778.386 732.325,778.719 733.5,778.5C 733.714,780.144 733.38,781.644 732.5,783C 733,783.5 733.5,784 734,784.5C 735.009,782.975 735.509,781.308 735.5,779.5C 736.873,779.657 738.207,779.49 739.5,779C 737.922,777.86 736.256,777.36 734.5,777.5C 736.005,776.158 736.672,774.492 736.5,772.5C 730.698,773.489 729.198,771.156 732,765.5C 732.87,766.108 733.37,766.941 733.5,768C 732.21,771.205 733.21,772.038 736.5,770.5C 737.318,772.108 737.985,773.775 738.5,775.5C 739.325,776.386 740.325,776.719 741.5,776.5C 741.579,777.93 741.246,779.264 740.5,780.5C 737.833,781.833 735.833,783.833 734.5,786.5C 732.902,785.515 731.235,785.349 729.5,786C 730.167,786.333 730.833,786.667 731.5,787C 728.001,788.665 724.334,789.998 720.5,791C 720.957,791.414 721.291,791.914 721.5,792.5C 720.101,794.605 718.434,796.438 716.5,798C 717,798.5 717.5,799 718,799.5C 719.694,797.344 721.527,797.511 723.5,800C 722.692,800.308 722.025,800.808 721.5,801.5C 722.348,803.283 723.681,803.783 725.5,803C 726.423,800.959 726.756,798.792 726.5,796.5C 725.127,796.657 723.793,796.49 722.5,796C 723.973,795.29 724.64,794.124 724.5,792.5C 725.675,792.281 726.675,792.614 727.5,793.5C 727.976,796.201 728.976,796.701 730.5,795C 727.191,791.576 727.857,789.742 732.5,789.5C 732.698,791.575 732.865,793.575 733,795.5C 731.281,797.737 729.448,798.904 727.5,799C 727.833,799.5 728.167,800 728.5,800.5C 732.589,799.647 735.922,800.98 738.5,804.5C 735.223,805.479 734.89,806.813 737.5,808.5C 738.665,807.509 739.832,806.509 741,805.5C 742.162,806.187 743.328,806.353 744.5,806C 742.066,803.122 739.066,801.288 735.5,800.5C 734.851,798.523 734.851,796.69 735.5,795C 732.803,788.199 734.803,786.365 741.5,789.5C 740.271,790.281 738.938,790.781 737.5,791C 740.293,793.734 739.959,794.734 736.5,794C 737.212,795.425 737.379,796.925 737,798.5C 741.628,794.001 745.962,794.001 750,798.5C 752.381,795.284 755.214,792.617 758.5,790.5C 758.833,790.833 759.167,791.167 759.5,791.5C 758.335,792.584 757.002,793.417 755.5,794C 757.974,795.421 760.141,797.254 762,799.5C 764.453,800.493 766.953,800.66 769.5,800C 768.667,799.167 767.833,798.333 767,797.5C 765.186,798.76 763.353,798.76 761.5,797.5C 765.663,795.809 769.329,796.475 772.5,799.5C 772.45,798.152 772.783,796.652 773.5,795C 772.692,794.692 772.025,794.192 771.5,793.5C 772.833,792.833 774.167,792.167 775.5,791.5C 774.675,790.614 773.675,790.281 772.5,790.5C 772.657,789.127 772.49,787.793 772,786.5C 769.641,789.038 768.141,788.371 767.5,784.5C 766.914,784.709 766.414,785.043 766,785.5C 765.751,784.376 765.251,783.376 764.5,782.5C 763.866,784.567 762.866,786.4 761.5,788C 759.865,788.54 758.532,788.04 757.5,786.5C 756.479,788.619 754.979,790.286 753,791.5C 749.864,791.545 746.864,791.212 744,790.5C 743.751,791.624 743.251,792.624 742.5,793.5C 742.167,793.167 741.833,792.833 741.5,792.5C 742.329,789.454 744.329,787.787 747.5,787.5C 746.934,786.709 746.101,786.709 745,787.5C 742.019,786.045 741.852,784.378 744.5,782.5C 742.471,779.963 742.804,777.463 745.5,775C 740.358,776.355 738.025,774.189 738.5,768.5C 737.022,768.762 735.689,768.429 734.5,767.5C 736.707,766.365 739.04,765.699 741.5,765.5C 741.739,767.467 741.406,769.301 740.5,771C 741.047,771.925 741.713,772.758 742.5,773.5C 743.318,771.892 743.985,770.225 744.5,768.5C 743.593,766.744 743.593,764.911 744.5,763C 744.245,761.674 743.578,760.674 742.5,760C 743.579,759.044 744.745,758.211 746,757.5C 747.583,759.699 747.75,762.032 746.5,764.5C 748.467,764.261 750.301,764.594 752,765.5C 752.249,764.376 752.749,763.376 753.5,762.5C 753.833,762.833 754.167,763.167 754.5,763.5C 754.167,764.833 753.833,766.167 753.5,767.5C 751.629,766.233 749.796,766.233 748,767.5C 747.692,766.692 747.192,766.025 746.5,765.5C 745.107,767.674 745.44,769.507 747.5,771C 745.291,771.957 745.457,773.124 748,774.5C 749.493,772.44 751.326,772.107 753.5,773.5C 748.279,774.624 748.279,775.458 753.5,776C 752.313,777.019 751.313,778.186 750.5,779.5C 753.229,781.367 752.896,782.367 749.5,782.5C 749.649,781.448 749.483,780.448 749,779.5C 748.355,780.646 747.522,781.646 746.5,782.5C 747.325,783.386 748.325,783.719 749.5,783.5C 749.281,784.675 749.614,785.675 750.5,786.5C 751.853,785.315 753.02,783.981 754,782.5C 754.711,784.367 754.211,785.867 752.5,787C 753.448,787.483 754.448,787.649 755.5,787.5C 755.178,785.278 755.845,783.444 757.5,782C 759.586,781.373 759.919,781.873 758.5,783.5C 759.628,784.262 760.795,784.929 762,785.5C 762.492,784.451 762.326,783.451 761.5,782.5C 764.177,780.736 763.844,779.57 760.5,779C 760.833,778.667 761.167,778.333 761.5,778C 759.901,776.934 758.901,775.434 758.5,773.5C 760.43,771.86 761.263,769.86 761,767.5C 759.249,766.191 757.749,766.525 756.5,768.5C 755.319,766.865 755.319,765.198 756.5,763.5C 760.375,762.514 760.375,761.347 756.5,760C 757.711,759.107 757.711,758.274 756.5,757.5C 754.415,758.541 752.748,760.041 751.5,762C 750.833,762.667 750.167,762.667 749.5,762C 748.446,760.612 748.28,759.112 749,757.5C 750.087,759.932 750.587,759.598 750.5,756.5C 744.656,756.02 744.322,754.853 749.5,753C 749.043,752.586 748.709,752.086 748.5,751.5C 749.934,750.77 751.1,749.77 752,748.5C 752.49,749.793 752.657,751.127 752.5,752.5C 753.873,752.343 755.207,752.51 756.5,753C 756.727,754.135 757.06,755.302 757.5,756.5C 759.228,752.985 760.561,749.318 761.5,745.5C 764.167,746.5 764.167,747.5 761.5,748.5C 762.711,749.72 762.711,750.887 761.5,752C 762,752.5 762.5,753 763,753.5C 763.895,751.196 764.729,748.862 765.5,746.5C 766.167,747.833 766.833,749.167 767.5,750.5C 768.833,748.5 770.167,746.5 771.5,744.5C 772.5,744.833 773.167,745.5 773.5,746.5C 771.585,748.071 770.585,750.071 770.5,752.5C 768.712,752.215 767.045,752.548 765.5,753.5C 767.828,754.824 770.161,756.157 772.5,757.5C 774.224,754.947 775.724,752.28 777,749.5C 777.893,748.289 778.726,748.289 779.5,749.5C 779.03,751.774 778.03,753.774 776.5,755.5C 777.641,756.425 777.641,757.259 776.5,758C 777.167,758.667 777.833,759.333 778.5,760C 776.193,760.271 775.026,759.105 775,756.5C 774.506,758.134 774.34,759.801 774.5,761.5C 775.5,761.5 776.5,761.5 777.5,761.5C 777.312,763.103 777.812,764.437 779,765.5C 779.376,762.99 780.21,760.657 781.5,758.5C 782.722,760.978 784.722,761.978 787.5,761.5C 789.195,765.264 790.528,769.264 791.5,773.5C 790.325,773.281 789.325,773.614 788.5,774.5C 790.465,775.292 792.465,775.959 794.5,776.5C 798.008,773.934 798.341,774.434 795.5,778C 792.843,778.175 790.176,778.008 787.5,777.5C 787.48,779.143 788.147,780.476 789.5,781.5C 788.902,782.795 788.402,784.128 788,785.5C 787.767,783.22 786.934,781.22 785.5,779.5C 786.074,777.941 786.74,776.441 787.5,775C 786.269,773.817 786.269,772.651 787.5,771.5C 788.904,772.999 789.57,772.666 789.5,770.5C 788.021,770.048 786.854,768.715 786,766.5C 784.957,768.701 784.123,771.034 783.5,773.5C 781.706,772.444 779.706,772.444 777.5,773.5C 778.684,771.954 779.684,770.287 780.5,768.5C 781.192,769.025 781.692,769.692 782,770.5C 782.781,769.056 782.614,767.723 781.5,766.5C 778.48,768.523 776.146,771.19 774.5,774.5C 772.821,775.782 770.987,776.782 769,777.5C 769.263,776.049 769.096,774.716 768.5,773.5C 767.808,774.025 767.308,774.692 767,775.5C 766.275,773.842 765.108,773.342 763.5,774C 764.833,775.667 766.167,777.333 767.5,779C 768.449,779.617 769.282,779.451 770,778.5C 770.308,779.308 770.808,779.975 771.5,780.5C 772.711,779.726 772.711,778.893 771.5,778C 774.105,776.979 776.772,776.145 779.5,775.5C 780.5,775.833 781.167,776.5 781.5,777.5C 780.478,778.354 779.645,779.354 779,780.5C 777.89,778.963 776.39,778.297 774.5,778.5C 774.33,779.822 774.663,780.989 775.5,782C 773.101,782.711 770.768,782.544 768.5,781.5C 767.304,781.846 767.304,782.346 768.5,783C 770.425,784.595 772.425,784.762 774.5,783.5C 778.94,787.89 781.44,786.89 782,780.5C 782.667,781.833 783.333,781.833 784,780.5C 784.492,781.549 784.326,782.549 783.5,783.5C 783.846,784.696 784.346,784.696 785,783.5C 785.483,784.448 785.649,785.448 785.5,786.5C 783.692,786.491 782.025,786.991 780.5,788C 784.915,788.823 785.248,789.99 781.5,791.5C 781.667,791.833 781.833,792.167 782,792.5C 784.019,792.568 785.853,791.568 787.5,789.5C 788.275,791.475 789.609,792.309 791.5,792C 788.741,789.516 789.074,788.35 792.5,788.5C 792.34,786.801 792.506,785.134 793,783.5C 795.53,784.415 797.696,784.415 799.5,783.5C 784.425,802.568 769.759,821.901 755.5,841.5C 754.102,843.109 752.435,843.942 750.5,844C 742.333,833.167 734.167,822.333 726,811.5C 724.629,809.959 723.129,808.625 721.5,807.5C 713.156,796.794 704.822,786.128 696.5,775.5C 689.5,766.167 682.5,756.833 675.5,747.5C 673.438,743.721 671.104,740.054 668.5,736.5C 676.472,735.502 684.472,735.169 692.5,735.5 Z"/></g>
<g><path style="opacity:1" fill="#17224d" d="M 721.5,807.5 C 723.129,808.625 724.629,809.959 726,811.5C 734.167,822.333 742.333,833.167 750.5,844C 752.435,843.942 754.102,843.109 755.5,841.5C 753.38,846.396 750.547,846.729 747,842.5C 737.992,831.129 729.492,819.462 721.5,807.5 Z"/></g>
</svg>
