<?xml version="1.0" encoding="UTF-8"?>
<!DOCTYPE svg PUBLIC "-//W3C//DTD SVG 1.1//EN" "http://www.w3.org/Graphics/SVG/1.1/DTD/svg11.dtd">
<svg xmlns="http://www.w3.org/2000/svg" version="1.1" width="1024px" height="1024px" style="shape-rendering:geometricPrecision; text-rendering:geometricPrecision; image-rendering:optimizeQuality; fill-rule:evenodd; clip-rule:evenodd" xmlns:xlink="http://www.w3.org/1999/xlink">
<g><path style="opacity:0.004" fill="#133c65" d="M 651.5,181.5 C 652.833,182.167 652.833,182.167 651.5,181.5 Z"/></g>
<g><path style="opacity:0.008" fill="#163c68" d="M 128.5,183.5 C 129.833,184.167 129.833,184.167 128.5,183.5 Z"/></g>
<g><path style="opacity:0.004" fill="#143e67" d="M 134.5,183.5 C 135.833,184.167 135.833,184.167 134.5,183.5 Z"/></g>
<g><path style="opacity:0.004" fill="#163d68" d="M 136.5,183.5 C 137.833,184.167 137.833,184.167 136.5,183.5 Z"/></g>
<g><path style="opacity:0.01" fill="#163e67" d="M 139.5,184.5 C 140.601,183.402 141.934,183.235 143.5,184C 142.122,185.334 140.789,185.501 139.5,184.5 Z"/></g>
<g><path style="opacity:0.561" fill="#256495" d="M 855.5,184.5 C 621.833,184.333 388.166,184.5 154.5,185C 150.509,185.642 146.509,186.142 142.5,186.5C 143.609,185.71 144.942,185.21 146.5,185C 144.405,184.444 144.238,183.944 146,183.5C 147.462,183.994 148.962,184.327 150.5,184.5C 299.722,183.837 448.889,183.17 598,182.5C 683.931,183.165 769.764,183.832 855.5,184.5 Z"/></g>
<g><path style="opacity:0.008" fill="#153f65" d="M 130.5,184.5 C 131.833,185.167 131.833,185.167 130.5,184.5 Z"/></g>
<g><path style="opacity:0.012" fill="#17416a" d="M 870.5,183.5 C 871.525,183.897 871.692,184.563 871,185.5C 870.536,184.906 870.369,184.239 870.5,183.5 Z"/></g>
<g><path style="opacity:0.999" fill="#0d3a65" d="M 893.5,192.5 C 893.389,193.117 893.056,193.617 892.5,194C 893.91,195.372 895.577,196.205 897.5,196.5C 899.336,198.588 901.669,199.921 904.5,200.5C 905.262,202.262 906.596,203.262 908.5,203.5C 910.46,205.156 912.46,206.823 914.5,208.5C 916.002,211.022 917.335,211.022 918.5,208.5C 919.246,213.008 921.912,216.675 926.5,219.5C 928.794,223.127 931.46,226.461 934.5,229.5C 935.11,231.434 936.11,233.101 937.5,234.5C 938.846,236.537 940.18,238.537 941.5,240.5C 941.5,241.167 941.833,241.5 942.5,241.5C 943.171,245.365 945.171,248.199 948.5,250C 946.641,250.601 946.308,251.434 947.5,252.5C 951.244,261.809 953.577,271.476 954.5,281.5C 953.71,280.391 953.21,279.058 953,277.5C 952.833,278.333 952.667,279.167 952.5,280C 953.49,417.67 953.823,555.17 953.5,692.5C 950.724,712.117 942.724,730.117 929.5,746.5C 925.833,750.833 921.833,754.833 917.5,758.5C 916.395,759.6 915.062,760.267 913.5,760.5C 913.103,759.475 912.437,759.308 911.5,760C 895.644,772.401 877.644,779.735 857.5,782C 837.102,782.035 816.769,782.702 796.5,784C 787.726,788.618 782.059,795.785 779.5,805.5C 779.97,806.463 780.637,806.463 781.5,805.5C 781.5,806.167 781.5,806.833 781.5,807.5C 771.605,822.301 757.605,830.801 739.5,833C 722.661,835.401 705.995,834.568 689.5,830.5C 685.739,828.462 681.739,826.796 677.5,825.5C 674.206,822.844 670.873,820.178 667.5,817.5C 665.689,814.556 663.856,811.556 662,808.5C 660.034,797.722 654.2,790.056 644.5,785.5C 645.552,785.649 646.552,785.483 647.5,785C 645.913,784.138 644.246,783.471 642.5,783C 478.167,782.333 313.833,782.333 149.5,783C 313.001,783.167 476.334,783.667 639.5,784.5C 475.833,784.667 312.166,784.5 148.5,784C 145.173,783.39 141.839,782.89 138.5,782.5C 136.401,781.388 134.067,780.721 131.5,780.5C 126.015,777.93 120.348,775.597 114.5,773.5C 114.5,772.833 114.167,772.5 113.5,772.5C 108.511,769.094 104.178,766.261 100.5,764C 97.4025,763.062 95.0691,761.228 93.5,758.5C 91.1667,755.5 88.5,752.833 85.5,750.5C 85.1667,749.5 84.5,748.833 83.5,748.5C 83.1667,747.5 82.5,746.833 81.5,746.5C 81.2624,744.596 80.2624,743.262 78.5,742.5C 78.6716,741.508 78.3382,740.842 77.5,740.5C 76.0664,737.953 74.3998,735.619 72.5,733.5C 72.573,731.973 71.9063,730.973 70.5,730.5C 70.539,727.911 69.539,725.911 67.5,724.5C 67.6716,723.508 67.3382,722.842 66.5,722.5C 66.7373,721.209 66.404,720.209 65.5,719.5C 65.6716,718.508 65.3382,717.842 64.5,717.5C 63.5919,713.089 61.9252,709.089 59.5,705.5C 60.0967,705.265 60.4301,704.765 60.5,704C 59.7101,700.644 58.7101,697.477 57.5,694.5C 57.0843,689.507 56.7509,684.507 56.5,679.5C 57.8333,613.67 58.5,547.503 58.5,481C 58.3333,414.833 58.1667,348.667 58,282.5C 57.6667,286.833 57.3333,291.167 57,295.5C 56.5,422.5 56.3333,549.5 56.5,676.5C 55.1867,544.66 55.1867,412.66 56.5,280.5C 57.6874,277.054 58.3541,273.387 58.5,269.5C 60.2035,265.383 61.5368,261.049 62.5,256.5C 64.0198,254.11 65.0198,251.443 65.5,248.5C 68.0841,244.334 70.4174,240 72.5,235.5C 75.2676,232.158 77.9343,228.658 80.5,225C 80.1667,224.667 79.8333,224.333 79.5,224C 82.923,221.747 85.923,218.914 88.5,215.5C 90.9635,213.539 93.2968,211.372 95.5,209C 94.8333,208.667 94.1667,208.333 93.5,208C 98.4419,206.559 102.775,204.059 106.5,200.5C 109.923,199.39 112.256,197.724 113.5,195.5C 113.56,196.043 113.893,196.376 114.5,196.5C 116.565,195.143 118.565,193.81 120.5,192.5C 123.443,192.02 126.11,191.02 128.5,189.5C 133.079,188.085 137.745,187.085 142.5,186.5C 146.509,186.142 150.509,185.642 154.5,185C 388.166,184.5 621.833,184.333 855.5,184.5C 866.847,184.751 877.847,187.418 888.5,192.5C 890.199,191.185 891.865,191.185 893.5,192.5 Z M 865.5,235.5 C 868.649,235.415 871.316,236.415 873.5,238.5C 876.992,239.41 879.992,241.076 882.5,243.5C 885.473,244.81 887.807,246.81 889.5,249.5C 891.048,249.821 891.715,250.821 891.5,252.5C 893.179,252.285 894.179,252.952 894.5,254.5C 896.262,255.262 897.262,256.596 897.5,258.5C 896.833,258.5 896.5,258.833 896.5,259.5C 895.957,259.56 895.624,259.893 895.5,260.5C 896.257,261.773 896.923,261.773 897.5,260.5C 898.167,260.5 898.5,260.167 898.5,259.5C 898.833,259.5 899.167,259.5 899.5,259.5C 902.079,264.327 904.412,269.327 906.5,274.5C 906.137,275.183 905.804,275.85 905.5,276.5C 906.497,276.47 907.164,276.97 907.5,278C 907.99,280.346 908.657,282.513 909.5,284.5C 909.5,288.833 909.5,293.167 909.5,297.5C 907.549,297.227 906.049,297.893 905,299.5C 904.667,298.833 904.333,298.167 904,297.5C 902,300.167 900,300.167 898,297.5C 897.667,298.167 897.333,298.833 897,299.5C 894.373,299.065 891.54,299.065 888.5,299.5C 885.713,299.426 883.213,298.76 881,297.5C 879.82,298.684 878.32,299.351 876.5,299.5C 867.273,299.395 858.107,299.395 849,299.5C 848.667,298.833 848.333,298.167 848,297.5C 847.326,298.578 846.326,299.245 845,299.5C 829.338,298.825 813.338,298.825 797,299.5C 792.411,299.464 788.077,298.798 784,297.5C 783.692,298.308 783.192,298.975 782.5,299.5C 755.974,299.379 729.641,299.046 703.5,298.5C 702.833,297.167 702.167,297.167 701.5,298.5C 699.602,297.904 697.935,297.904 696.5,298.5C 629.702,299.505 563.036,299.505 496.5,298.5C 423.276,299.177 350.276,299.177 277.5,298.5C 275.454,299.965 273.62,299.632 272,297.5C 269.106,298.78 265.939,299.446 262.5,299.5C 210.153,298.364 157.486,298.197 104.5,299C 105.167,298.667 105.833,298.333 106.5,298C 104.593,293.482 103.926,288.648 104.5,283.5C 106.057,274.135 109.724,265.801 115.5,258.5C 115.738,256.596 116.738,255.262 118.5,254.5C 119.833,252.5 121.5,250.833 123.5,249.5C 124.078,250.547 124.744,250.38 125.5,249C 125.272,248.601 124.938,248.435 124.5,248.5C 124.833,247.5 125.5,246.833 126.5,246.5C 128.147,244.674 130.147,243.34 132.5,242.5C 133.574,241.115 134.907,239.949 136.5,239C 140.923,237.115 145.256,235.281 149.5,233.5C 154.074,233.086 158.574,232.419 163,231.5C 390.03,231.89 617.03,231.89 844,231.5C 848.749,232.305 853.582,232.805 858.5,233C 861.104,233.39 863.438,234.224 865.5,235.5 Z M 104.5,348.5 C 105.482,349.141 106.482,349.807 107.5,350.5C 108.167,349.833 108.833,349.167 109.5,348.5C 110.107,348.624 110.44,348.957 110.5,349.5C 110.833,349.5 111.167,349.5 111.5,349.5C 114.075,349.792 116.909,350.459 120,351.5C 121.399,350.773 122.899,350.273 124.5,350C 123.112,349.111 123.278,348.611 125,348.5C 126.459,348.808 127.626,349.475 128.5,350.5C 129.822,350.33 130.989,350.663 132,351.5C 132.483,350.552 132.649,349.552 132.5,348.5C 133.873,348.343 135.207,348.51 136.5,349C 135.549,349.718 135.383,350.551 136,351.5C 138.74,350.718 141.574,350.218 144.5,350C 143.112,349.111 143.278,348.611 145,348.5C 145.381,349.482 146.214,350.148 147.5,350.5C 148.741,349.963 149.908,349.296 151,348.5C 152.762,348.944 152.595,349.444 150.5,350C 153.13,350.845 155.464,350.345 157.5,348.5C 158.86,349.18 160.193,349.847 161.5,350.5C 161.833,351.833 162.167,351.833 162.5,350.5C 163.825,349.047 164.658,349.381 165,351.5C 165.075,349.065 165.908,348.398 167.5,349.5C 167.833,352.167 168.167,352.167 168.5,349.5C 170.068,350.473 171.735,350.64 173.5,350C 173.167,349.667 172.833,349.333 172.5,349C 174.5,348.333 176.5,348.333 178.5,349C 174.81,349.424 174.643,350.258 178,351.5C 180.415,350.986 181.749,349.986 182,348.5C 182.546,349.289 183.213,350.289 184,351.5C 185.622,350.901 187.122,350.234 188.5,349.5C 189.117,349.389 189.617,349.056 190,348.5C 190.851,351.612 192.017,351.946 193.5,349.5C 195.061,350.347 196.561,350.014 198,348.5C 198.089,351.849 199.256,352.349 201.5,350C 199.405,349.444 199.238,348.944 201,348.5C 202.911,351.023 204.745,351.023 206.5,348.5C 206.833,349.167 207.167,349.833 207.5,350.5C 208.183,350.137 208.85,349.804 209.5,349.5C 212.125,350.07 214.125,350.07 215.5,349.5C 217.389,350.742 219.389,350.742 221.5,349.5C 223.23,350.912 224.73,350.578 226,348.5C 229.549,351.402 233.382,351.902 237.5,350C 236.833,349.667 236.167,349.333 235.5,349C 237.929,348.297 240.262,348.463 242.5,349.5C 243.348,350.625 244.348,350.625 245.5,349.5C 247.863,347.998 250.03,348.332 252,350.5C 252.333,349.833 252.667,349.167 253,348.5C 254.333,349.167 255.667,349.833 257,350.5C 257.626,348.009 258.459,348.009 259.5,350.5C 260.086,350.291 260.586,349.957 261,349.5C 263.333,350.167 265.667,350.833 268,351.5C 268.915,350.672 269.581,349.672 270,348.5C 270.991,349.939 272.324,350.939 274,351.5C 276,350.167 278,350.167 280,351.5C 282.204,348.798 285.037,347.965 288.5,349C 286.5,349.333 284.5,349.667 282.5,350C 283.667,350.167 284.833,350.333 286,350.5C 288.663,349.589 291.163,349.256 293.5,349.5C 295.167,350.833 296.833,350.833 298.5,349.5C 299.919,348.549 301.585,348.216 303.5,348.5C 303.351,352.001 304.351,352.334 306.5,349.5C 307.151,350.091 307.818,350.757 308.5,351.5C 308.669,350.603 309.002,349.603 309.5,348.5C 310.21,351.653 311.21,351.987 312.5,349.5C 312.833,349.5 313.167,349.5 313.5,349.5C 313.833,350.833 314.167,350.833 314.5,349.5C 315.825,350.953 316.658,350.619 317,348.5C 318,349.5 319,350.5 320,351.5C 320.777,349.785 322.11,348.785 324,348.5C 325.425,349.991 327.759,350.991 331,351.5C 331.354,349.193 332.354,348.859 334,350.5C 334.95,349.978 335.784,349.311 336.5,348.5C 337.696,348.846 337.696,349.346 336.5,350C 337.333,350.167 338.167,350.333 339,350.5C 340.894,350.461 341.894,349.794 342,348.5C 343.834,350.756 345.501,350.756 347,348.5C 347.333,349.167 347.667,349.833 348,350.5C 349.011,349.663 350.178,349.33 351.5,349.5C 351.833,350.833 352.167,350.833 352.5,349.5C 355.299,351.062 356.966,350.729 357.5,348.5C 359.727,351.971 362.394,352.304 365.5,349.5C 368.584,350.993 371.584,350.66 374.5,348.5C 375.696,348.846 375.696,349.346 374.5,350C 378.421,350.203 382.255,350.703 386,351.5C 388.47,349.269 390.803,349.269 393,351.5C 394.113,350.289 395.28,350.289 396.5,351.5C 397.604,350.369 397.271,349.535 395.5,349C 397.822,349.131 399.988,349.965 402,351.5C 404.317,348.903 407.15,348.07 410.5,349C 409.167,349.333 407.833,349.667 406.5,350C 405.304,350.654 405.304,351.154 406.5,351.5C 409.4,351.174 412.4,350.508 415.5,349.5C 418.009,351.157 420.175,350.824 422,348.5C 422.333,349.167 422.667,349.833 423,350.5C 425.157,347.922 426.323,347.922 426.5,350.5C 427.532,348.96 428.865,348.46 430.5,349C 428.405,349.556 428.238,350.056 430,350.5C 430.95,349.978 431.784,349.311 432.5,348.5C 433.696,348.846 433.696,349.346 432.5,350C 434.479,350.684 436.146,350.184 437.5,348.5C 438.598,349.615 439.765,349.615 441,348.5C 442.762,348.944 442.595,349.444 440.5,350C 442.701,350.825 444.534,350.325 446,348.5C 447.53,349.636 448.863,350.636 450,351.5C 451.314,350.687 452.481,349.687 453.5,348.5C 454.696,348.846 454.696,349.346 453.5,350C 455.387,350.78 457.054,350.613 458.5,349.5C 459.787,350.528 460.954,350.195 462,348.5C 464.041,350.308 466.207,350.974 468.5,350.5C 469.883,347.924 470.717,348.258 471,351.5C 474.504,350.847 477.171,349.847 479,348.5C 480.167,348.667 481.333,348.833 482.5,349C 480.833,349.333 479.167,349.667 477.5,350C 481.451,350.388 485.117,350.221 488.5,349.5C 489.348,350.625 490.348,350.625 491.5,349.5C 494.609,348.905 497.609,348.905 500.5,349.5C 500.833,349.5 501.167,349.5 501.5,349.5C 502.705,348.314 504.039,348.314 505.5,349.5C 509.048,349.805 512.048,349.805 514.5,349.5C 515.209,350.404 516.209,350.737 517.5,350.5C 517.833,351.833 518.167,351.833 518.5,350.5C 519.117,350.611 519.617,350.944 520,351.5C 521.734,350.751 523.567,350.251 525.5,350C 524.304,349.346 524.304,348.846 525.5,348.5C 526.251,349.376 526.751,350.376 527,351.5C 528.851,349.219 530.518,349.219 532,351.5C 534.893,351.047 537.893,351.047 541,351.5C 541.617,350.551 541.451,349.718 540.5,349C 541.577,348.53 542.577,348.697 543.5,349.5C 543.369,350.239 543.536,350.906 544,351.5C 545.734,350.751 547.567,350.251 549.5,350C 548.304,349.346 548.304,348.846 549.5,348.5C 550.249,350.012 551.416,351.012 553,351.5C 555.797,351.178 558.297,350.178 560.5,348.5C 561.107,348.624 561.44,348.957 561.5,349.5C 563.424,349.424 565.424,349.424 567.5,349.5C 567.833,349.5 568.167,349.5 568.5,349.5C 568.833,350.833 569.167,350.833 569.5,349.5C 569.833,349.5 570.167,349.5 570.5,349.5C 571.097,348.861 571.93,348.528 573,348.5C 579.232,351.313 585.399,351.647 591.5,349.5C 592.167,350.833 592.833,350.833 593.5,349.5C 595.138,350.914 596.472,350.58 597.5,348.5C 598.807,349.816 600.307,350.816 602,351.5C 607.324,350.616 612.491,350.283 617.5,350.5C 618.873,350.657 620.207,350.49 621.5,350C 619.405,349.444 619.238,348.944 621,348.5C 622.261,348.759 623.261,349.426 624,350.5C 625.016,349.366 625.683,349.699 626,351.5C 626.333,350.833 626.667,350.167 627,349.5C 629.677,350.214 632.511,350.547 635.5,350.5C 636.833,347.833 638.167,347.833 639.5,350.5C 639.489,349.559 639.989,348.892 641,348.5C 642.722,348.611 642.888,349.111 641.5,350C 644.039,350.796 646.372,350.629 648.5,349.5C 650.135,350.815 651.801,350.815 653.5,349.5C 655.105,351.879 656.438,351.879 657.5,349.5C 659.03,350.067 660.53,350.733 662,351.5C 662.464,350.906 662.631,350.239 662.5,349.5C 663.222,349.918 663.722,350.584 664,351.5C 664.601,349.641 665.434,349.308 666.5,350.5C 669.394,350.958 671.894,350.291 674,348.5C 675.688,350.045 677.688,351.045 680,351.5C 680.667,350.833 681.333,350.167 682,349.5C 683.145,350.684 684.312,350.684 685.5,349.5C 685.735,348.903 686.235,348.57 687,348.5C 688.22,349.388 689.553,350.055 691,350.5C 692.894,350.461 693.894,349.794 694,348.5C 695.722,348.611 695.888,349.111 694.5,350C 698.089,350.207 701.589,350.707 705,351.5C 707.415,350.986 708.749,349.986 709,348.5C 711.48,351.73 714.313,351.73 717.5,348.5C 721.103,350.185 724.937,351.185 729,351.5C 730.892,351.223 732.225,350.223 733,348.5C 734,349.833 735,349.833 736,348.5C 736.601,350.359 737.434,350.692 738.5,349.5C 738.833,349.5 739.167,349.5 739.5,349.5C 740.5,348.167 741.5,348.167 742.5,349.5C 742.833,349.5 743.167,349.5 743.5,349.5C 744.566,350.692 745.399,350.359 746,348.5C 747.333,351.167 748.667,351.167 750,348.5C 750.667,351.167 751.333,351.167 752,348.5C 752.667,351.167 753.333,351.167 754,348.5C 755.698,349.733 757.698,350.4 760,350.5C 761.833,350.333 763.667,350.167 765.5,350C 764.304,349.346 764.304,348.846 765.5,348.5C 766.192,349.025 766.692,349.692 767,350.5C 769.383,349.234 772.05,348.568 775,348.5C 778.154,348.651 781.154,349.317 784,350.5C 784.945,350.095 785.612,349.428 786,348.5C 786.278,349.416 786.778,350.082 787.5,350.5C 787.833,351.833 788.167,351.833 788.5,350.5C 792.512,350.592 796.012,349.925 799,348.5C 799.765,348.57 800.265,348.903 800.5,349.5C 801.583,349.539 802.583,349.873 803.5,350.5C 804.89,348.797 806.39,348.13 808,348.5C 810.386,350.091 813.053,351.091 816,351.5C 817.302,350.915 818.469,350.249 819.5,349.5C 820.15,349.196 820.817,348.863 821.5,348.5C 821.833,349.167 822.167,349.833 822.5,350.5C 824.167,347.833 825.833,347.833 827.5,350.5C 828.696,350.154 828.696,349.654 827.5,349C 830.167,348.333 832.833,348.333 835.5,349C 834.304,349.654 834.304,350.154 835.5,350.5C 836.478,350.023 837.311,349.357 838,348.5C 838.333,349.167 838.667,349.833 839,350.5C 839.725,348.842 840.892,348.342 842.5,349C 840.071,349.451 839.904,350.285 842,351.5C 844.629,351.072 846.962,350.072 849,348.5C 850,349.5 851,350.5 852,351.5C 854.74,350.718 857.574,350.218 860.5,350C 859.5,349.667 858.5,349.333 857.5,349C 859.667,348.833 861.833,348.667 864,348.5C 866.625,348.581 868.959,349.248 871,350.5C 871.725,348.842 872.892,348.342 874.5,349C 873.549,349.718 873.383,350.551 874,351.5C 875.333,350.167 876.667,350.167 878,351.5C 878.807,347.551 879.307,347.551 879.5,351.5C 882.024,351.571 884.024,350.571 885.5,348.5C 886.216,349.311 887.05,349.978 888,350.5C 889.44,349.852 890.94,349.519 892.5,349.5C 893.952,350.713 895.286,350.38 896.5,348.5C 897.532,350.04 898.865,350.54 900.5,350C 898.065,348.997 898.398,348.497 901.5,348.5C 904.602,348.497 904.935,348.997 902.5,350C 904.541,351.741 906.708,351.908 909,350.5C 909.832,396.668 909.665,442.668 908.5,488.5C 908.5,488.833 908.5,489.167 908.5,489.5C 909.499,552.664 909.832,615.998 909.5,679.5C 908.992,683.736 907.992,687.736 906.5,691.5C 903.834,701.588 899.501,709.588 893.5,715.5C 892.922,714.453 892.256,714.62 891.5,716C 891.728,716.399 892.062,716.565 892.5,716.5C 891.5,718.167 890.167,719.5 888.5,720.5C 887.922,719.453 887.256,719.62 886.5,721C 886.728,721.399 887.062,721.565 887.5,721.5C 887.027,722.906 886.027,723.573 884.5,723.5C 881.012,727.417 876.679,730.083 871.5,731.5C 867.29,734.219 862.623,735.386 857.5,735C 862.883,726.718 867.216,717.551 870.5,707.5C 877.463,679.128 875.463,651.461 864.5,624.5C 863.508,622.544 862.508,620.544 861.5,618.5C 859.31,615.312 856.976,612.145 854.5,609C 855.833,607.16 855.666,606.66 854,607.5C 848.381,599.972 841.548,592.305 833.5,584.5C 833.167,583.167 832.833,583.167 832.5,584.5C 831.5,584.167 830.833,583.5 830.5,582.5C 829.143,581.41 828.143,580.076 827.5,578.5C 826.833,577.167 826.167,577.167 825.5,578.5C 824.624,578.631 823.957,578.298 823.5,577.5C 825.029,576.237 826.695,575.237 828.5,574.5C 829.514,573.326 830.847,572.66 832.5,572.5C 833.327,573.439 833.994,573.105 834.5,571.5C 836.258,569.113 838.591,567.446 841.5,566.5C 844.952,563.601 848.618,560.934 852.5,558.5C 854.847,556.419 857.18,554.419 859.5,552.5C 861.766,548.966 863.766,545.3 865.5,541.5C 868.429,535.357 868.929,529.024 867,522.5C 864.254,513.064 860.087,504.397 854.5,496.5C 852.122,494.122 850.122,491.455 848.5,488.5C 847.167,487.833 846.167,486.833 845.5,485.5C 837.412,477.742 828.745,470.742 819.5,464.5C 818.833,464.5 818.167,464.5 817.5,464.5C 816.77,463.288 815.77,462.288 814.5,461.5C 812.097,455.03 809.43,448.697 806.5,442.5C 804.478,440.469 802.811,438.135 801.5,435.5C 800.662,435.158 800.328,434.492 800.5,433.5C 799.5,433.167 798.833,432.5 798.5,431.5C 796.833,430.5 795.5,429.167 794.5,427.5C 790.808,424.138 787.141,420.805 783.5,417.5C 782.508,417.672 781.842,417.338 781.5,416.5C 778.131,414.485 774.798,412.485 771.5,410.5C 765.54,408.058 759.207,405.725 752.5,403.5C 746.902,402.873 741.402,401.873 736,400.5C 734.32,401.603 732.82,401.27 731.5,399.5C 723.037,400.355 714.203,400.355 705,399.5C 698.119,401.849 690.952,403.516 683.5,404.5C 678.647,406.34 673.647,408.007 668.5,409.5C 667.486,410.674 666.153,411.34 664.5,411.5C 662.167,412.833 659.833,414.167 657.5,415.5C 473.028,415.233 288.695,415.233 104.5,415.5C 104.5,393.167 104.5,370.833 104.5,348.5 Z M 788.5,350.5 C 788.167,350.5 787.833,350.5 787.5,350.5C 787.843,348.775 788.843,348.275 790.5,349C 789.584,349.278 788.918,349.778 788.5,350.5 Z M 103.5,461.5 C 119.503,461.333 135.503,461.5 151.5,462C 148.5,462.333 145.5,462.667 142.5,463C 146.5,463.667 150.5,463.667 154.5,463C 153.833,462.667 153.167,462.333 152.5,462C 162.833,461.333 173.167,461.333 183.5,462C 180.833,462.333 178.167,462.667 175.5,463C 182.167,463.667 188.833,463.667 195.5,463C 191.833,462.667 188.167,462.333 184.5,462C 333.334,461.167 482.001,461.334 630.5,462.5C 628.716,462.893 627.05,463.559 625.5,464.5C 625.389,463.883 625.056,463.383 624.5,463C 621.5,462.333 618.5,462.333 615.5,463C 617.247,463.352 618.914,463.852 620.5,464.5C 620.5,465.167 620.5,465.833 620.5,466.5C 619.167,466.833 619.167,467.167 620.5,467.5C 618.122,469.878 615.455,471.878 612.5,473.5C 611.922,472.453 611.256,472.62 610.5,474C 610.728,474.399 611.062,474.565 611.5,474.5C 609.5,477.167 607.167,479.5 604.5,481.5C 602.5,484.167 600.167,486.5 597.5,488.5C 588.241,500.019 581.908,513.019 578.5,527.5C 577.5,527.5 576.5,527.5 575.5,527.5C 575.457,531.893 575.957,532.226 577,528.5C 577.167,529.167 577.333,529.833 577.5,530.5C 576.05,538.09 575.383,545.757 575.5,553.5C 576.005,560.565 576.005,567.565 575.5,574.5C 575.846,575.696 576.346,575.696 577,574.5C 577.49,575.793 577.657,577.127 577.5,578.5C 578.531,580.961 579.198,583.627 579.5,586.5C 580.833,587.5 580.833,588.5 579.5,589.5C 581.702,591.896 583.535,595.23 585,599.5C 585.667,600.5 585.667,601.5 585,602.5C 584.346,601.304 583.846,601.304 583.5,602.5C 583.855,603.522 584.522,604.189 585.5,604.5C 585.5,605.167 585.833,605.5 586.5,605.5C 590.453,609.932 594.119,615.266 597.5,621.5C 596.453,622.078 596.62,622.744 598,623.5C 598.399,623.272 598.565,622.938 598.5,622.5C 600.89,623.891 602.557,625.891 603.5,628.5C 603.062,628.435 602.728,628.601 602.5,629C 603.333,629.833 604.167,630.667 605,631.5C 605.399,631.272 605.565,630.938 605.5,630.5C 607.167,631.5 608.5,632.833 609.5,634.5C 611.027,634.427 612.027,635.094 612.5,636.5C 610.169,636.859 610.335,637.526 613,638.5C 613.399,638.272 613.565,637.938 613.5,637.5C 615.54,639.177 617.54,640.844 619.5,642.5C 624.204,644.202 624.537,646.202 620.5,648.5C 619.421,650.543 617.754,651.876 615.5,652.5C 610.046,656.733 604.38,660.733 598.5,664.5C 597.833,663.167 597.167,663.167 596.5,664.5C 595.833,664.5 595.167,664.5 594.5,664.5C 594.5,665.167 594.5,665.833 594.5,666.5C 593.761,666.369 593.094,666.536 592.5,667C 591.262,667.69 591.262,668.19 592.5,668.5C 590.766,671.2 588.432,673.2 585.5,674.5C 583.781,677.219 581.447,679.219 578.5,680.5C 576.217,683.797 573.884,687.131 571.5,690.5C 570.575,691.562 569.575,691.562 568.5,690.5C 567.185,691.895 567.519,692.895 569.5,693.5C 569.423,694.75 568.756,695.583 567.5,696C 567.684,702.588 567.684,708.921 567.5,715C 568.056,716.011 568.722,716.844 569.5,717.5C 567.302,717.409 566.969,718.075 568.5,719.5C 569.822,719.33 570.989,719.663 572,720.5C 574.091,723.74 575.924,727.074 577.5,730.5C 578.167,730.833 578.833,731.167 579.5,731.5C 579.833,732.5 580.5,733.167 581.5,733.5C 581.134,734.695 580.301,735.361 579,735.5C 437.332,735.495 295.499,735.495 153.5,735.5C 138.018,732.351 125.685,724.351 116.5,711.5C 114.738,710.738 113.738,709.404 113.5,707.5C 110.392,702.947 108.059,697.947 106.5,692.5C 106.608,691.558 106.941,690.725 107.5,690C 106.186,689.015 105.186,687.848 104.5,686.5C 104.83,611.429 104.497,536.429 103.5,461.5 Z M 620.5,464.5 C 621.999,463.506 623.666,463.506 625.5,464.5C 624.101,465.89 622.434,466.89 620.5,467.5C 620.5,467.167 620.5,466.833 620.5,466.5C 622.933,465.452 622.933,464.786 620.5,464.5 Z M 825.5,578.5 C 826.167,578.5 826.833,578.5 827.5,578.5C 827.214,580.933 826.548,580.933 825.5,578.5 Z"/></g>
<g><path style="opacity:0.016" fill="#18416a" d="M 878.5,186.5 C 879.833,187.167 879.833,187.167 878.5,186.5 Z"/></g>
<g><path style="opacity:0.004" fill="#183e69" d="M 128.5,189.5 C 127.833,188.167 127.833,188.167 128.5,189.5 Z"/></g>
<g><path style="opacity:0.004" fill="#183d66" d="M 116.5,192.5 C 115.833,191.167 115.833,191.167 116.5,192.5 Z"/></g>
<g><path style="opacity:0.012" fill="#193e66" d="M 120.5,192.5 C 119.761,192.631 119.094,192.464 118.5,192C 119.437,191.308 120.103,191.475 120.5,192.5 Z"/></g>
<g><path style="opacity:0.008" fill="#153d69" d="M 893.5,192.5 C 893.897,191.475 894.563,191.308 895.5,192C 894.906,192.464 894.239,192.631 893.5,192.5 Z"/></g>
<g><path style="opacity:0.004" fill="#144167" d="M 116.5,192.5 C 117.833,193.167 117.833,193.167 116.5,192.5 Z"/></g>
<g><path style="opacity:0.008" fill="#173f6b" d="M 113.5,194.5 C 114.833,195.167 114.833,195.167 113.5,194.5 Z"/></g>
<g><path style="opacity:0.008" fill="#173e66" d="M 897.5,196.5 C 896.537,195.637 896.537,194.97 897.5,194.5C 898.773,195.257 898.773,195.923 897.5,196.5 Z"/></g>
<g><path style="opacity:0.016" fill="#1a446a" d="M 106.5,200.5 C 105.833,199.167 105.833,199.167 106.5,200.5 Z"/></g>
<g><path style="opacity:0.004" fill="#183b66" d="M 904.5,199.5 C 905.833,200.167 905.833,200.167 904.5,199.5 Z"/></g>
<g><path style="opacity:0.004" fill="#183e65" d="M 909.5,200.5 C 908.833,199.167 908.833,199.167 909.5,200.5 Z"/></g>
<g><path style="opacity:0.004" fill="#173c66" d="M 95.5,200.5 C 96.8333,201.167 96.8333,201.167 95.5,200.5 Z"/></g>
<g><path style="opacity:0.012" fill="#163d66" d="M 102.5,200.5 C 103.833,201.167 103.833,201.167 102.5,200.5 Z"/></g>
<g><path style="opacity:0.004" fill="#173f67" d="M 907.5,201.5 C 906.833,200.167 906.833,200.167 907.5,201.5 Z"/></g>
<g><path style="opacity:0.012" fill="#153e68" d="M 909.5,200.5 C 910.833,201.167 910.833,201.167 909.5,200.5 Z"/></g>
<g><path style="opacity:0.008" fill="#19436c" d="M 907.5,201.5 C 908.167,201.5 908.5,201.833 908.5,202.5C 908.167,202.167 907.833,201.833 907.5,201.5 Z"/></g>
<g><path style="opacity:0.004" fill="#193f67" d="M 908.5,202.5 C 909.833,203.167 909.833,203.167 908.5,202.5 Z"/></g>
<g><path style="opacity:0.004" fill="#184069" d="M 95.5,204.5 C 96.525,204.897 96.6917,205.563 96,206.5C 95.5357,205.906 95.369,205.239 95.5,204.5 Z"/></g>
<g><path style="opacity:0.008" fill="#163e66" d="M 914.5,207.5 C 915.833,208.167 915.833,208.167 914.5,207.5 Z"/></g>
<g><path style="opacity:0.012" fill="#153c65" d="M 918.5,208.5 C 917.833,207.167 917.833,207.167 918.5,208.5 Z"/></g>
<g><path style="opacity:0.024" fill="#173f67" d="M 91.5,208.5 C 92.8333,209.167 92.8333,209.167 91.5,208.5 Z"/></g>
<g><path style="opacity:0.008" fill="#183d67" d="M 88.5,210.5 C 89.8333,211.167 89.8333,211.167 88.5,210.5 Z"/></g>
<g><path style="opacity:0.004" fill="#17416a" d="M 88.5,215.5 C 87.8333,214.167 87.8333,214.167 88.5,215.5 Z"/></g>
<g><path style="opacity:0.008" fill="#173e69" d="M 84.5,216.5 C 85.8333,217.167 85.8333,217.167 84.5,216.5 Z"/></g>
<g><path style="opacity:0.012" fill="#153e6a" d="M 925.5,216.5 C 926.833,217.167 926.833,217.167 925.5,216.5 Z"/></g>
<g><path style="opacity:0.004" fill="#173c66" d="M 80.5,219.5 C 79.475,219.103 79.3083,218.437 80,217.5C 80.4643,218.094 80.631,218.761 80.5,219.5 Z"/></g>
<g><path style="opacity:0.004" fill="#163f69" d="M 926.5,218.5 C 927.833,219.167 927.833,219.167 926.5,218.5 Z"/></g>
<g><path style="opacity:0.004" fill="#143e68" d="M 80.5,219.5 C 81.8333,220.167 81.8333,220.167 80.5,219.5 Z"/></g>
<g><path style="opacity:0.008" fill="#163d68" d="M 80.5,221.5 C 81.8333,222.167 81.8333,222.167 80.5,221.5 Z"/></g>
<g><path style="opacity:0.004" fill="#183f67" d="M 932.5,222.5 C 933.833,223.167 933.833,223.167 932.5,222.5 Z"/></g>
<g><path style="opacity:0.004" fill="#17416b" d="M 932.5,223.5 C 931.833,224.167 931.833,224.167 932.5,223.5 Z"/></g>
<g><path style="opacity:0.008" fill="#1b4069" d="M 934.5,228.5 C 935.833,229.167 935.833,229.167 934.5,228.5 Z"/></g>
<g><path style="opacity:0.966" fill="#062245" d="M 899.5,259.5 C 899.167,259.5 898.833,259.5 898.5,259.5C 898.5,258.833 898.167,258.5 897.5,258.5C 897.262,256.596 896.262,255.262 894.5,254.5C 894.179,252.952 893.179,252.285 891.5,252.5C 891.715,250.821 891.048,249.821 889.5,249.5C 887.807,246.81 885.473,244.81 882.5,243.5C 879.992,241.076 876.992,239.41 873.5,238.5C 871.316,236.415 868.649,235.415 865.5,235.5C 863.438,234.224 861.104,233.39 858.5,233C 853.582,232.805 848.749,232.305 844,231.5C 617.03,231.89 390.03,231.89 163,231.5C 158.574,232.419 154.074,233.086 149.5,233.5C 146.402,233.587 146.068,233.087 148.5,232C 152.084,230.927 155.75,230.26 159.5,230C 391.5,229.333 623.5,229.333 855.5,230C 874.435,233.458 889.435,242.958 900.5,258.5C 900.376,259.107 900.043,259.44 899.5,259.5 Z"/></g>
<g><path style="opacity:0.008" fill="#143f65" d="M 937.5,233.5 C 938.833,234.167 938.833,234.167 937.5,233.5 Z"/></g>
<g><path style="opacity:0.004" fill="#1b446e" d="M 72.5,235.5 C 71.8333,234.167 71.8333,234.167 72.5,235.5 Z"/></g>
<g><path style="opacity:0.012" fill="#193f69" d="M 64.5,239.5 C 65.8333,240.167 65.8333,240.167 64.5,239.5 Z"/></g>
<g><path style="opacity:0.004" fill="#1a4068" d="M 942.5,241.5 C 941.833,241.5 941.5,241.167 941.5,240.5C 941.747,238.025 942.413,238.025 943.5,240.5C 943.376,241.107 943.043,241.44 942.5,241.5 Z"/></g>
<g><path style="opacity:0.004" fill="#194470" d="M 66.5,242.5 C 67.8333,243.167 67.8333,243.167 66.5,242.5 Z"/></g>
<g><path style="opacity:0.016" fill="#1d4a77" d="M 882.5,243.5 C 882.217,244.289 881.717,244.956 881,245.5C 880.472,244.184 880.972,243.517 882.5,243.5 Z"/></g>
<g><path style="opacity:0.01" fill="#1a4676" d="M 883.5,245.5 C 884.289,245.783 884.956,246.283 885.5,247C 884.184,247.528 883.517,247.028 883.5,245.5 Z"/></g>
<g><path style="opacity:0.012" fill="#19436e" d="M 65.5,248.5 C 63.9719,248.483 63.4719,247.816 64,246.5C 64.7172,247.044 65.2172,247.711 65.5,248.5 Z"/></g>
<g><path style="opacity:0.004" fill="#19446a" d="M 946.5,248.5 C 946.897,247.475 947.563,247.308 948.5,248C 947.906,248.464 947.239,248.631 946.5,248.5 Z"/></g>
<g><path style="opacity:0.004" fill="#1a426d" d="M 947.5,252.5 C 948.077,251.227 948.743,251.227 949.5,252.5C 949.03,253.463 948.363,253.463 947.5,252.5 Z"/></g>
<g><path style="opacity:0.004" fill="#1c446b" d="M 950.5,252.5 C 951.833,253.167 951.833,253.167 950.5,252.5 Z"/></g>
<g><path style="opacity:0.008" fill="#1c4877" d="M 118.5,254.5 C 122.243,254.459 122.41,255.126 119,256.5C 118.536,255.906 118.369,255.239 118.5,254.5 Z"/></g>
<g><path style="opacity:0.012" fill="#19426d" d="M 949.5,254.5 C 950.833,255.167 950.833,255.167 949.5,254.5 Z"/></g>
<g><path style="opacity:0.004" fill="#1b406e" d="M 62.5,256.5 C 61.8333,255.167 61.8333,255.167 62.5,256.5 Z"/></g>
<g><path style="opacity:0.004" fill="#1a446d" d="M 950.5,257.5 C 951.833,258.167 951.833,258.167 950.5,257.5 Z"/></g>
<g><path style="opacity:0.022" fill="#1b4775" d="M 896.5,259.5 C 896.5,260.167 896.833,260.5 897.5,260.5C 896.923,261.773 896.257,261.773 895.5,260.5C 895.624,259.893 895.957,259.56 896.5,259.5 Z"/></g>
<g><path style="opacity:0.008" fill="#1b4672" d="M 55.5,266.5 C 56.8333,267.167 56.8333,267.167 55.5,266.5 Z"/></g>
<g><path style="opacity:0.012" fill="#1d4571" d="M 58.5,269.5 C 58.1667,269.5 57.8333,269.5 57.5,269.5C 57.8333,266.833 58.1667,266.833 58.5,269.5 Z"/></g>
<g><path style="opacity:0.008" fill="#1e4673" d="M 57.5,269.5 C 56.8333,270.167 56.8333,270.167 57.5,269.5 Z"/></g>
<g><path style="opacity:0.004" fill="#194472" d="M 56.5,271.5 C 57.525,271.897 57.6917,272.563 57,273.5C 56.5357,272.906 56.369,272.239 56.5,271.5 Z"/></g>
<g><path style="opacity:0.012" fill="#1a4571" d="M 56.5,280.5 C 55.3871,279.054 55.2204,277.387 56,275.5C 56.4935,277.134 56.6602,278.801 56.5,280.5 Z"/></g>
<g><path style="opacity:0.004" fill="#1a446f" d="M 955.5,277.5 C 956.833,278.167 956.833,278.167 955.5,277.5 Z"/></g>
<g><path style="opacity:0.004" fill="#1d4b77" d="M 905.5,281.5 C 904.105,280.352 904.272,279.352 906,278.5C 906.74,279.749 906.573,280.749 905.5,281.5 Z"/></g>
<g><path style="opacity:0.004" fill="#1a4570" d="M 956.5,292.5 C 957.833,293.167 957.833,293.167 956.5,292.5 Z"/></g>
<g><path style="opacity:0.004" fill="#1a4472" d="M 956.5,296.5 C 957.833,297.167 957.833,297.167 956.5,296.5 Z"/></g>
<g><path style="opacity:0.542" fill="#275481" d="M 104.5,283.5 C 103.926,288.648 104.593,293.482 106.5,298C 105.833,298.333 105.167,298.667 104.5,299C 157.486,298.197 210.153,298.364 262.5,299.5C 265.939,299.446 269.106,298.78 272,297.5C 273.62,299.632 275.454,299.965 277.5,298.5C 350.276,299.177 423.276,299.177 496.5,298.5C 563.036,299.505 629.702,299.505 696.5,298.5C 697.935,297.904 699.602,297.904 701.5,298.5C 702.167,299.833 702.833,299.833 703.5,298.5C 729.641,299.046 755.974,299.379 782.5,299.5C 783.192,298.975 783.692,298.308 784,297.5C 788.077,298.798 792.411,299.464 797,299.5C 813.338,298.825 829.338,298.825 845,299.5C 846.326,299.245 847.326,298.578 848,297.5C 848.333,298.167 848.667,298.833 849,299.5C 858.107,299.395 867.273,299.395 876.5,299.5C 878.32,299.351 879.82,298.684 881,297.5C 883.213,298.76 885.713,299.426 888.5,299.5C 891.54,299.065 894.373,299.065 897,299.5C 897.333,298.833 897.667,298.167 898,297.5C 900,300.167 902,300.167 904,297.5C 904.333,298.167 904.667,298.833 905,299.5C 906.049,297.893 907.549,297.227 909.5,297.5C 909.5,293.167 909.5,288.833 909.5,284.5C 910.488,289.64 910.821,294.974 910.5,300.5C 641.5,300.5 372.5,300.5 103.5,300.5C 103.178,294.642 103.511,288.975 104.5,283.5 Z"/></g>
<g><path style="opacity:0.004" fill="#1b4472" d="M 956.5,299.5 C 957.833,300.167 957.833,300.167 956.5,299.5 Z"/></g>
<g><path style="opacity:1" fill="#000517" d="M 103.5,300.5 C 372.5,300.5 641.5,300.5 910.5,300.5C 910.821,294.974 910.488,289.64 909.5,284.5C 909.457,280.107 909.957,279.774 911,283.5C 911.499,289.491 911.666,295.491 911.5,301.5C 641.999,301.833 372.666,301.5 103.5,300.5 Z"/></g>
<g><path style="opacity:0.004" fill="#1d4774" d="M 956.5,316.5 C 957.833,317.167 957.833,317.167 956.5,316.5 Z"/></g>
<g><path style="opacity:0.008" fill="#1b4874" d="M 956.5,321.5 C 957.833,322.167 957.833,322.167 956.5,321.5 Z"/></g>
<g><path style="opacity:0.004" fill="#1d4875" d="M 956.5,323.5 C 957.833,324.167 957.833,324.167 956.5,323.5 Z"/></g>
<g><path style="opacity:0.004" fill="#1c4674" d="M 956.5,326.5 C 957.833,327.167 957.833,327.167 956.5,326.5 Z"/></g>
<g><path style="opacity:1" fill="#010719" d="M 103.5,347.5 C 372.666,346.5 641.999,346.167 911.5,346.5C 911.833,458.874 911.5,569.874 910.5,679.5C 910.5,568.833 910.5,458.167 910.5,347.5C 641.833,347.5 373.167,347.5 104.5,347.5C 104.167,347.5 103.833,347.5 103.5,347.5 Z"/></g>
<g><path style="opacity:0.255" fill="#275484" d="M 104.5,348.5 C 104.5,348.167 104.5,347.833 104.5,347.5C 373.167,347.5 641.833,347.5 910.5,347.5C 910.5,458.167 910.5,568.833 910.5,679.5C 910.167,679.5 909.833,679.5 909.5,679.5C 909.832,615.998 909.499,552.664 908.5,489.5C 908.5,489.167 908.5,488.833 908.5,488.5C 909.665,442.668 909.832,396.668 909,350.5C 906.708,351.908 904.541,351.741 902.5,350C 904.935,348.997 904.602,348.497 901.5,348.5C 898.398,348.497 898.065,348.997 900.5,350C 898.865,350.54 897.532,350.04 896.5,348.5C 895.286,350.38 893.952,350.713 892.5,349.5C 890.94,349.519 889.44,349.852 888,350.5C 887.05,349.978 886.216,349.311 885.5,348.5C 884.024,350.571 882.024,351.571 879.5,351.5C 879.307,347.551 878.807,347.551 878,351.5C 876.667,350.167 875.333,350.167 874,351.5C 873.383,350.551 873.549,349.718 874.5,349C 872.892,348.342 871.725,348.842 871,350.5C 868.959,349.248 866.625,348.581 864,348.5C 861.833,348.667 859.667,348.833 857.5,349C 858.5,349.333 859.5,349.667 860.5,350C 857.574,350.218 854.74,350.718 852,351.5C 851,350.5 850,349.5 849,348.5C 846.962,350.072 844.629,351.072 842,351.5C 839.904,350.285 840.071,349.451 842.5,349C 840.892,348.342 839.725,348.842 839,350.5C 838.667,349.833 838.333,349.167 838,348.5C 837.311,349.357 836.478,350.023 835.5,350.5C 834.304,350.154 834.304,349.654 835.5,349C 832.833,348.333 830.167,348.333 827.5,349C 828.696,349.654 828.696,350.154 827.5,350.5C 825.833,347.833 824.167,347.833 822.5,350.5C 822.167,349.833 821.833,349.167 821.5,348.5C 820.817,348.863 820.15,349.196 819.5,349.5C 818.469,350.249 817.302,350.915 816,351.5C 813.053,351.091 810.386,350.091 808,348.5C 806.39,348.13 804.89,348.797 803.5,350.5C 802.583,349.873 801.583,349.539 800.5,349.5C 800.265,348.903 799.765,348.57 799,348.5C 796.012,349.925 792.512,350.592 788.5,350.5C 788.918,349.778 789.584,349.278 790.5,349C 788.843,348.275 787.843,348.775 787.5,350.5C 786.778,350.082 786.278,349.416 786,348.5C 785.612,349.428 784.945,350.095 784,350.5C 781.154,349.317 778.154,348.651 775,348.5C 772.05,348.568 769.383,349.234 767,350.5C 766.692,349.692 766.192,349.025 765.5,348.5C 764.304,348.846 764.304,349.346 765.5,350C 763.667,350.167 761.833,350.333 760,350.5C 757.698,350.4 755.698,349.733 754,348.5C 753.333,351.167 752.667,351.167 752,348.5C 751.333,351.167 750.667,351.167 750,348.5C 748.667,351.167 747.333,351.167 746,348.5C 745.399,350.359 744.566,350.692 743.5,349.5C 743.167,349.5 742.833,349.5 742.5,349.5C 741.5,348.167 740.5,348.167 739.5,349.5C 739.167,349.5 738.833,349.5 738.5,349.5C 737.434,350.692 736.601,350.359 736,348.5C 735,349.833 734,349.833 733,348.5C 732.225,350.223 730.892,351.223 729,351.5C 724.937,351.185 721.103,350.185 717.5,348.5C 714.313,351.73 711.48,351.73 709,348.5C 708.749,349.986 707.415,350.986 705,351.5C 701.589,350.707 698.089,350.207 694.5,350C 695.888,349.111 695.722,348.611 694,348.5C 693.894,349.794 692.894,350.461 691,350.5C 689.553,350.055 688.22,349.388 687,348.5C 686.235,348.57 685.735,348.903 685.5,349.5C 684.312,350.684 683.145,350.684 682,349.5C 681.333,350.167 680.667,350.833 680,351.5C 677.688,351.045 675.688,350.045 674,348.5C 671.894,350.291 669.394,350.958 666.5,350.5C 665.434,349.308 664.601,349.641 664,351.5C 663.722,350.584 663.222,349.918 662.5,349.5C 662.631,350.239 662.464,350.906 662,351.5C 660.53,350.733 659.03,350.067 657.5,349.5C 656.438,351.879 655.105,351.879 653.5,349.5C 651.801,350.815 650.135,350.815 648.5,349.5C 646.372,350.629 644.039,350.796 641.5,350C 642.888,349.111 642.722,348.611 641,348.5C 639.989,348.892 639.489,349.559 639.5,350.5C 638.167,347.833 636.833,347.833 635.5,350.5C 632.511,350.547 629.677,350.214 627,349.5C 626.667,350.167 626.333,350.833 626,351.5C 625.683,349.699 625.016,349.366 624,350.5C 623.261,349.426 622.261,348.759 621,348.5C 619.238,348.944 619.405,349.444 621.5,350C 620.207,350.49 618.873,350.657 617.5,350.5C 612.491,350.283 607.324,350.616 602,351.5C 600.307,350.816 598.807,349.816 597.5,348.5C 596.472,350.58 595.138,350.914 593.5,349.5C 592.833,348.167 592.167,348.167 591.5,349.5C 585.399,351.647 579.232,351.313 573,348.5C 571.93,348.528 571.097,348.861 570.5,349.5C 570.167,349.5 569.833,349.5 569.5,349.5C 569.167,348.167 568.833,348.167 568.5,349.5C 568.167,349.5 567.833,349.5 567.5,349.5C 565.424,349.424 563.424,349.424 561.5,349.5C 561.44,348.957 561.107,348.624 560.5,348.5C 558.297,350.178 555.797,351.178 553,351.5C 551.416,351.012 550.249,350.012 549.5,348.5C 548.304,348.846 548.304,349.346 549.5,350C 547.567,350.251 545.734,350.751 544,351.5C 543.536,350.906 543.369,350.239 543.5,349.5C 542.577,348.697 541.577,348.53 540.5,349C 541.451,349.718 541.617,350.551 541,351.5C 537.893,351.047 534.893,351.047 532,351.5C 530.518,349.219 528.851,349.219 527,351.5C 526.751,350.376 526.251,349.376 525.5,348.5C 524.304,348.846 524.304,349.346 525.5,350C 523.567,350.251 521.734,350.751 520,351.5C 519.617,350.944 519.117,350.611 518.5,350.5C 518.167,349.167 517.833,349.167 517.5,350.5C 516.209,350.737 515.209,350.404 514.5,349.5C 512.048,349.805 509.048,349.805 505.5,349.5C 504.039,348.314 502.705,348.314 501.5,349.5C 501.167,349.5 500.833,349.5 500.5,349.5C 497.609,348.905 494.609,348.905 491.5,349.5C 490.348,350.625 489.348,350.625 488.5,349.5C 485.117,350.221 481.451,350.388 477.5,350C 479.167,349.667 480.833,349.333 482.5,349C 481.333,348.833 480.167,348.667 479,348.5C 477.171,349.847 474.504,350.847 471,351.5C 470.717,348.258 469.883,347.924 468.5,350.5C 466.207,350.974 464.041,350.308 462,348.5C 460.954,350.195 459.787,350.528 458.5,349.5C 457.054,350.613 455.387,350.78 453.5,350C 454.696,349.346 454.696,348.846 453.5,348.5C 452.481,349.687 451.314,350.687 450,351.5C 448.863,350.636 447.53,349.636 446,348.5C 444.534,350.325 442.701,350.825 440.5,350C 442.595,349.444 442.762,348.944 441,348.5C 439.765,349.615 438.598,349.615 437.5,348.5C 436.146,350.184 434.479,350.684 432.5,350C 433.696,349.346 433.696,348.846 432.5,348.5C 431.784,349.311 430.95,349.978 430,350.5C 428.238,350.056 428.405,349.556 430.5,349C 428.865,348.46 427.532,348.96 426.5,350.5C 426.323,347.922 425.157,347.922 423,350.5C 422.667,349.833 422.333,349.167 422,348.5C 420.175,350.824 418.009,351.157 415.5,349.5C 412.4,350.508 409.4,351.174 406.5,351.5C 405.304,351.154 405.304,350.654 406.5,350C 407.833,349.667 409.167,349.333 410.5,349C 407.15,348.07 404.317,348.903 402,351.5C 399.988,349.965 397.822,349.131 395.5,349C 397.271,349.535 397.604,350.369 396.5,351.5C 395.28,350.289 394.113,350.289 393,351.5C 390.803,349.269 388.47,349.269 386,351.5C 382.255,350.703 378.421,350.203 374.5,350C 375.696,349.346 375.696,348.846 374.5,348.5C 371.584,350.66 368.584,350.993 365.5,349.5C 362.394,352.304 359.727,351.971 357.5,348.5C 356.966,350.729 355.299,351.062 352.5,349.5C 352.167,348.167 351.833,348.167 351.5,349.5C 350.178,349.33 349.011,349.663 348,350.5C 347.667,349.833 347.333,349.167 347,348.5C 345.501,350.756 343.834,350.756 342,348.5C 341.894,349.794 340.894,350.461 339,350.5C 338.167,350.333 337.333,350.167 336.5,350C 337.696,349.346 337.696,348.846 336.5,348.5C 335.784,349.311 334.95,349.978 334,350.5C 332.354,348.859 331.354,349.193 331,351.5C 327.759,350.991 325.425,349.991 324,348.5C 322.11,348.785 320.777,349.785 320,351.5C 319,350.5 318,349.5 317,348.5C 316.658,350.619 315.825,350.953 314.5,349.5C 314.167,348.167 313.833,348.167 313.5,349.5C 313.167,349.5 312.833,349.5 312.5,349.5C 311.21,351.987 310.21,351.653 309.5,348.5C 309.002,349.603 308.669,350.603 308.5,351.5C 307.818,350.757 307.151,350.091 306.5,349.5C 304.351,352.334 303.351,352.001 303.5,348.5C 301.585,348.216 299.919,348.549 298.5,349.5C 296.833,350.833 295.167,350.833 293.5,349.5C 291.163,349.256 288.663,349.589 286,350.5C 284.833,350.333 283.667,350.167 282.5,350C 284.5,349.667 286.5,349.333 288.5,349C 285.037,347.965 282.204,348.798 280,351.5C 278,350.167 276,350.167 274,351.5C 272.324,350.939 270.991,349.939 270,348.5C 269.581,349.672 268.915,350.672 268,351.5C 265.667,350.833 263.333,350.167 261,349.5C 260.586,349.957 260.086,350.291 259.5,350.5C 258.459,348.009 257.626,348.009 257,350.5C 255.667,349.833 254.333,349.167 253,348.5C 252.667,349.167 252.333,349.833 252,350.5C 250.03,348.332 247.863,347.998 245.5,349.5C 244.348,350.625 243.348,350.625 242.5,349.5C 240.262,348.463 237.929,348.297 235.5,349C 236.167,349.333 236.833,349.667 237.5,350C 233.382,351.902 229.549,351.402 226,348.5C 224.73,350.578 223.23,350.912 221.5,349.5C 219.389,350.742 217.389,350.742 215.5,349.5C 214.125,350.07 212.125,350.07 209.5,349.5C 208.85,349.804 208.183,350.137 207.5,350.5C 207.167,349.833 206.833,349.167 206.5,348.5C 204.745,351.023 202.911,351.023 201,348.5C 199.238,348.944 199.405,349.444 201.5,350C 199.256,352.349 198.089,351.849 198,348.5C 196.561,350.014 195.061,350.347 193.5,349.5C 192.017,351.946 190.851,351.612 190,348.5C 189.617,349.056 189.117,349.389 188.5,349.5C 187.122,350.234 185.622,350.901 184,351.5C 183.213,350.289 182.546,349.289 182,348.5C 181.749,349.986 180.415,350.986 178,351.5C 174.643,350.258 174.81,349.424 178.5,349C 176.5,348.333 174.5,348.333 172.5,349C 172.833,349.333 173.167,349.667 173.5,350C 171.735,350.64 170.068,350.473 168.5,349.5C 168.167,348.167 167.833,348.167 167.5,349.5C 165.908,348.398 165.075,349.065 165,351.5C 164.658,349.381 163.825,349.047 162.5,350.5C 162.167,347.833 161.833,347.833 161.5,350.5C 160.193,349.847 158.86,349.18 157.5,348.5C 155.464,350.345 153.13,350.845 150.5,350C 152.595,349.444 152.762,348.944 151,348.5C 149.908,349.296 148.741,349.963 147.5,350.5C 146.214,350.148 145.381,349.482 145,348.5C 143.278,348.611 143.112,349.111 144.5,350C 141.574,350.218 138.74,350.718 136,351.5C 135.383,350.551 135.549,349.718 136.5,349C 135.207,348.51 133.873,348.343 132.5,348.5C 132.649,349.552 132.483,350.552 132,351.5C 130.989,350.663 129.822,350.33 128.5,350.5C 127.626,349.475 126.459,348.808 125,348.5C 123.278,348.611 123.112,349.111 124.5,350C 122.899,350.273 121.399,350.773 120,351.5C 116.909,350.459 114.075,349.792 111.5,349.5C 111.167,349.5 110.833,349.5 110.5,349.5C 110.44,348.957 110.107,348.624 109.5,348.5C 108.833,349.167 108.167,349.833 107.5,350.5C 106.482,349.807 105.482,349.141 104.5,348.5 Z M 788.5,350.5 C 788.167,350.5 787.833,350.5 787.5,350.5C 787.843,348.775 788.843,348.275 790.5,349C 789.584,349.278 788.918,349.778 788.5,350.5 Z"/></g>
<g><path style="opacity:0.014" fill="#1f4b7c" d="M 494.5,350.5 C 495.077,349.227 495.743,349.227 496.5,350.5C 496.03,351.463 495.363,351.463 494.5,350.5 Z"/></g>
<g><path style="opacity:0.016" fill="#1f4b7d" d="M 800.5,349.5 C 800.489,352.001 799.822,352.168 798.5,350C 799.094,349.536 799.761,349.369 800.5,349.5 Z"/></g>
<g><path style="opacity:0.004" fill="#1b4873" d="M 956.5,350.5 C 957.833,351.167 957.833,351.167 956.5,350.5 Z"/></g>
<g><path style="opacity:0.008" fill="#1b4572" d="M 956.5,360.5 C 957.833,361.167 957.833,361.167 956.5,360.5 Z"/></g>
<g><path style="opacity:0.004" fill="#1d4873" d="M 956.5,363.5 C 957.833,364.167 957.833,364.167 956.5,363.5 Z"/></g>
<g><path style="opacity:0.004" fill="#1e4674" d="M 956.5,380.5 C 957.833,381.167 957.833,381.167 956.5,380.5 Z"/></g>
<g><path style="opacity:0.006" fill="#1b4976" d="M 694.5,399.5 C 695.773,400.077 695.773,400.743 694.5,401.5C 693.537,401.03 693.537,400.363 694.5,399.5 Z"/></g>
<g><path style="opacity:1" fill="#0b233e" d="M 954.5,281.5 C 955.665,416.097 955.831,550.764 955,685.5C 954.814,688.036 954.314,690.369 953.5,692.5C 953.823,555.17 953.49,417.67 952.5,280C 952.667,279.167 952.833,278.333 953,277.5C 953.21,279.058 953.71,280.391 954.5,281.5 Z"/></g>
<g><path style="opacity:0.004" fill="#1b4773" d="M 956.5,402.5 C 957.833,403.167 957.833,403.167 956.5,402.5 Z"/></g>
<g><path style="opacity:0.004" fill="#1c4a75" d="M 668.5,408.5 C 668.5,408.833 668.5,409.167 668.5,409.5C 667.624,409.631 666.957,409.298 666.5,408.5C 666.97,407.537 667.637,407.537 668.5,408.5 Z"/></g>
<g><path style="opacity:0.564" fill="#2a6798" d="M 103.5,347.5 C 103.833,347.5 104.167,347.5 104.5,347.5C 104.5,347.833 104.5,348.167 104.5,348.5C 104.5,370.833 104.5,393.167 104.5,415.5C 288.695,415.233 473.028,415.233 657.5,415.5C 657.5,415.833 657.5,416.167 657.5,416.5C 472.833,416.5 288.167,416.5 103.5,416.5C 103.5,393.5 103.5,370.5 103.5,347.5 Z"/></g>
<g><path style="opacity:1" fill="#00010e" d="M 103.5,347.5 C 103.5,370.5 103.5,393.5 103.5,416.5C 288.167,416.5 472.833,416.5 657.5,416.5C 472.667,417.5 287.667,417.833 102.5,417.5C 102.169,393.994 102.502,370.661 103.5,347.5 Z"/></g>
<g><path style="opacity:0.004" fill="#1d4672" d="M 956.5,424.5 C 957.833,425.167 957.833,425.167 956.5,424.5 Z"/></g>
<g><path style="opacity:1" fill="#0e106e" d="M 743.5,446.5 C 732.655,443.455 721.655,442.789 710.5,444.5C 707.779,444.963 705.112,445.629 702.5,446.5C 703.735,444.533 706.068,443.367 709.5,443C 718.167,442.333 726.833,442.333 735.5,443C 738.666,443.322 741.333,444.489 743.5,446.5 Z"/></g>
<g><path style="opacity:0.999" fill="#efba3a" d="M 710.5,444.5 C 718.323,445.329 726.323,445.829 734.5,446C 739.502,446.247 743.335,448.414 746,452.5C 746.333,459.167 746.667,465.833 747,472.5C 747.499,466.509 747.666,460.509 747.5,454.5C 748.49,460.31 748.823,466.31 748.5,472.5C 751.428,472.565 754.095,473.232 756.5,474.5C 756.062,474.435 755.728,474.601 755.5,475C 786.265,483.621 809.931,501.454 826.5,528.5C 818.598,533.275 810.931,538.275 803.5,543.5C 799.21,546.985 794.543,549.985 789.5,552.5C 789.167,552.5 788.833,552.5 788.5,552.5C 783.232,544.231 776.565,537.231 768.5,531.5C 768.158,530.662 767.492,530.328 766.5,530.5C 759.14,524.655 750.807,520.655 741.5,518.5C 738.058,517.252 734.392,516.419 730.5,516C 722.323,515.177 714.323,515.344 706.5,516.5C 698.878,517.587 692.211,520.587 686.5,525.5C 672.902,533.114 668.402,544.448 673,559.5C 675.4,563.402 678.566,566.402 682.5,568.5C 688.661,573.228 695.661,576.228 703.5,577.5C 703.842,578.338 704.508,578.672 705.5,578.5C 726.207,582.835 746.54,588.168 766.5,594.5C 776.074,599.129 786.074,604.296 796.5,610C 803.9,615.365 810.9,621.198 817.5,627.5C 820.878,630.876 823.878,634.543 826.5,638.5C 833.278,653.503 835.612,669.17 833.5,685.5C 832.596,686.209 832.263,687.209 832.5,688.5C 830.313,700.404 825.979,711.404 819.5,721.5C 817.738,722.262 816.738,723.596 816.5,725.5C 809.773,732.232 802.773,738.565 795.5,744.5C 788.366,748.402 781.033,751.736 773.5,754.5C 766.537,756.324 759.537,757.991 752.5,759.5C 751.508,759.328 750.842,759.662 750.5,760.5C 748.854,765.927 747.854,771.594 747.5,777.5C 747.666,771.824 747.499,766.157 747,760.5C 746.667,766.833 746.333,773.167 746,779.5C 743.749,784.369 739.915,786.869 734.5,787C 725.99,787.171 717.657,787.671 709.5,788.5C 705.203,787.934 701.703,785.934 699,782.5C 697.94,775.219 697.106,767.886 696.5,760.5C 694.591,759.652 692.591,759.318 690.5,759.5C 685.937,758.189 681.271,756.856 676.5,755.5C 674.597,755.204 672.93,754.537 671.5,753.5C 663.926,749.869 655.926,745.702 647.5,741C 640.032,736.024 633.032,730.524 626.5,724.5C 620.201,719.03 615.201,712.53 611.5,705C 613.018,703.649 614.351,702.149 615.5,700.5C 616.167,700.5 616.833,700.5 617.5,700.5C 617.435,700.938 617.601,701.272 618,701.5C 628.364,694.304 638.864,687.304 649.5,680.5C 662.085,694.459 677.085,704.959 694.5,712C 697.136,712.934 699.803,713.768 702.5,714.5C 703.416,714.457 704.083,714.124 704.5,713.5C 705.492,713.328 706.158,713.662 706.5,714.5C 706.062,714.435 705.728,714.601 705.5,715C 715.95,718.355 726.617,719.188 737.5,717.5C 739.167,717.667 740.833,717.833 742.5,718C 739.879,718.906 740.046,719.406 743,719.5C 748.433,718.585 748.6,717.752 743.5,717C 753.39,714.57 763.057,709.903 772.5,703C 784.451,692.498 787.284,679.998 781,665.5C 779.594,662.591 777.428,660.591 774.5,659.5C 773.71,658.206 772.71,657.039 771.5,656C 756.278,647.707 740.278,642.873 723.5,641.5C 719.385,640.49 715.385,639.49 711.5,638.5C 712.239,638.631 712.906,638.464 713.5,638C 685.752,633.045 660.752,622.212 638.5,605.5C 633.099,601.102 628.433,596.102 624.5,590.5C 620.071,581.976 617.071,572.976 615.5,563.5C 615.768,561.901 615.434,560.568 614.5,559.5C 613.312,543.252 616.979,528.252 625.5,514.5C 631.196,507.803 637.53,501.803 644.5,496.5C 650.639,492.566 656.972,488.733 663.5,485C 670.639,482.401 676.972,479.568 682.5,476.5C 687.215,474.761 692.048,473.094 697,471.5C 697.239,464.452 697.739,457.452 698.5,450.5C 699.833,449.167 701.167,447.833 702.5,446.5C 705.112,445.629 707.779,444.963 710.5,444.5 Z"/></g>
<g><path style="opacity:1" fill="#e6d639" d="M 743.5,446.5 C 745.891,448.615 747.224,451.281 747.5,454.5C 747.666,460.509 747.499,466.509 747,472.5C 746.667,465.833 746.333,459.167 746,452.5C 743.335,448.414 739.502,446.247 734.5,446C 726.323,445.829 718.323,445.329 710.5,444.5C 721.655,442.789 732.655,443.455 743.5,446.5 Z"/></g>
<g><path style="opacity:0.544" fill="#27507a" d="M 103.5,461.5 C 103.5,461.167 103.5,460.833 103.5,460.5C 279.834,460.333 456.167,460.5 632.5,461C 631.956,461.717 631.289,462.217 630.5,462.5C 482.001,461.334 333.334,461.167 184.5,462C 188.167,462.333 191.833,462.667 195.5,463C 188.833,463.667 182.167,463.667 175.5,463C 178.167,462.667 180.833,462.333 183.5,462C 173.167,461.333 162.833,461.333 152.5,462C 153.167,462.333 153.833,462.667 154.5,463C 150.5,463.667 146.5,463.667 142.5,463C 145.5,462.667 148.5,462.333 151.5,462C 135.503,461.5 119.503,461.333 103.5,461.5 Z"/></g>
<g><path style="opacity:0.008" fill="#1e4a79" d="M 625.5,464.5 C 623.666,463.506 621.999,463.506 620.5,464.5C 618.914,463.852 617.247,463.352 615.5,463C 618.5,462.333 621.5,462.333 624.5,463C 625.056,463.383 625.389,463.883 625.5,464.5 Z"/></g>
<g><path style="opacity:0.009" fill="#1d4c79" d="M 620.5,464.5 C 622.933,464.786 622.933,465.452 620.5,466.5C 620.5,465.833 620.5,465.167 620.5,464.5 Z"/></g>
<g><path style="opacity:0.004" fill="#1f4874" d="M 956.5,468.5 C 957.833,469.167 957.833,469.167 956.5,468.5 Z"/></g>
<g><path style="opacity:0.004" fill="#1c4a74" d="M 958.5,468.5 C 959.833,469.167 959.833,469.167 958.5,468.5 Z"/></g>
<g><path style="opacity:1" fill="#13136b" d="M 698.5,450.5 C 697.739,457.452 697.239,464.452 697,471.5C 692.048,473.094 687.215,474.761 682.5,476.5C 672.258,479.121 662.591,483.121 653.5,488.5C 659.828,483.665 666.828,479.831 674.5,477C 681.167,475 687.833,473 694.5,471C 695.147,464.186 695.98,457.353 697,450.5C 697.69,449.262 698.19,449.262 698.5,450.5 Z"/></g>
<g><path style="opacity:0.996" fill="#102a49" d="M 817.5,464.5 C 818.167,464.5 818.833,464.5 819.5,464.5C 828.745,470.742 837.412,477.742 845.5,485.5C 846.167,486.833 847.167,487.833 848.5,488.5C 850.122,491.455 852.122,494.122 854.5,496.5C 860.087,504.397 864.254,513.064 867,522.5C 868.929,529.024 868.429,535.357 865.5,541.5C 864.637,542.463 863.97,542.463 863.5,541.5C 865.479,535.316 865.979,528.983 865,522.5C 859.906,507.148 851.406,493.981 839.5,483C 832.066,476.231 824.066,470.231 815.5,465C 816.094,464.536 816.761,464.369 817.5,464.5 Z"/></g>
<g><path style="opacity:1" fill="#f0db33" d="M 682.5,476.5 C 676.972,479.568 670.639,482.401 663.5,485C 656.972,488.733 650.639,492.566 644.5,496.5C 647.312,493.599 650.312,490.932 653.5,488.5C 662.591,483.121 672.258,479.121 682.5,476.5 Z"/></g>
<g><path style="opacity:0.004" fill="#1d4873" d="M 956.5,478.5 C 957.833,479.167 957.833,479.167 956.5,478.5 Z"/></g>
<g><path style="opacity:0.992" fill="#14116d" d="M 743.5,446.5 C 746.735,447.595 748.568,449.928 749,453.5C 749.499,459.491 749.666,465.491 749.5,471.5C 770.122,475.145 788.455,483.645 804.5,497C 809.434,501.426 813.767,506.26 817.5,511.5C 800.968,492.981 780.634,480.648 756.5,474.5C 754.095,473.232 751.428,472.565 748.5,472.5C 748.823,466.31 748.49,460.31 747.5,454.5C 747.224,451.281 745.891,448.615 743.5,446.5 Z"/></g>
<g><path style="opacity:0.004" fill="#1d4675" d="M 956.5,486.5 C 957.833,487.167 957.833,487.167 956.5,486.5 Z"/></g>
<g><path style="opacity:1" fill="#10116c" d="M 706.5,516.5 C 707.552,516.351 708.552,516.517 709.5,517C 701.302,518.564 693.635,521.397 686.5,525.5C 692.211,520.587 698.878,517.587 706.5,516.5 Z"/></g>
<g><path style="opacity:1" fill="#19186a" d="M 741.5,518.5 C 750.807,520.655 759.14,524.655 766.5,530.5C 757.749,525.995 749.416,521.995 741.5,518.5 Z"/></g>
<g><path style="opacity:0.984" fill="#0e116b" d="M 625.5,514.5 C 616.979,528.252 613.312,543.252 614.5,559.5C 613.536,559.035 613.202,556.368 613.5,551.5C 612.744,537.49 616.744,525.157 625.5,514.5 Z"/></g>
<g><path style="opacity:0.004" fill="#1b4774" d="M 956.5,526.5 C 957.833,527.167 957.833,527.167 956.5,526.5 Z"/></g>
<g><path style="opacity:1" fill="#efdd35" d="M 756.5,474.5 C 780.634,480.648 800.968,492.981 817.5,511.5C 820.117,516.114 823.117,520.447 826.5,524.5C 826.751,526.17 827.418,527.67 828.5,529C 820.439,534.362 812.106,539.195 803.5,543.5C 810.931,538.275 818.598,533.275 826.5,528.5C 809.931,501.454 786.265,483.621 755.5,475C 755.728,474.601 756.062,474.435 756.5,474.5 Z"/></g>
<g><path style="opacity:0.992" fill="#18166c" d="M 768.5,531.5 C 776.565,537.231 783.232,544.231 788.5,552.5C 782.079,545.247 775.079,538.414 767.5,532C 767.728,531.601 768.062,531.435 768.5,531.5 Z"/></g>
<g><path style="opacity:1" fill="#13146d" d="M 826.5,524.5 C 829.073,526.132 829.739,528.298 828.5,531C 815.998,538.752 803.332,546.252 790.5,553.5C 789.893,553.376 789.56,553.043 789.5,552.5C 794.543,549.985 799.21,546.985 803.5,543.5C 812.106,539.195 820.439,534.362 828.5,529C 827.418,527.67 826.751,526.17 826.5,524.5 Z"/></g>
<g><path style="opacity:0.992" fill="#0c2341" d="M 325.5,545.5 C 327.877,545.026 330.377,545.359 333,546.5C 335.586,545.511 337.919,544.844 340,544.5C 340.308,545.308 340.808,545.975 341.5,546.5C 345.715,546.466 349.882,546.466 354,546.5C 355.763,546.025 357.43,545.358 359,544.5C 361.738,545.482 364.572,546.148 367.5,546.5C 367.918,547.222 368.584,547.722 369.5,548C 306.5,548.667 243.5,548.667 180.5,548C 181.416,547.722 182.082,547.222 182.5,546.5C 185.188,546.834 187.521,546.168 189.5,544.5C 191.218,545.224 193.052,545.891 195,546.5C 200.734,545.901 206.734,545.901 213,546.5C 213.667,545.833 214.333,545.167 215,544.5C 216.18,545.684 217.68,546.351 219.5,546.5C 222.401,545.394 224.901,545.394 227,546.5C 228.302,545.915 229.469,545.249 230.5,544.5C 231.117,544.389 231.617,544.056 232,543.5C 231.923,544.738 232.089,545.738 232.5,546.5C 245.556,546.111 258.389,546.111 271,546.5C 274.343,546.481 277.343,545.481 280,543.5C 283.272,547.096 286.938,547.429 291,544.5C 292.785,545.24 294.618,545.907 296.5,546.5C 300.985,546.439 305.485,546.439 310,546.5C 311.473,546.097 312.806,545.43 314,544.5C 314.333,545.167 314.667,545.833 315,546.5C 316.619,545.917 318.452,545.917 320.5,546.5C 321.807,545.184 323.307,544.184 325,543.5C 325.464,544.094 325.631,544.761 325.5,545.5 Z"/></g>
<g><path style="opacity:0.004" fill="#214d76" d="M 269.5,543.5 C 270.473,543.987 271.473,544.487 272.5,545C 270.843,545.725 269.843,545.225 269.5,543.5 Z"/></g>
<g><path style="opacity:0.004" fill="#204d77" d="M 237.5,543.5 C 239.975,543.747 239.975,544.413 237.5,545.5C 236.537,545.03 236.537,544.363 237.5,543.5 Z"/></g>
<g><path style="opacity:0.006" fill="#1f4b74" d="M 309.5,543.5 C 313.243,543.459 313.41,544.126 310,545.5C 309.536,544.906 309.369,544.239 309.5,543.5 Z"/></g>
<g><path style="opacity:0.999" fill="#0e3964" d="M 179.5,545.5 C 180.391,546.11 181.391,546.443 182.5,546.5C 182.082,547.222 181.416,547.722 180.5,548C 243.5,548.667 306.5,548.667 369.5,548C 368.584,547.722 367.918,547.222 367.5,546.5C 369.921,546.878 372.254,547.545 374.5,548.5C 385.031,557.466 387.697,568.466 382.5,581.5C 379.141,584.529 375.808,587.529 372.5,590.5C 370.518,590.995 368.518,591.495 366.5,592C 305.5,592.667 244.5,592.667 183.5,592C 181.564,591.187 179.564,590.687 177.5,590.5C 174.418,588.628 171.751,586.295 169.5,583.5C 169.5,582.833 169.167,582.5 168.5,582.5C 164.087,572.13 164.753,562.13 170.5,552.5C 173.835,550.487 176.835,548.154 179.5,545.5 Z"/></g>
<g><path style="opacity:0.99" fill="#10253f" d="M 103.5,460.5 C 103.5,460.833 103.5,461.167 103.5,461.5C 104.497,536.429 104.83,611.429 104.5,686.5C 104.66,688.199 104.494,689.866 104,691.5C 103.667,690.5 103.333,689.5 103,688.5C 102.168,612.332 102.334,536.332 103.5,460.5 Z"/></g>
<g><path style="opacity:0.008" fill="#204875" d="M 956.5,550.5 C 957.833,551.167 957.833,551.167 956.5,550.5 Z"/></g>
<g><path style="opacity:0.998" fill="#0d136d" d="M 686.5,525.5 C 682.503,529.665 678.67,533.998 675,538.5C 670.027,550.407 672.527,560.407 682.5,568.5C 678.566,566.402 675.4,563.402 673,559.5C 668.402,544.448 672.902,533.114 686.5,525.5 Z"/></g>
<g><path style="opacity:1" fill="#0e126c" d="M 682.5,568.5 C 690.159,571.536 697.159,574.536 703.5,577.5C 695.661,576.228 688.661,573.228 682.5,568.5 Z"/></g>
<g><path style="opacity:0.008" fill="#1e4873" d="M 577.5,578.5 C 577.457,585.043 576.79,585.043 575.5,578.5C 575.97,577.537 576.637,577.537 577.5,578.5 Z"/></g>
<g><path style="opacity:0.984" fill="#14146d" d="M 615.5,563.5 C 617.071,572.976 620.071,581.976 624.5,590.5C 618.05,582.484 615.05,573.484 615.5,563.5 Z"/></g>
<g><path style="opacity:0.008" fill="#1c4876" d="M 956.5,582.5 C 957.833,583.167 957.833,583.167 956.5,582.5 Z"/></g>
<g><path style="opacity:0.992" fill="#031f41" d="M 56.5,679.5 C 56.5,678.5 56.5,677.5 56.5,676.5C 56.3333,549.5 56.5,422.5 57,295.5C 57.3333,291.167 57.6667,286.833 58,282.5C 58.1667,348.667 58.3333,414.833 58.5,481C 58.5,547.503 57.8333,613.67 56.5,679.5 Z"/></g>
<g><path style="opacity:1" fill="#1b166b" d="M 705.5,578.5 C 734.119,582.079 761.786,589.912 788.5,602C 793.956,604.974 798.956,608.474 803.5,612.5C 792.078,604.775 779.745,598.775 766.5,594.5C 746.54,588.168 726.207,582.835 705.5,578.5 Z"/></g>
<g><path style="opacity:0.992" fill="#efdd34" d="M 766.5,594.5 C 779.745,598.775 792.078,604.775 803.5,612.5C 808.866,616.866 813.533,621.866 817.5,627.5C 810.9,621.198 803.9,615.365 796.5,610C 786.074,604.296 776.074,599.129 766.5,594.5 Z"/></g>
<g><path style="opacity:1" fill="#eddd37" d="M 638.5,605.5 C 660.752,622.212 685.752,633.045 713.5,638C 712.906,638.464 712.239,638.631 711.5,638.5C 710.167,638.5 708.833,638.5 707.5,638.5C 707.158,637.662 706.492,637.328 705.5,637.5C 686.152,633.052 667.818,626.052 650.5,616.5C 646.121,613.3 642.121,609.633 638.5,605.5 Z"/></g>
<g><path style="opacity:0.984" fill="#13156b" d="M 650.5,616.5 C 667.818,626.052 686.152,633.052 705.5,637.5C 704.054,638.613 702.387,638.78 700.5,638C 685.648,634.049 671.315,628.716 657.5,622C 654.98,620.303 652.647,618.47 650.5,616.5 Z"/></g>
<g><path style="opacity:0.047" fill="#2e6292" d="M 413.5,636.5 C 339.167,636.5 264.833,636.5 190.5,636.5C 208.01,634.835 225.844,634.501 244,635.5C 253.563,635.486 262.896,634.819 272,633.5C 281.438,634.82 291.104,635.487 301,635.5C 331.009,635.058 361.009,635.058 391,635.5C 394.276,635.442 397.276,634.776 400,633.5C 404.378,635.096 408.878,636.096 413.5,636.5 Z"/></g>
<g><path style="opacity:0.982" fill="#061630" d="M 190.5,636.5 C 264.833,636.5 339.167,636.5 413.5,636.5C 419.998,637.082 425.332,639.749 429.5,644.5C 430.026,646.23 431.026,647.564 432.5,648.5C 432.263,649.791 432.596,650.791 433.5,651.5C 437.04,666.915 431.374,676.915 416.5,681.5C 338.833,681.667 261.166,681.5 183.5,681C 260.833,680.667 338.167,680.333 415.5,680C 429.671,675.496 434.838,665.996 431,651.5C 428.291,644.892 423.458,640.725 416.5,639C 338.833,638.333 261.167,638.333 183.5,639C 181,639.375 178.667,640.208 176.5,641.5C 175.537,641.03 175.537,640.363 176.5,639.5C 176.5,639.167 176.5,638.833 176.5,638.5C 181.153,636.721 185.82,636.054 190.5,636.5 Z"/></g>
<g><path style="opacity:0.999" fill="#0e3a66" d="M 416.5,681.5 C 338.668,682.499 260.668,682.833 182.5,682.5C 177.734,680.613 173.401,677.946 169.5,674.5C 164.167,664.5 164.167,654.5 169.5,644.5C 170.833,643.833 171.833,642.833 172.5,641.5C 173.167,641.5 173.5,641.167 173.5,640.5C 174.391,639.89 175.391,639.557 176.5,639.5C 175.537,640.363 175.537,641.03 176.5,641.5C 178.667,640.208 181,639.375 183.5,639C 261.167,638.333 338.833,638.333 416.5,639C 423.458,640.725 428.291,644.892 431,651.5C 434.838,665.996 429.671,675.496 415.5,680C 338.167,680.333 260.833,680.667 183.5,681C 261.166,681.5 338.833,681.667 416.5,681.5 Z"/></g>
<g><path style="opacity:0.006" fill="#1a4975" d="M 169.5,642.5 C 169.5,643.167 169.5,643.833 169.5,644.5C 167.067,643.452 167.067,642.786 169.5,642.5 Z"/></g>
<g><path style="opacity:1" fill="#13166c" d="M 707.5,638.5 C 708.833,638.5 710.167,638.5 711.5,638.5C 715.385,639.49 719.385,640.49 723.5,641.5C 732.624,643.364 741.624,645.698 750.5,648.5C 750.265,649.097 749.765,649.43 749,649.5C 734.434,645.93 720.601,642.263 707.5,638.5 Z"/></g>
<g><path style="opacity:0.996" fill="#1b186b" d="M 752.5,649.5 C 758.871,650.854 764.538,653.521 769.5,657.5C 762.917,655.362 757.25,652.695 752.5,649.5 Z"/></g>
<g><path style="opacity:0.996" fill="#ecda37" d="M 723.5,641.5 C 740.278,642.873 756.278,647.707 771.5,656C 772.71,657.039 773.71,658.206 774.5,659.5C 772.833,658.833 771.167,658.167 769.5,657.5C 764.538,653.521 758.871,650.854 752.5,649.5C 752.158,648.662 751.492,648.328 750.5,648.5C 741.624,645.698 732.624,643.364 723.5,641.5 Z"/></g>
<g><path style="opacity:0.004" fill="#1d4473" d="M 956.5,656.5 C 957.833,657.167 957.833,657.167 956.5,656.5 Z"/></g>
<g><path style="opacity:0.004" fill="#1c4772" d="M 956.5,660.5 C 957.833,661.167 957.833,661.167 956.5,660.5 Z"/></g>
<g><path style="opacity:0.012" fill="#1e4a79" d="M 907.5,659.5 C 908.622,661.288 908.789,663.288 908,665.5C 906.668,663.45 906.502,661.45 907.5,659.5 Z"/></g>
<g><path style="opacity:0.004" fill="#1e4770" d="M 956.5,662.5 C 957.833,663.167 957.833,663.167 956.5,662.5 Z"/></g>
<g><path style="opacity:0.006" fill="#1c456f" d="M 594.5,664.5 C 595.167,664.5 595.833,664.5 596.5,664.5C 596.5,664.833 596.5,665.167 596.5,665.5C 595.833,665.5 595.5,665.833 595.5,666.5C 595.167,666.5 594.833,666.5 594.5,666.5C 594.5,665.833 594.5,665.167 594.5,664.5 Z"/></g>
<g><path style="opacity:0.996" fill="#0b0d6e" d="M 826.5,638.5 C 828.64,640.7 830.14,643.367 831,646.5C 835.554,659.92 836.554,673.586 834,687.5C 833.536,686.906 833.369,686.239 833.5,685.5C 835.612,669.17 833.278,653.503 826.5,638.5 Z"/></g>
<g><path style="opacity:0.999" fill="#1e176b" d="M 769.5,657.5 C 771.167,658.167 772.833,658.833 774.5,659.5C 786.137,671.782 786.47,684.449 775.5,697.5C 774.957,697.44 774.624,697.107 774.5,696.5C 782.733,686.369 783.567,675.702 777,664.5C 774.521,662.034 772.021,659.701 769.5,657.5 Z"/></g>
<g><path style="opacity:0.004" fill="#1a4876" d="M 168.5,674.5 C 168.833,674.5 169.167,674.5 169.5,674.5C 169.509,676.308 169.009,677.975 168,679.5C 167.616,677.803 167.782,676.137 168.5,674.5 Z"/></g>
<g><path style="opacity:0.008" fill="#214973" d="M 577.5,680.5 C 577.217,681.289 576.717,681.956 576,682.5C 575.472,681.184 575.972,680.517 577.5,680.5 Z"/></g>
<g><path style="opacity:0.996" fill="#f1dd34" d="M 651.5,679.5 C 655.892,684.894 660.892,689.561 666.5,693.5C 677.388,703.28 690.054,709.947 704.5,713.5C 704.083,714.124 703.416,714.457 702.5,714.5C 699.803,713.768 697.136,712.934 694.5,712C 677.085,704.959 662.085,694.459 649.5,680.5C 638.864,687.304 628.364,694.304 618,701.5C 617.601,701.272 617.435,700.938 617.5,700.5C 624.167,695.5 630.833,690.5 637.5,685.5C 641.466,683.222 645.466,680.888 649.5,678.5C 650.183,678.863 650.85,679.196 651.5,679.5 Z"/></g>
<g><path style="opacity:0.99" fill="#07106c" d="M 666.5,693.5 C 660.892,689.561 655.892,684.894 651.5,679.5C 656.832,683.141 661.832,687.808 666.5,693.5 Z"/></g>
<g><path style="opacity:0.012" fill="#1d436f" d="M 956.5,681.5 C 957.833,682.167 957.833,682.167 956.5,681.5 Z"/></g>
<g><path style="opacity:0.008" fill="#1f4670" d="M 55.5,689.5 C 56.525,689.897 56.6917,690.563 56,691.5C 55.5357,690.906 55.369,690.239 55.5,689.5 Z"/></g>
<g><path style="opacity:0.012" fill="#1b446e" d="M 955.5,690.5 C 956.833,691.167 956.833,691.167 955.5,690.5 Z"/></g>
<g><path style="opacity:0.004" fill="#1a406d" d="M 57.5,694.5 C 57.631,695.239 57.4643,695.906 57,696.5C 56.3083,695.563 56.475,694.897 57.5,694.5 Z"/></g>
<g><path style="opacity:1" fill="#20186d" d="M 637.5,685.5 C 630.833,690.5 624.167,695.5 617.5,700.5C 616.833,700.5 616.167,700.5 615.5,700.5C 622.28,694.726 629.613,689.726 637.5,685.5 Z"/></g>
<g><path style="opacity:1" fill="#13116d" d="M 832.5,688.5 C 832.334,700.973 828.001,711.973 819.5,721.5C 825.979,711.404 830.313,700.404 832.5,688.5 Z"/></g>
<g><path style="opacity:0.008" fill="#1e4670" d="M 56.5,697.5 C 57.8333,698.167 57.8333,698.167 56.5,697.5 Z"/></g>
<g><path style="opacity:0.008" fill="#1d496f" d="M 57.5,701.5 C 58.8333,702.167 58.8333,702.167 57.5,701.5 Z"/></g>
<g><path style="opacity:1" fill="#15136c" d="M 666.5,693.5 C 680.154,703.822 695.488,710.655 712.5,714C 711.906,714.464 711.239,714.631 710.5,714.5C 709.167,714.5 707.833,714.5 706.5,714.5C 706.158,713.662 705.492,713.328 704.5,713.5C 690.054,709.947 677.388,703.28 666.5,693.5 Z"/></g>
<g><path style="opacity:0.004" fill="#19456d" d="M 55.5,705.5 C 55.8966,704.475 56.5632,704.308 57.5,705C 56.9056,705.464 56.2389,705.631 55.5,705.5 Z"/></g>
<g><path style="opacity:0.012" fill="#1b446d" d="M 59.5,705.5 C 58.8333,704.167 58.8333,704.167 59.5,705.5 Z"/></g>
<g><path style="opacity:0.004" fill="#1b466e" d="M 57.5,706.5 C 58.8333,707.167 58.8333,707.167 57.5,706.5 Z"/></g>
<g><path style="opacity:0.004" fill="#1a436e" d="M 57.5,708.5 C 58.8333,709.167 58.8333,709.167 57.5,708.5 Z"/></g>
<g><path style="opacity:0.004" fill="#1b4670" d="M 59.5,708.5 C 60.8333,709.167 60.8333,709.167 59.5,708.5 Z"/></g>
<g><path style="opacity:0.02" fill="#1b456f" d="M 59.5,711.5 C 59.8966,710.475 60.5632,710.308 61.5,711C 60.9056,711.464 60.2389,711.631 59.5,711.5 Z"/></g>
<g><path style="opacity:0.012" fill="#1c436f" d="M 950.5,710.5 C 951.833,711.167 951.833,711.167 950.5,710.5 Z"/></g>
<g><path style="opacity:1" fill="#13116c" d="M 766.5,705.5 C 757.981,711.007 748.647,714.341 738.5,715.5C 737.761,715.631 737.094,715.464 736.5,715C 746.953,713.572 756.62,710.072 765.5,704.5C 766.107,704.624 766.44,704.957 766.5,705.5 Z"/></g>
<g><path style="opacity:1" fill="#14166d" d="M 615.5,700.5 C 614.351,702.149 613.018,703.649 611.5,705C 615.201,712.53 620.201,719.03 626.5,724.5C 629.833,728.167 633.167,731.833 636.5,735.5C 625.767,727.599 616.934,717.933 610,706.5C 609.333,705.5 609.333,704.5 610,703.5C 611.741,702.242 613.574,701.242 615.5,700.5 Z"/></g>
<g><path style="opacity:0.998" fill="#f4d734" d="M 774.5,659.5 C 777.428,660.591 779.594,662.591 781,665.5C 787.284,679.998 784.451,692.498 772.5,703C 763.057,709.903 753.39,714.57 743.5,717C 748.6,717.752 748.433,718.585 743,719.5C 740.046,719.406 739.879,718.906 742.5,718C 740.833,717.833 739.167,717.667 737.5,717.5C 726.617,719.188 715.95,718.355 705.5,715C 705.728,714.601 706.062,714.435 706.5,714.5C 707.833,714.5 709.167,714.5 710.5,714.5C 715.748,716.022 721.248,716.689 727,716.5C 731.015,716.499 734.849,716.165 738.5,715.5C 748.647,714.341 757.981,711.007 766.5,705.5C 770.105,703.528 773.105,700.861 775.5,697.5C 786.47,684.449 786.137,671.782 774.5,659.5 Z"/></g>
<g><path style="opacity:0.012" fill="#1c456d" d="M 64.5,717.5 C 64.5,718.167 64.5,718.833 64.5,719.5C 63.1667,718.833 63.1667,718.167 64.5,717.5 Z"/></g>
<g><path style="opacity:0.004" fill="#1a456f" d="M 64.5,719.5 C 64.8333,719.5 65.1667,719.5 65.5,719.5C 65.3147,720.17 64.9813,720.17 64.5,719.5 Z"/></g>
<g><path style="opacity:0.016" fill="#19426a" d="M 66.5,722.5 C 66.5,723.167 66.5,723.833 66.5,724.5C 66.1667,724.5 65.8333,724.5 65.5,724.5C 63.9689,723.075 64.3023,722.409 66.5,722.5 Z"/></g>
<g><path style="opacity:0.007" fill="#1a426b" d="M 65.5,724.5 C 65.4827,726.028 64.816,726.528 63.5,726C 64.0442,725.283 64.7109,724.783 65.5,724.5 Z"/></g>
<g><path style="opacity:0.012" fill="#1b416c" d="M 66.5,724.5 C 66.8333,724.5 67.1667,724.5 67.5,724.5C 67.3147,725.17 66.9813,725.17 66.5,724.5 Z"/></g>
<g><path style="opacity:0.004" fill="#1b436c" d="M 66.5,726.5 C 67.8333,727.167 67.8333,727.167 66.5,726.5 Z"/></g>
<g><path style="opacity:0.004" fill="#1a416b" d="M 68.5,728.5 C 69.8333,729.167 69.8333,729.167 68.5,728.5 Z"/></g>
<g><path style="opacity:0.004" fill="#1b426b" d="M 942.5,728.5 C 943.833,729.167 943.833,729.167 942.5,728.5 Z"/></g>
<g><path style="opacity:0.004" fill="#1d426a" d="M 70.5,730.5 C 69.8333,731.167 69.8333,731.167 70.5,730.5 Z"/></g>
<g><path style="opacity:0.007" fill="#1e4773" d="M 577.5,730.5 C 577.167,731.167 576.833,731.833 576.5,732.5C 575.243,731.377 575.576,730.711 577.5,730.5 Z"/></g>
<g><path style="opacity:0.02" fill="#1a4067" d="M 72.5,733.5 C 71.8333,734.167 71.8333,734.167 72.5,733.5 Z"/></g>
<g><path style="opacity:0.074" fill="#2f6898" d="M 581.5,733.5 C 582.478,733.811 583.145,734.478 583.5,735.5C 440.001,736.833 296.667,736.833 153.5,735.5C 295.499,735.495 437.332,735.495 579,735.5C 580.301,735.361 581.134,734.695 581.5,733.5 Z"/></g>
<g><path style="opacity:0.951" fill="#051c3a" d="M 153.5,735.5 C 296.667,736.833 440.001,736.833 583.5,735.5C 583.145,734.478 582.478,733.811 581.5,733.5C 580.5,733.167 579.833,732.5 579.5,731.5C 579.369,730.761 579.536,730.094 580,729.5C 581.333,730.833 582.667,732.167 584,733.5C 584.72,735.112 584.554,736.612 583.5,738C 441.5,738.667 299.5,738.667 157.5,738C 154.424,737.654 151.424,736.988 148.5,736C 150.134,735.506 151.801,735.34 153.5,735.5 Z"/></g>
<g><path style="opacity:0.004" fill="#1c4069" d="M 72.5,737.5 C 73.8333,738.167 73.8333,738.167 72.5,737.5 Z"/></g>
<g><path style="opacity:0.996" fill="#f0e035" d="M 626.5,724.5 C 633.032,730.524 640.032,736.024 647.5,741C 655.926,745.702 663.926,749.869 671.5,753.5C 660.474,749.82 650.14,744.82 640.5,738.5C 639.738,736.738 638.404,735.738 636.5,735.5C 633.167,731.833 629.833,728.167 626.5,724.5 Z"/></g>
<g><path style="opacity:0.004" fill="#194168" d="M 72.5,740.5 C 73.8333,741.167 73.8333,741.167 72.5,740.5 Z"/></g>
<g><path style="opacity:0.016" fill="#183f6b" d="M 77.5,740.5 C 76.8333,741.167 76.8333,741.167 77.5,740.5 Z"/></g>
<g><path style="opacity:0.004" fill="#173f67" d="M 75.5,742.5 C 74.475,742.103 74.3083,741.437 75,740.5C 75.4643,741.094 75.631,741.761 75.5,742.5 Z"/></g>
<g><path style="opacity:0.992" fill="#0e146c" d="M 816.5,725.5 C 811.071,733.597 804.071,739.93 795.5,744.5C 802.773,738.565 809.773,732.232 816.5,725.5 Z"/></g>
<g><path style="opacity:0.004" fill="#1a4163" d="M 71.5,742.5 C 72.8333,743.167 72.8333,743.167 71.5,742.5 Z"/></g>
<g><path style="opacity:0.012" fill="#1b406b" d="M 75.5,742.5 C 76.8333,743.167 76.8333,743.167 75.5,742.5 Z"/></g>
<g><path style="opacity:0.016" fill="#194169" d="M 78.5,742.5 C 77.8333,743.167 77.8333,743.167 78.5,742.5 Z"/></g>
<g><path style="opacity:0.004" fill="#1a4267" d="M 929.5,746.5 C 930.833,747.167 930.833,747.167 929.5,746.5 Z"/></g>
<g><path style="opacity:0.008" fill="#194069" d="M 81.5,746.5 C 81.3879,750.339 80.7213,750.339 79.5,746.5C 79.9698,745.537 80.6365,745.537 81.5,746.5 Z"/></g>
<g><path style="opacity:0.004" fill="#1a4269" d="M 83.5,748.5 C 82.8333,749.167 82.8333,749.167 83.5,748.5 Z"/></g>
<g><path style="opacity:1" fill="#10126d" d="M 640.5,738.5 C 650.14,744.82 660.474,749.82 671.5,753.5C 672.93,754.537 674.597,755.204 676.5,755.5C 676.265,756.097 675.765,756.43 675,756.5C 662.209,752.69 650.709,746.69 640.5,738.5 Z"/></g>
<g><path style="opacity:0.004" fill="#1b4168" d="M 930.5,748.5 C 931.833,749.167 931.833,749.167 930.5,748.5 Z"/></g>
<g><path style="opacity:0.02" fill="#194069" d="M 85.5,750.5 C 84.8333,751.167 84.8333,751.167 85.5,750.5 Z"/></g>
<g><path style="opacity:0.004" fill="#183b66" d="M 926.5,750.5 C 927.833,751.167 927.833,751.167 926.5,750.5 Z"/></g>
<g><path style="opacity:0.004" fill="#17406a" d="M 88.5,755.5 C 89.525,755.897 89.6917,756.563 89,757.5C 88.5357,756.906 88.369,756.239 88.5,755.5 Z"/></g>
<g><path style="opacity:1" fill="#18156d" d="M 773.5,754.5 C 773.938,754.435 774.272,754.601 774.5,755C 767.263,758.153 759.93,759.653 752.5,759.5C 759.537,757.991 766.537,756.324 773.5,754.5 Z"/></g>
<g><path style="opacity:0.02" fill="#173d69" d="M 93.5,758.5 C 92.8333,759.167 92.8333,759.167 93.5,758.5 Z"/></g>
<g><path style="opacity:0.008" fill="#1a3f69" d="M 917.5,758.5 C 918.833,759.167 918.833,759.167 917.5,758.5 Z"/></g>
<g><path style="opacity:0.008" fill="#1a3e67" d="M 908.5,765.5 C 909.289,765.783 909.956,766.283 910.5,767C 909.251,767.74 908.251,767.573 907.5,766.5C 908.167,766.5 908.5,766.167 908.5,765.5 Z"/></g>
<g><path style="opacity:0.008" fill="#173b6b" d="M 898.5,771.5 C 899.833,772.167 899.833,772.167 898.5,771.5 Z"/></g>
<g><path style="opacity:0.004" fill="#184167" d="M 901.5,771.5 C 902.833,772.167 902.833,772.167 901.5,771.5 Z"/></g>
<g><path style="opacity:0.009" fill="#1a416b" d="M 113.5,772.5 C 113.5,772.833 113.5,773.167 113.5,773.5C 112.778,773.918 112.278,774.584 112,775.5C 111.275,773.843 111.775,772.843 113.5,772.5 Z"/></g>
<g><path style="opacity:0.004" fill="#193e69" d="M 901.5,772.5 C 900.833,773.167 900.833,773.167 901.5,772.5 Z"/></g>
<g><path style="opacity:0.012" fill="#1c4066" d="M 113.5,773.5 C 113.833,773.5 114.167,773.5 114.5,773.5C 114.315,774.17 113.981,774.17 113.5,773.5 Z"/></g>
<g><path style="opacity:0.006" fill="#193f69" d="M 886.5,777.5 C 887.525,777.897 887.692,778.563 887,779.5C 886.536,778.906 886.369,778.239 886.5,777.5 Z"/></g>
<g><path style="opacity:0.004" fill="#1c4069" d="M 119.5,778.5 C 120.833,779.167 120.833,779.167 119.5,778.5 Z"/></g>
<g><path style="opacity:0.004" fill="#1a3e67" d="M 884.5,778.5 C 885.833,779.167 885.833,779.167 884.5,778.5 Z"/></g>
<g><path style="opacity:0.004" fill="#194368" d="M 882.5,779.5 C 883.833,780.167 883.833,780.167 882.5,779.5 Z"/></g>
<g><path style="opacity:0.007" fill="#1a4068" d="M 131.5,780.5 C 130.86,782.332 129.86,782.665 128.5,781.5C 129.325,780.614 130.325,780.281 131.5,780.5 Z"/></g>
<g><path style="opacity:0.016" fill="#163e6a" d="M 878.5,780.5 C 879.833,781.167 879.833,781.167 878.5,780.5 Z"/></g>
<g><path style="opacity:0.008" fill="#184067" d="M 132.5,781.5 C 133.833,782.167 133.833,782.167 132.5,781.5 Z"/></g>
<g><path style="opacity:0.016" fill="#1c3e65" d="M 882.5,781.5 C 883.833,782.167 883.833,782.167 882.5,781.5 Z"/></g>
<g><path style="opacity:0.016" fill="#173c66" d="M 138.5,782.5 C 137.399,783.598 136.066,783.765 134.5,783C 135.793,782.51 137.127,782.343 138.5,782.5 Z"/></g>
<g><path style="opacity:0.99" fill="#00112a" d="M 644.5,785.5 C 642.585,785.784 640.919,785.451 639.5,784.5C 476.334,783.667 313.001,783.167 149.5,783C 313.833,782.333 478.167,782.333 642.5,783C 644.246,783.471 645.913,784.138 647.5,785C 646.552,785.483 645.552,785.649 644.5,785.5 Z"/></g>
<g><path style="opacity:0.016" fill="#1a4267" d="M 872.5,782.5 C 873.833,783.167 873.833,783.167 872.5,782.5 Z"/></g>
<g><path style="opacity:0.004" fill="#1b446b" d="M 874.5,782.5 C 875.833,783.167 875.833,783.167 874.5,782.5 Z"/></g>
<g><path style="opacity:0.004" fill="#1a416b" d="M 876.5,782.5 C 877.833,783.167 877.833,783.167 876.5,782.5 Z"/></g>
<g><path style="opacity:0.004" fill="#1b3f6c" d="M 155.5,785.5 C 156.833,786.167 156.833,786.167 155.5,785.5 Z"/></g>
<g><path style="opacity:0.004" fill="#1c406a" d="M 279.5,785.5 C 280.833,786.167 280.833,786.167 279.5,785.5 Z"/></g>
<g><path style="opacity:0.004" fill="#1c426d" d="M 491.5,785.5 C 492.833,786.167 492.833,786.167 491.5,785.5 Z"/></g>
<g><path style="opacity:0.004" fill="#1c416d" d="M 547.5,785.5 C 548.833,786.167 548.833,786.167 547.5,785.5 Z"/></g>
<g><path style="opacity:0.004" fill="#1d436e" d="M 828.5,785.5 C 829.833,786.167 829.833,786.167 828.5,785.5 Z"/></g>
<g><path style="opacity:0.004" fill="#1b426b" d="M 185.5,786.5 C 186.833,787.167 186.833,787.167 185.5,786.5 Z"/></g>
<g><path style="opacity:0.004" fill="#1e436d" d="M 200.5,786.5 C 201.833,787.167 201.833,787.167 200.5,786.5 Z"/></g>
<g><path style="opacity:0.004" fill="#1c416b" d="M 249.5,786.5 C 250.833,787.167 250.833,787.167 249.5,786.5 Z"/></g>
<g><path style="opacity:0.004" fill="#1e4672" d="M 639.5,786.5 C 640.833,787.167 640.833,787.167 639.5,786.5 Z"/></g>
<g><path style="opacity:0.004" fill="#19406b" d="M 797.5,786.5 C 798.833,787.167 798.833,787.167 797.5,786.5 Z"/></g>
<g><path style="opacity:0.016" fill="#204771" d="M 800.5,787.5 C 800.897,786.475 801.563,786.308 802.5,787C 801.906,787.464 801.239,787.631 800.5,787.5 Z"/></g>
<g><path style="opacity:0.004" fill="#1f4670" d="M 806.5,786.5 C 807.833,787.167 807.833,787.167 806.5,786.5 Z"/></g>
<g><path style="opacity:0.008" fill="#1c4771" d="M 641.5,787.5 C 642.833,788.167 642.833,788.167 641.5,787.5 Z"/></g>
<g><path style="opacity:0.004" fill="#204872" d="M 643.5,787.5 C 644.833,788.167 644.833,788.167 643.5,787.5 Z"/></g>
<g><path style="opacity:0.004" fill="#1b416a" d="M 176.5,788.5 C 177.833,789.167 177.833,789.167 176.5,788.5 Z"/></g>
<g><path style="opacity:0.004" fill="#1d426a" d="M 370.5,788.5 C 371.833,789.167 371.833,789.167 370.5,788.5 Z"/></g>
<g><path style="opacity:0.008" fill="#1c426b" d="M 418.5,788.5 C 419.833,789.167 419.833,789.167 418.5,788.5 Z"/></g>
<g><path style="opacity:0.004" fill="#1c4674" d="M 794.5,788.5 C 795.833,789.167 795.833,789.167 794.5,788.5 Z"/></g>
<g><path style="opacity:0.004" fill="#1d436c" d="M 830.5,788.5 C 831.833,789.167 831.833,789.167 830.5,788.5 Z"/></g>
<g><path style="opacity:0.997" fill="#09106a" d="M 690.5,759.5 C 692.591,759.318 694.591,759.652 696.5,760.5C 697.106,767.886 697.94,775.219 699,782.5C 701.703,785.934 705.203,787.934 709.5,788.5C 720.682,790.29 731.682,789.457 742.5,786C 745.596,783.971 747.262,781.138 747.5,777.5C 747.854,771.594 748.854,765.927 750.5,760.5C 753.983,782.368 744.316,792.702 721.5,791.5C 700.648,792.31 691.648,782.31 694.5,761.5C 692.293,761.109 690.96,760.442 690.5,759.5 Z"/></g>
<g><path style="opacity:1" fill="#f0e035" d="M 747.5,777.5 C 747.262,781.138 745.596,783.971 742.5,786C 731.682,789.457 720.682,790.29 709.5,788.5C 717.657,787.671 725.99,787.171 734.5,787C 739.915,786.869 743.749,784.369 746,779.5C 746.333,773.167 746.667,766.833 747,760.5C 747.499,766.157 747.666,771.824 747.5,777.5 Z"/></g>
<g><path style="opacity:0.004" fill="#1a4069" d="M 231.5,790.5 C 232.833,791.167 232.833,791.167 231.5,790.5 Z"/></g>
<g><path style="opacity:0.004" fill="#1f4671" d="M 645.5,790.5 C 646.833,791.167 646.833,791.167 645.5,790.5 Z"/></g>
<g><path style="opacity:0.004" fill="#1b4571" d="M 648.5,791.5 C 648.897,790.475 649.563,790.308 650.5,791C 649.906,791.464 649.239,791.631 648.5,791.5 Z"/></g>
<g><path style="opacity:1" fill="#0d2846" d="M 913.5,760.5 C 912.027,762.395 910.36,764.061 908.5,765.5C 907.833,765.5 907.5,765.833 907.5,766.5C 904.24,767.774 901.24,769.44 898.5,771.5C 894.187,772.99 890.187,774.99 886.5,777.5C 883.458,777.733 880.792,778.733 878.5,780.5C 872.193,781.728 865.86,782.895 859.5,784C 840.5,784.333 821.5,784.667 802.5,785C 800.618,785.198 798.952,785.698 797.5,786.5C 794.151,787.169 791.484,788.836 789.5,791.5C 785.823,795.511 783.157,800.178 781.5,805.5C 780.637,806.463 779.97,806.463 779.5,805.5C 782.059,795.785 787.726,788.618 796.5,784C 816.769,782.702 837.102,782.035 857.5,782C 877.644,779.735 895.644,772.401 911.5,760C 912.437,759.308 913.103,759.475 913.5,760.5 Z"/></g>
<g><path style="opacity:0.004" fill="#1c4169" d="M 789.5,791.5 C 790.833,792.167 790.833,792.167 789.5,791.5 Z"/></g>
<g><path style="opacity:0.012" fill="#1e476f" d="M 788.5,793.5 C 789.833,794.167 789.833,794.167 788.5,793.5 Z"/></g>
<g><path style="opacity:0.004" fill="#1f4770" d="M 790.5,794.5 C 791.833,795.167 791.833,795.167 790.5,794.5 Z"/></g>
<g><path style="opacity:0.008" fill="#1c4772" d="M 655.5,796.5 C 656.833,797.167 656.833,797.167 655.5,796.5 Z"/></g>
<g><path style="opacity:0.016" fill="#1b446f" d="M 656.5,798.5 C 657.833,799.167 657.833,799.167 656.5,798.5 Z"/></g>
<g><path style="opacity:0.004" fill="#1c4570" d="M 787.5,798.5 C 788.833,799.167 788.833,799.167 787.5,798.5 Z"/></g>
<g><path style="opacity:0.004" fill="#1a426c" d="M 657.5,800.5 C 658.525,800.897 658.692,801.563 658,802.5C 657.536,801.906 657.369,801.239 657.5,800.5 Z"/></g>
<g><path style="opacity:0.004" fill="#1c456c" d="M 656.5,804.5 C 657.833,805.167 657.833,805.167 656.5,804.5 Z"/></g>
<g><path style="opacity:0.008" fill="#1b4269" d="M 659.5,806.5 C 660.833,807.167 660.833,807.167 659.5,806.5 Z"/></g>
<g><path style="opacity:0.004" fill="#1c416a" d="M 781.5,807.5 C 782.525,807.897 782.692,808.563 782,809.5C 781.536,808.906 781.369,808.239 781.5,807.5 Z"/></g>
<g><path style="opacity:0.004" fill="#1c3e66" d="M 663.5,816.5 C 664.833,817.167 664.833,817.167 663.5,816.5 Z"/></g>
<g><path style="opacity:0.004" fill="#193f66" d="M 667.5,817.5 C 666.833,818.167 666.833,818.167 667.5,817.5 Z"/></g>
<g><path style="opacity:0.008" fill="#1a3c62" d="M 667.5,822.5 C 668.833,823.167 668.833,823.167 667.5,822.5 Z"/></g>
<g><path style="opacity:0.016" fill="#1a3e61" d="M 774.5,822.5 C 775.833,823.167 775.833,823.167 774.5,822.5 Z"/></g>
<g><path style="opacity:0.004" fill="#1a3e61" d="M 677.5,825.5 C 677.5,825.833 677.5,826.167 677.5,826.5C 676.83,826.019 676.83,825.685 677.5,825.5 Z"/></g>
<g><path style="opacity:0.004" fill="#1b4066" d="M 677.5,826.5 C 678.833,827.167 678.833,827.167 677.5,826.5 Z"/></g>
<g><path style="opacity:0.02" fill="#1a416a" d="M 679.5,828.5 C 680.833,829.167 680.833,829.167 679.5,828.5 Z"/></g>
<g><path style="opacity:0.012" fill="#1b4067" d="M 682.5,828.5 C 683.833,829.167 683.833,829.167 682.5,828.5 Z"/></g>
<g><path style="opacity:0.024" fill="#1a4068" d="M 684.5,829.5 C 685.833,830.167 685.833,830.167 684.5,829.5 Z"/></g>
<g><path style="opacity:0.016" fill="#183c66" d="M 679.5,831.5 C 679.897,830.475 680.563,830.308 681.5,831C 680.906,831.464 680.239,831.631 679.5,831.5 Z"/></g>
<g><path style="opacity:0.018" fill="#193d66" d="M 689.5,830.5 C 689.103,831.525 688.437,831.692 687.5,831C 688.094,830.536 688.761,830.369 689.5,830.5 Z"/></g>
<g><path style="opacity:0.004" fill="#183d66" d="M 754.5,830.5 C 755.833,831.167 755.833,831.167 754.5,830.5 Z"/></g>
<g><path style="opacity:0.008" fill="#1b3e66" d="M 695.5,833.5 C 696.833,834.167 696.833,834.167 695.5,833.5 Z"/></g>
<g><path style="opacity:0.004" fill="#173e63" d="M 713.5,835.5 C 714.833,836.167 714.833,836.167 713.5,835.5 Z"/></g>
<g><path style="opacity:0.012" fill="#1a4065" d="M 723.5,835.5 C 724.833,836.167 724.833,836.167 723.5,835.5 Z"/></g>
<g><path style="opacity:0.008" fill="#1a3f65" d="M 728.5,835.5 C 732.243,835.459 732.41,836.126 729,837.5C 728.536,836.906 728.369,836.239 728.5,835.5 Z"/></g>
<g><path style="opacity:0.008" fill="#193d62" d="M 703.5,836.5 C 704.833,837.167 704.833,837.167 703.5,836.5 Z"/></g>
<g><path style="opacity:0.004" fill="#193a60" d="M 716.5,838.5 C 717.833,839.167 717.833,839.167 716.5,838.5 Z"/></g>
<g><path style="opacity:0.008" fill="#193b61" d="M 735.5,838.5 C 736.833,839.167 736.833,839.167 735.5,838.5 Z"/></g>
</svg>
