<?xml version="1.0" encoding="UTF-8"?>
<!DOCTYPE svg PUBLIC "-//W3C//DTD SVG 1.1//EN" "http://www.w3.org/Graphics/SVG/1.1/DTD/svg11.dtd">
<svg xmlns="http://www.w3.org/2000/svg" version="1.1" width="1024px" height="1024px" style="shape-rendering:geometricPrecision; text-rendering:geometricPrecision; image-rendering:optimizeQuality; fill-rule:evenodd; clip-rule:evenodd" xmlns:xlink="http://www.w3.org/1999/xlink">
<g><path style="opacity:1" fill="#f1ebdc" d="M -0.5,-0.5 C 340.833,-0.5 682.167,-0.5 1023.5,-0.5C 1023.5,340.833 1023.5,682.167 1023.5,1023.5C 682.167,1023.5 340.833,1023.5 -0.5,1023.5C -0.5,682.167 -0.5,340.833 -0.5,-0.5 Z"/></g>
<g><path style="opacity:1" fill="#f4f9fb" d="M 745.5,196.5 C 743.5,196.5 741.5,196.5 739.5,196.5C 590.855,195.506 442.188,195.173 293.5,195.5C 437.488,194.338 586.154,194.172 739.5,195C 741.708,195.191 743.708,195.691 745.5,196.5 Z"/></g>
<g><path style="opacity:1" fill="#e6ac3c" d="M 293.5,195.5 C 442.188,195.173 590.855,195.506 739.5,196.5C 587.833,197.833 436.167,197.833 284.5,196.5C 287.713,196.81 290.713,196.477 293.5,195.5 Z"/></g>
<g><path style="opacity:1" fill="#e6b241" d="M 284.5,196.5 C 436.167,197.833 587.833,197.833 739.5,196.5C 741.5,196.5 743.5,196.5 745.5,196.5C 790.052,205.602 825.052,228.936 850.5,266.5C 858.077,280.327 863.41,294.993 866.5,310.5C 865.861,311.097 865.528,311.93 865.5,313C 866.093,316.151 866.593,319.318 867,322.5C 867.167,401.668 867.667,480.668 868.5,559.5C 860.249,618.532 828.915,660.032 774.5,684C 760.011,689.666 745.011,692.5 729.5,692.5C 655.459,692.83 581.459,692.497 507.5,691.5C 506.438,692.425 506.438,693.425 507.5,694.5C 458.794,732.844 410.128,771.178 361.5,809.5C 342.876,822.496 322.542,825.83 300.5,819.5C 292.671,816.003 285.337,811.67 278.5,806.5C 266.908,795.655 259.741,782.322 257,766.5C 255.589,743.865 255.089,721.198 255.5,698.5C 255.5,693.833 255.5,689.167 255.5,684.5C 236.014,678.095 218.681,668.095 203.5,654.5C 180.513,631.862 166.513,604.529 161.5,572.5C 160.185,484.961 160.185,397.627 161.5,310.5C 171.443,270.444 193.776,239.278 228.5,217C 245.838,206.496 264.504,199.663 284.5,196.5 Z"/></g>
<g><path style="opacity:1" fill="#fcd438" d="M 287.5,223.5 C 436.666,222.334 585.999,222.167 735.5,223C 740.531,223.841 745.531,224.841 750.5,226C 753.072,226.47 754.739,227.303 755.5,228.5C 748.898,226.85 742.231,225.516 735.5,224.5C 586.184,223.508 436.851,223.174 287.5,223.5 Z"/></g>
<g><path style="opacity:1" fill="#2c335a" d="M 287.5,223.5 C 436.851,223.174 586.184,223.508 735.5,224.5C 585.167,225.833 434.833,225.833 284.5,224.5C 285.609,224.443 286.609,224.11 287.5,223.5 Z"/></g>
<g><path style="opacity:1" fill="#193d55" d="M 284.5,224.5 C 434.833,225.833 585.167,225.833 735.5,224.5C 742.231,225.516 748.898,226.85 755.5,228.5C 795.509,242.342 822.342,269.342 836,309.5C 837.807,315.392 838.974,321.392 839.5,327.5C 838.667,404.666 838.167,481.999 838,559.5C 837.5,562.5 837,565.5 836.5,568.5C 836.52,569.726 836.853,570.726 837.5,571.5C 821.877,623.296 787.543,654.129 734.5,664C 656.131,664.015 577.798,664.681 499.5,666C 494.585,668.575 489.919,671.575 485.5,675C 437.16,713.493 388.494,751.493 339.5,789C 316.433,797.038 298.933,790.538 287,769.5C 285.592,765.943 284.592,762.276 284,758.5C 283.832,726.331 283.332,694.331 282.5,662.5C 281.167,662.5 279.833,662.5 278.5,662.5C 229.802,647.466 199.469,615.133 187.5,565.5C 187.5,564.5 187.5,563.5 187.5,562.5C 188.333,482.668 188.833,402.668 189,322.5C 189.5,320 190,317.5 190.5,315C 190.472,313.93 190.139,313.097 189.5,312.5C 202.23,271.603 228.564,243.437 268.5,228C 273.708,226.198 279.041,225.031 284.5,224.5 Z"/></g>
<g><path style="opacity:1" fill="#efeadc" d="M 710.5,262.5 C 744.315,259.745 770.982,272.079 790.5,299.5C 794.818,307.786 798.151,316.453 800.5,325.5C 799.844,326.622 799.511,327.955 799.5,329.5C 800.154,403.656 800.821,477.656 801.5,551.5C 797.484,587.672 778.151,611.505 743.5,623C 737.248,624.517 730.914,625.517 724.5,626C 643.833,626.333 563.167,626.667 482.5,627C 439.833,661.667 397.167,696.333 354.5,731C 349.965,734.768 344.965,737.768 339.5,740C 329.048,741.552 323.214,737.052 322,726.5C 321.5,692.835 321.333,659.168 321.5,625.5C 280.373,632.354 250.539,617.354 232,580.5C 229.846,575.149 228.013,569.816 226.5,564.5C 225.521,488.847 225.188,413.18 225.5,337.5C 228.655,302.83 246.321,278.663 278.5,265C 284.346,263.049 290.346,262.215 296.5,262.5C 434.422,262.466 572.422,262.466 710.5,262.5 Z"/></g>
<g><path style="opacity:1" fill="#010c27" d="M 710.5,262.5 C 572.422,262.466 434.422,262.466 296.5,262.5C 295.048,261.698 293.382,261.198 291.5,261C 431.329,261.112 570.996,261.612 710.5,262.5 Z"/></g>
<g><path style="opacity:1" fill="#2f345c" d="M 839.5,327.5 C 839.328,328.492 839.662,329.158 840.5,329.5C 840.667,404.501 840.5,479.501 840,554.5C 839.335,559.156 838.835,563.823 838.5,568.5C 837.596,569.209 837.263,570.209 837.5,571.5C 836.853,570.726 836.52,569.726 836.5,568.5C 837,565.5 837.5,562.5 838,559.5C 838.167,481.999 838.667,404.666 839.5,327.5 Z"/></g>
<g><path style="opacity:1" fill="#001736" d="M 790.5,299.5 C 797.406,309.337 801.573,320.337 803,332.5C 803.667,405.167 803.667,477.833 803,550.5C 802.833,479.332 802.333,408.332 801.5,337.5C 801.495,333.466 801.162,329.466 800.5,325.5C 798.151,316.453 794.818,307.786 790.5,299.5 Z"/></g>
<g><path style="opacity:1" fill="#f4fafd" d="M 158.5,328.5 C 158.178,407.856 158.511,487.189 159.5,566.5C 159.649,567.552 159.483,568.552 159,569.5C 158.667,567.5 158.333,565.5 158,563.5C 157.172,482.478 157.339,404.145 158.5,328.5 Z"/></g>
<g><path style="opacity:1" fill="#fdd63a" d="M 838.5,568.5 C 838.835,563.823 839.335,559.156 840,554.5C 840.5,479.501 840.667,404.501 840.5,329.5C 841.665,405.43 841.831,482.097 841,559.5C 840.441,563.186 839.774,566.853 839,570.5C 838.536,569.906 838.369,569.239 838.5,568.5 Z"/></g>
<g><path style="opacity:1" fill="#1d3049" d="M 250.5,333.5 C 251.833,408.5 251.833,483.5 250.5,558.5C 249.179,483.515 249.179,408.515 250.5,333.5 Z"/></g>
<g><path style="opacity:1" fill="#010f2e" d="M 225.5,337.5 C 225.188,413.18 225.521,488.847 226.5,564.5C 225.583,564.506 225.083,563.506 225,561.5C 224.168,486.666 224.334,411.999 225.5,337.5 Z"/></g>
<g><path style="opacity:1" fill="#303458" d="M 189.5,312.5 C 190.139,313.097 190.472,313.93 190.5,315C 190,317.5 189.5,320 189,322.5C 188.833,402.668 188.333,482.668 187.5,562.5C 186.509,485.195 186.176,407.862 186.5,330.5C 187.493,324.631 188.493,318.631 189.5,312.5 Z"/></g>
<g><path style="opacity:1" fill="#e8bc3e" d="M 866.5,310.5 C 867.792,316.415 868.626,322.415 869,328.5C 869.806,405.51 869.64,482.51 868.5,559.5C 867.667,480.668 867.167,401.668 867,322.5C 866.593,319.318 866.093,316.151 865.5,313C 865.528,311.93 865.861,311.097 866.5,310.5 Z"/></g>
<g><path style="opacity:1" fill="#e6ac34" d="M 161.5,310.5 C 160.185,397.627 160.185,484.961 161.5,572.5C 160.833,570.5 160.167,568.5 159.5,566.5C 158.511,487.189 158.178,407.856 158.5,328.5C 159.695,322.665 160.695,316.665 161.5,310.5 Z"/></g>
<g><path style="opacity:1" fill="#fefdfb" d="M 800.5,325.5 C 801.162,329.466 801.495,333.466 801.5,337.5C 801.5,408.833 801.5,480.167 801.5,551.5C 800.821,477.656 800.154,403.656 799.5,329.5C 799.511,327.955 799.844,326.622 800.5,325.5 Z"/></g>
<g><path style="opacity:1" fill="#010d2f" d="M 775.5,330.5 C 776.488,404.478 776.821,478.478 776.5,552.5C 775.826,479.484 775.159,406.317 774.5,333C 774.528,331.93 774.861,331.097 775.5,330.5 Z"/></g>
<g><path style="opacity:1" fill="#fed739" d="M 186.5,330.5 C 186.176,407.862 186.509,485.195 187.5,562.5C 187.5,563.5 187.5,564.5 187.5,565.5C 186.583,565.506 186.083,564.506 186,562.5C 185.168,484.999 185.334,407.666 186.5,330.5 Z"/></g>
<g><path style="opacity:1" fill="#193d55" d="M 775.5,330.5 C 774.861,331.097 774.528,331.93 774.5,333C 775.159,406.317 775.826,479.484 776.5,552.5C 771.452,579.382 755.452,595.549 728.5,601C 646.167,601.333 563.833,601.667 481.5,602C 475.678,603.245 470.345,605.578 465.5,609C 426.126,642.098 386.292,674.598 346,706.5C 345.986,673.415 345.319,640.415 344,607.5C 341.559,605.031 338.726,603.198 335.5,602C 320.5,601.667 305.5,601.333 290.5,601C 269.44,594.107 256.107,579.94 250.5,558.5C 251.833,483.5 251.833,408.5 250.5,333.5C 252.645,318.855 259.312,306.688 270.5,297C 280.11,289.186 291.11,285.686 303.5,286.5C 445.829,287.314 588.163,287.814 730.5,288C 754.4,292.733 769.4,306.9 775.5,330.5 Z"/></g>
<g><path style="opacity:1" fill="#e7b341" d="M 657.5,396.5 C 681.824,397.081 697.324,409.081 704,432.5C 707.836,455.659 699.669,473.159 679.5,485C 656.097,493.777 636.597,488.61 621,469.5C 606.883,441.626 612.716,419.126 638.5,402C 644.679,399.208 651.013,397.374 657.5,396.5 Z"/></g>
<g><path style="opacity:1" fill="#e7b341" d="M 365.5,396.5 C 393.307,399.139 409.307,414.305 413.5,442C 409.878,475.62 391.212,490.953 357.5,488C 338.898,483.065 327.398,471.232 323,452.5C 320.541,421.044 334.708,402.377 365.5,396.5 Z"/></g>
<g><path style="opacity:1" fill="#e7b341" d="M 507.5,396.5 C 531.765,395.881 548.265,406.881 557,429.5C 562.361,452.092 555.528,469.925 536.5,483C 519.972,490.656 503.639,490.322 487.5,482C 469.247,467.907 463.414,449.74 470,427.5C 477.051,410.414 489.551,400.081 507.5,396.5 Z"/></g>
<g><path style="opacity:1" fill="#1a3852" d="M 203.5,654.5 C 218.681,668.095 236.014,678.095 255.5,684.5C 255.5,689.167 255.5,693.833 255.5,698.5C 234.215,688.521 216.882,673.855 203.5,654.5 Z"/></g>
<g><path style="opacity:1" fill="#d1a740" d="M 729.5,692.5 C 655.598,693.17 581.598,693.836 507.5,694.5C 506.438,693.425 506.438,692.425 507.5,691.5C 581.459,692.497 655.459,692.83 729.5,692.5 Z"/></g>
<g><path style="opacity:1" fill="#183a54" d="M 850.5,266.5 C 871.182,290.661 883.682,318.661 888,350.5C 888.667,423.833 888.667,497.167 888,570.5C 881.83,631.733 850.997,675.233 795.5,701C 781.376,706.894 766.709,710.728 751.5,712.5C 750.207,711.842 748.707,711.508 747,711.5C 673.47,712.147 601.303,712.813 530.5,713.5C 528.708,714.309 526.708,714.809 524.5,715C 480.5,749.333 436.5,783.667 392.5,818C 384.686,824.409 376.353,830.075 367.5,835C 341.537,845.672 317.537,842.339 295.5,825C 289.259,819.263 283.592,813.097 278.5,806.5C 285.337,811.67 292.671,816.003 300.5,819.5C 303.135,821.328 306.135,822.495 309.5,823C 323.682,824.974 337.349,823.308 350.5,818C 354.638,815.685 358.305,812.852 361.5,809.5C 410.128,771.178 458.794,732.844 507.5,694.5C 581.598,693.836 655.598,693.17 729.5,692.5C 745.011,692.5 760.011,689.666 774.5,684C 828.915,660.032 860.249,618.532 868.5,559.5C 869.64,482.51 869.806,405.51 869,328.5C 868.626,322.415 867.792,316.415 866.5,310.5C 863.41,294.993 858.077,280.327 850.5,266.5 Z"/></g>
<g><path style="opacity:1" fill="#fed13b" d="M 278.5,662.5 C 279.833,662.5 281.167,662.5 282.5,662.5C 282.667,691.835 282.5,721.169 282,750.5C 281.5,721.502 281.333,692.502 281.5,663.5C 279.452,663.84 278.452,663.507 278.5,662.5 Z"/></g>
<g><path style="opacity:1" fill="#001a35" d="M 751.5,712.5 C 677.856,713.488 604.189,713.821 530.5,713.5C 601.303,712.813 673.47,712.147 747,711.5C 748.707,711.508 750.207,711.842 751.5,712.5 Z"/></g>
<g><path style="opacity:1" fill="#0e2559" d="M 361.5,809.5 C 358.305,812.852 354.638,815.685 350.5,818C 337.349,823.308 323.682,824.974 309.5,823C 306.135,822.495 303.135,821.328 300.5,819.5C 322.542,825.83 342.876,822.496 361.5,809.5 Z"/></g>
</svg>
