<?xml version="1.0" encoding="UTF-8"?>
<!DOCTYPE svg PUBLIC "-//W3C//DTD SVG 1.1//EN" "http://www.w3.org/Graphics/SVG/1.1/DTD/svg11.dtd">
<svg xmlns="http://www.w3.org/2000/svg" version="1.1" width="1024px" height="1536px" style="shape-rendering:geometricPrecision; text-rendering:geometricPrecision; image-rendering:optimizeQuality; fill-rule:evenodd; clip-rule:evenodd" xmlns:xlink="http://www.w3.org/1999/xlink">
<g><path style="opacity:1" fill="#f1ecde" d="M -0.5,-0.5 C 340.833,-0.5 682.167,-0.5 1023.5,-0.5C 1023.5,511.5 1023.5,1023.5 1023.5,1535.5C 682.167,1535.5 340.833,1535.5 -0.5,1535.5C -0.5,1023.5 -0.5,511.5 -0.5,-0.5 Z"/></g>
<g><path style="opacity:1" fill="#172e3a" d="M 504.5,318.5 C 530.663,317.924 552.997,326.757 571.5,345C 582.994,353.249 595.827,357.083 610,356.5C 618.979,356.357 627.812,355.19 636.5,353C 669.409,349.874 695.909,361.374 716,387.5C 722.191,397.881 727.857,408.548 733,419.5C 739.303,428.14 747.137,434.973 756.5,440C 779.696,446.342 799.529,458.175 816,475.5C 825.207,486.917 830.873,499.917 833,514.5C 833.68,527.213 833.18,539.879 831.5,552.5C 831.43,565.79 835.264,577.79 843,588.5C 854.979,599.808 864.645,612.808 872,627.5C 881.639,653.398 879.639,678.398 866,702.5C 857.609,713.617 851.609,725.951 848,739.5C 847.333,745.167 847.333,750.833 848,756.5C 849.557,765.062 851.89,773.395 855,781.5C 859.4,813.638 849.234,840.138 824.5,861C 814.767,867.728 804.767,874.062 794.5,880C 784.898,886.94 778.398,896.107 775,907.5C 772.802,917.957 770.136,928.29 767,938.5C 764.833,942.167 762.667,945.833 760.5,949.5C 785.896,1003.51 811.396,1057.51 837,1111.5C 842.553,1120.14 841.386,1127.64 833.5,1134C 830.288,1135.08 826.955,1135.58 823.5,1135.5C 789.769,1132.57 756.102,1129.07 722.5,1125C 718.167,1124.33 713.833,1124.33 709.5,1125C 686.618,1153.55 664.118,1182.38 642,1211.5C 633.333,1220.83 624.667,1220.83 616,1211.5C 588.574,1152.98 560.907,1094.65 533,1036.5C 529.639,1033.74 525.805,1031.9 521.5,1031C 509.724,1028.82 498.891,1030.99 489,1037.5C 461.716,1095.41 434.382,1153.41 407,1211.5C 398.333,1220.83 389.667,1220.83 381,1211.5C 358.621,1182.58 336.121,1153.74 313.5,1125C 275.181,1127.93 236.848,1131.43 198.5,1135.5C 185.5,1134.19 181,1127.19 185,1114.5C 211.458,1059.92 237.625,1005.25 263.5,950.5C 260.803,945.626 258.303,940.626 256,935.5C 253.089,924.711 249.756,914.044 246,903.5C 241.703,893.867 235.203,886.034 226.5,880C 210.444,871.712 196.277,860.879 184,847.5C 169.579,828.481 164.245,807.147 168,783.5C 170.496,773.851 172.829,764.185 175,754.5C 176.261,744.802 174.927,735.468 171,726.5C 164.586,714.671 157.92,703.004 151,691.5C 140.295,663.811 142.962,637.478 159,612.5C 166.738,604.102 174.072,595.435 181,586.5C 187.189,576.914 190.689,566.414 191.5,555C 181.664,508.351 197.664,474.017 239.5,452C 253.482,448.128 266.149,441.795 277.5,433C 282.083,429.088 285.917,424.588 289,419.5C 294.908,407.345 301.575,395.678 309,384.5C 328.979,360.726 354.479,350.226 385.5,353C 400.068,356.519 414.734,357.186 429.5,355C 442.882,350.811 454.548,343.811 464.5,334C 476.893,326.151 490.226,320.985 504.5,318.5 Z"/></g>
<g><path style="opacity:1" fill="#3b5563" d="M 502.5,342.5 C 518.603,341.692 533.27,345.858 546.5,355C 569.457,376.207 596.457,384.54 627.5,380C 656.909,371.247 680.409,379.414 698,404.5C 705.19,424.06 716.69,440.56 732.5,454C 744.803,461.332 757.803,467.332 771.5,472C 796.772,482.782 809.439,501.949 809.5,529.5C 801.844,565.364 811.677,595.364 839,619.5C 854.178,637.374 857.845,657.374 850,679.5C 842.76,692.309 835.76,705.309 829,718.5C 823.828,732.369 822.161,746.702 824,761.5C 825.762,769.684 828.095,777.684 831,785.5C 834.04,801.634 830.707,816.301 821,829.5C 816.867,834.634 812.367,839.468 807.5,844C 791.053,851.126 776.886,861.293 765,874.5C 760.057,881.65 756.057,889.316 753,897.5C 750.838,907.646 748.171,917.646 745,927.5C 732.376,952.075 712.21,965.575 684.5,968C 662.946,965.634 643.613,970.967 626.5,984C 618.379,992.943 610.046,1001.61 601.5,1010C 589.016,1018.03 575.35,1021.03 560.5,1019C 550.025,1014.76 539.358,1011.1 528.5,1008C 517.842,1006.03 507.175,1006.03 496.5,1008C 486.293,1011.1 476.293,1014.77 466.5,1019C 448.247,1023.03 431.914,1019.03 417.5,1007C 410.5,999.333 403.5,991.667 396.5,984C 386.215,975.787 374.548,970.454 361.5,968C 346.761,967.302 332.094,965.969 317.5,964C 298.55,956.716 285.217,943.716 277.5,925C 273.988,899.634 262.654,878.634 243.5,862C 233.334,855.416 223,849.082 212.5,843C 197.637,830.09 190.304,813.756 190.5,794C 192.795,781.988 195.629,770.154 199,758.5C 201.272,734.054 194.605,712.387 179,693.5C 167.117,672.838 166.45,651.838 177,630.5C 184.62,620.211 192.62,610.211 201,600.5C 207.519,590.646 212.186,579.98 215,568.5C 215.752,554.956 215.252,541.456 213.5,528C 214.401,502.109 226.734,484.109 250.5,474C 262.083,469.583 273.416,464.583 284.5,459C 295.374,450.455 304.54,440.288 312,428.5C 317.647,411.022 327.813,396.855 342.5,386C 360.587,375.863 379.587,373.863 399.5,380C 420.065,383.389 439.399,380.056 457.5,370C 465.833,363.667 474.167,357.333 482.5,351C 489.074,347.652 495.741,344.818 502.5,342.5 Z"/></g>
<g><path style="opacity:1" fill="#172e3a" d="M 486.5,400.5 C 609.86,395.86 702.36,446.526 764,552.5C 810.888,647.15 808.555,740.483 757,832.5C 703.704,916.59 627.204,963.09 527.5,972C 432.557,974.436 354.057,939.936 292,868.5C 226.676,786.05 209.676,694.384 241,593.5C 276.338,498.828 342.505,437.328 439.5,409C 455.104,405.085 470.771,402.252 486.5,400.5 Z"/></g>
<g><path style="opacity:1" fill="#f0e7ce" d="M 489.5,424.5 C 598.708,421.009 681.875,465.342 739,557.5C 784.141,641.885 784.808,726.552 741,811.5C 684.78,905.611 601.613,950.777 491.5,947C 412.552,938.621 349.052,903.121 301,840.5C 241.14,754.028 233.473,663.028 278,567.5C 324.437,484.357 394.937,436.69 489.5,424.5 Z"/></g>
<g><path style="opacity:1" fill="#172d3a" d="M 507.5,467.5 C 517.234,467.448 524.734,471.448 530,479.5C 546.371,519.739 562.871,559.905 579.5,600C 622.839,603.607 666.172,607.273 709.5,611C 723.029,615.21 728.529,624.376 726,638.5C 725.275,640.949 724.275,643.283 723,645.5C 690.631,674.871 657.964,703.871 625,732.5C 624.67,735.866 625.003,739.199 626,742.5C 634.792,779.457 643.459,816.457 652,853.5C 654.788,867.429 649.621,876.929 636.5,882C 629.81,883.15 623.476,882.15 617.5,879C 582.167,856.665 546.501,834.831 510.5,813.5C 473.032,836.069 435.699,858.903 398.5,882C 379.676,884.502 370.176,876.335 370,857.5C 378.999,815.828 388.499,774.328 398.5,733C 365.948,703.813 333.115,674.98 300,646.5C 291.415,630.526 295.249,618.693 311.5,611C 355.145,607.093 398.811,603.426 442.5,600C 458.938,558.689 475.771,517.523 493,476.5C 497.053,472.066 501.886,469.066 507.5,467.5 Z"/></g>
<g><path style="opacity:1" fill="#eab43e" d="M 539.5,569.5 C 545.314,584.468 551.147,599.468 557,614.5C 560.593,621.764 566.426,625.264 574.5,625C 615.162,628.888 655.829,632.555 696.5,636C 663.716,663.451 631.549,691.617 600,720.5C 597.039,726.636 596.705,732.97 599,739.5C 607.267,776.399 615.767,813.233 624.5,850C 624.15,851.257 623.483,851.591 622.5,851C 588.334,829.749 554,808.749 519.5,788C 511.794,784.263 504.461,784.93 497.5,790C 470.5,807 443.5,824 416.5,841C 410.304,844.928 403.971,848.261 397.5,851C 407.022,809.894 416.355,768.728 425.5,727.5C 424.235,722.479 421.569,718.312 417.5,715C 387.822,688.323 357.822,661.99 327.5,636C 364.433,632.108 401.433,628.774 438.5,626C 445.298,625.651 451.965,624.651 458.5,623C 460.709,621.127 462.542,618.96 464,616.5C 478.461,580.95 492.628,545.284 506.5,509.5C 508.008,507.015 509.341,504.348 510.5,501.5C 519.799,524.421 529.466,547.088 539.5,569.5 Z"/></g>
<g><path style="opacity:1" fill="#15203b" d="M 539.5,569.5 C 529.466,547.088 519.799,524.421 510.5,501.5C 509.341,504.348 508.008,507.015 506.5,509.5C 506.421,508.07 506.754,506.736 507.5,505.5C 506.603,505.331 505.603,504.998 504.5,504.5C 505,503.5 505.5,502.5 506,501.5C 508.237,500.944 510.237,499.944 512,498.5C 518.836,517.639 526.503,536.639 535,555.5C 536.607,560.154 538.107,564.821 539.5,569.5 Z"/></g>
<g><path style="opacity:1" fill="#3c5664" d="M 281.5,971.5 C 303.645,988.107 328.645,994.941 356.5,992C 365.758,994.129 374.091,998.129 381.5,1004C 389.531,1011.7 397.198,1019.7 404.5,1028C 420.351,1039.99 438.351,1045.99 458.5,1046C 436.713,1093.07 414.546,1139.9 392,1186.5C 370.983,1158.47 349.483,1130.8 327.5,1103.5C 325.972,1102.14 324.305,1100.97 322.5,1100C 286.384,1102.21 250.384,1105.71 214.5,1110.5C 235.88,1064.06 258.213,1017.73 281.5,971.5 Z"/></g>
<g><path style="opacity:1" fill="#3b5563" d="M 741.5,969.5 C 742.497,969.47 743.164,969.97 743.5,971C 765.315,1016.96 787.315,1062.8 809.5,1108.5C 808.667,1108.83 807.833,1109.17 807,1109.5C 771.278,1104.86 735.444,1101.7 699.5,1100C 675.966,1128.21 653.133,1157.04 631,1186.5C 608.511,1139.05 586.011,1091.55 563.5,1044C 583.465,1044.95 601.465,1039.62 617.5,1028C 625.446,1020.05 633.446,1012.05 641.5,1004C 655.849,993.746 671.849,989.746 689.5,992C 709.466,990.174 726.799,982.674 741.5,969.5 Z"/></g>
</svg>
